<svg width="300" height="245" viewBox="0 0 300 245" fill="none" xmlns="http://www.w3.org/2000/svg">
<path d="M164.196 24.3948L157.458 12.6331C153.719 6.16798 150.487 0.832346 150.214 0.832346C149.708 0.832346 149.942 0.481827 141.841 14.4246C136.233 24.0832 135.687 25.2127 136.038 26.1084C136.505 27.1989 137.635 38.8438 138.608 52.0466C139.504 64.5094 141.568 107.35 141.296 108.09C140.906 109.103 135.979 108.469 133.058 107.885C131.16 107.505 128.969 107.301 125.318 106.863C125.045 106.94 120.81 106.26 116.214 105.637L115.996 105.607C111.447 104.99 106.134 104.27 104.141 104.04C102.147 103.81 94.5674 102.749 87.1608 101.713L86.8098 101.664C79.3321 100.613 72.7502 99.6778 72.205 99.6389C71.2702 99.561 71.2313 99.6778 70.9587 102.093C70.8029 103.495 70.5303 109.609 70.2966 115.724C69.0503 148.984 67.103 168.028 63.4031 182.789C62.6631 185.71 62.0789 188.358 62.0789 188.67C62.0789 188.981 66.3241 193.227 71.5039 198.134C80.5784 206.741 90.0813 216.828 107.218 236.184C111.19 240.624 114.539 244.129 114.734 243.935C114.89 243.779 115.007 224.89 114.968 201.99L114.851 160.356L108.659 159.694C103.206 159.11 102.388 158.915 101.454 158.097C96.7021 153.735 85.7582 143.57 84.7456 142.48L83.4215 141.117L83.2267 134.262C82.993 126.94 83.1488 125.694 84.1225 125.304C84.8235 125.032 94.3653 126.278 119.836 129.9C131.092 131.497 134.753 132.159 135.298 132.665C136.388 133.678 136.972 135.82 136.739 138.079C136.622 139.169 135.726 147.854 134.753 157.396C133.779 166.938 132.883 175.233 132.766 175.818C132.611 176.791 133.35 177.648 140.984 185.165C145.619 189.721 149.669 193.577 149.981 193.733C150.526 194.045 153.68 190.929 165.247 178.7L167.779 176.09L165.91 158.954C163.417 135.781 163.456 136.482 164.469 134.496C164.936 133.6 165.676 132.626 166.182 132.315C166.961 131.847 172.53 131.107 206.414 127.174C211.36 126.59 215.722 126.239 216.072 126.356C216.617 126.59 216.695 127.485 216.695 133.717V140.805L211.554 145.907C208.711 148.711 204.505 152.8 202.246 155.02L198.079 159.032L193.483 159.382C190.913 159.577 188.109 159.85 187.213 159.967L185.538 160.161V202.223C185.538 225.708 185.694 244.246 185.889 244.168C186.045 244.129 189.628 240.274 193.795 235.678C205.829 222.358 215.293 212.116 226.977 199.653L237.843 188.086L236.441 182.205C234.922 175.935 233.949 170.209 232.663 159.811C231.067 146.881 230.366 134.807 229.703 109.336L229.431 99.2494L226.666 99.522C218.876 100.223 172.686 106.727 166.844 107.934C162.132 108.908 159.912 108.947 159.561 108.051C159.406 107.662 159.522 100.106 159.756 91.1876C160.223 76.1154 160.652 69.1829 163.767 30.042L164.196 24.3948Z" fill="url(#paint0_linear_1305_211)"/>
<path d="M130.04 47.1004C129.495 38.5712 129.066 31.522 129.066 31.4051C129.066 31.0935 128.677 31.1715 125.951 32.1451C103.128 40.1291 84.8625 58.9012 78.8648 80.4774C77.7353 84.4888 76.3722 91.9665 76.7227 92.317C76.8006 92.3949 85.7582 93.4854 96.6242 94.7317C116.604 97.0295 130.624 98.821 131.909 99.2105C132.416 99.3663 132.572 99.1715 132.572 98.3537C132.572 94.9653 130.858 60.3032 130.04 47.1004Z" fill="url(#paint1_linear_1305_211)"/>
<path d="M215.215 66.1062C207.66 52.3582 192.471 39.428 176.425 33.0019C172.647 31.483 171.518 31.2883 171.518 32.184C171.518 32.5346 171.167 37.987 170.739 44.3742C169.142 68.7935 167.545 98.6263 167.818 98.9378C167.935 99.0157 172.063 98.5484 177.048 97.8474C182.033 97.1853 194.418 95.7053 204.544 94.5369C214.67 93.3685 223.083 92.3559 223.199 92.2002C223.589 91.8107 222.187 83.9825 220.941 79.7763C219.538 75.0638 217.591 70.3903 215.215 66.1062Z" fill="url(#paint2_linear_1305_211)"/>
<path d="M17.018 136.866C22.4241 142.004 28.4143 146.492 34.8661 150.239C30.5131 143.184 27.4205 135.427 25.7262 127.314C24.1444 120.525 24.9705 113.398 28.0636 107.15C36.0341 92.3981 54.8446 91.2303 60.4777 91.2303C64.5641 91.1288 65.6116 91.3815 70.1116 91.8196C72.0377 77.2148 73.9088 68.744 86.615 52.8247C75.7794 54.0855 62.3667 56.1463 52.0016 59.5429C39.5674 63.5764 22.1174 70.64 10.8485 82.1029C3.62132 89.6384 -0.203975 97.8101 0.00838871 106.513C0.516315 112.176 2.37459 117.634 5.42776 122.433C8.55763 127.788 12.4633 132.652 17.018 136.866Z" fill="url(#paint3_linear_1305_211)"/>
<path d="M282.982 136.574C277.576 141.712 271.586 146.2 265.134 149.947C269.487 142.892 272.579 135.135 274.274 127.022C275.856 120.233 275.029 113.106 271.936 106.857C263.966 92.106 245.155 90.9383 239.522 90.9383C235.436 90.8367 234.388 91.0894 229.888 91.5275C227.962 76.9227 226.091 68.4519 213.385 52.5326C224.221 53.7934 237.633 55.8542 247.998 59.2508C260.433 63.2844 277.883 70.3479 289.151 81.8108C296.379 89.3463 300.204 97.518 299.992 106.221C299.484 111.884 297.625 117.342 294.572 122.14C291.442 127.496 287.537 132.36 282.982 136.574Z" fill="url(#paint4_linear_1305_211)"/>
<path d="M150.213 1.0008C150.486 1.0008 153.719 6.33628 157.458 12.8013L164.196 24.5627L163.767 30.2101L162.719 43.457C160.544 71.211 160.164 78.1673 159.755 91.3552C159.522 100.274 159.405 107.83 159.561 108.219C159.89 109.059 161.861 109.077 165.989 108.274L166.844 108.102C172.506 106.932 216.029 100.792 225.825 99.7721L229.43 99.4171L229.703 109.504C230.365 134.975 231.066 147.048 232.663 159.978C233.948 170.377 234.922 176.102 236.441 182.373L237.842 188.254L226.977 199.821C215.293 212.283 205.829 222.526 193.795 235.846L190.823 239.105C188.05 242.13 186.005 244.307 185.888 244.336C185.718 244.387 185.578 230.208 185.545 210.939L185.538 160.329L187.212 160.135C187.884 160.047 189.63 159.872 191.545 159.707L193.483 159.55L198.079 159.2L202.246 155.189C203.94 153.524 206.73 150.807 209.218 148.37L211.554 146.075L216.695 140.973V133.885C216.695 127.653 216.617 126.758 216.072 126.524C215.721 126.407 211.36 126.757 206.414 127.341L194.988 128.673C171.218 131.456 166.865 132.073 166.182 132.482C165.676 132.794 164.936 133.768 164.468 134.664C163.456 136.65 163.416 135.95 165.909 159.122L167.779 176.258L165.247 178.868C153.68 191.097 150.525 194.212 149.98 193.9C149.706 193.762 146.571 190.795 142.688 187.003L140.984 185.333C133.829 178.287 132.73 177.093 132.749 176.169L132.766 175.986C132.854 175.548 133.379 170.772 134.047 164.386L134.753 157.564C135.726 148.023 136.622 139.339 136.739 138.247C136.973 135.988 136.388 133.846 135.297 132.833C134.82 132.39 131.958 131.828 123.71 130.624L119.836 130.068C94.3649 126.446 84.8227 125.2 84.1217 125.473C83.1484 125.862 82.9925 127.11 83.2262 134.43L83.4215 141.285L84.7457 142.648C85.76 143.74 96.7016 153.903 101.453 158.265C102.387 159.083 103.206 159.278 108.658 159.862L114.85 160.524L114.967 202.158C115.006 225.058 114.89 243.947 114.734 244.102L114.707 244.109C114.379 244.082 111.86 241.481 108.672 237.968L107.217 236.352C90.0812 216.995 80.5779 206.909 71.5035 198.302C66.3237 193.395 62.0787 189.149 62.0787 188.838C62.0788 188.525 62.663 185.877 63.4029 182.956C66.9871 168.657 68.9266 150.337 70.1773 118.969L70.2965 115.892C70.5009 110.542 70.7354 105.192 70.8951 102.998L70.9586 102.261C71.2312 99.8462 71.27 99.7294 72.2047 99.8073C72.751 99.8464 79.3322 100.781 86.8092 101.833L87.1607 101.881C94.5669 102.918 102.146 103.978 104.14 104.208C106.133 104.438 111.447 105.159 115.996 105.776L116.213 105.805C120.807 106.428 125.041 107.107 125.317 107.03C128.968 107.468 131.16 107.673 133.058 108.053C135.979 108.637 140.906 109.271 141.295 108.258C141.568 107.518 139.504 64.6784 138.608 52.2152C137.665 39.4263 136.576 28.0987 136.084 26.4099L136.038 26.277C135.731 25.4932 136.11 24.5303 139.966 17.8317L141.84 14.5928C149.939 0.653357 149.708 1.00064 150.213 1.0008ZM86.6148 52.9926C73.9086 68.9118 72.0371 77.3831 70.1109 91.9879L67.2818 91.6965C64.8974 91.4453 63.5418 91.3221 60.4771 91.3982L59.9117 91.4021C53.6798 91.4845 35.7846 93.027 28.0631 107.318C24.9701 113.566 24.1444 120.693 25.7262 127.482C27.4205 135.595 30.5129 143.351 34.8658 150.407C28.4141 146.66 22.4234 142.172 17.0172 137.034C12.4627 132.819 8.55712 127.956 5.42733 122.601C2.46965 117.952 0.632878 112.685 0.0591639 107.212L0.00838267 106.681C-0.197253 98.25 3.38567 90.3176 10.1803 82.9793L10.8482 82.2713C22.1171 70.8084 39.5674 63.7444 52.0015 59.7109C62.3666 56.3143 75.7793 54.2534 86.6148 52.9926ZM213.384 52.7012C224.22 53.962 237.633 56.0228 247.998 59.4194C260.432 63.4529 277.882 70.5161 289.151 81.9789C296.378 89.5144 300.203 97.6864 299.991 106.39L299.94 106.92C299.366 112.392 297.53 117.66 294.572 122.308C291.442 127.663 287.537 132.528 282.982 136.742C277.576 141.88 271.585 146.369 265.133 150.115C269.35 143.28 272.384 135.787 274.11 127.95L274.273 127.19C275.855 120.401 275.029 113.274 271.936 107.025C264.215 92.7346 246.319 91.1921 240.087 91.1097L239.522 91.1058C235.436 91.0043 234.388 91.2574 229.888 91.6955L229.525 89.0258C227.686 76.0029 225.296 67.6254 213.384 52.7012ZM84.3385 54.2746C73.989 55.552 61.8323 57.5426 52.3121 60.6624L52.3092 60.6634C39.8965 64.6899 22.6492 71.6947 11.5611 82.9735C4.47579 90.3642 0.811477 98.2777 1.00643 106.628C1.48911 111.946 3.19799 117.078 5.99569 121.624L6.27108 122.063L6.28084 122.078L6.29061 122.095C9.178 127.035 12.7363 131.551 16.8629 135.513L17.6959 136.298L17.7056 136.308L18.7154 137.254C22.8398 141.06 27.2956 144.489 32.0269 147.505C28.653 141.302 26.1999 134.634 24.7515 127.71L24.606 127.051C23.1731 120.235 24.0714 113.128 27.1676 106.873L27.1754 106.857L27.1842 106.841C31.3311 99.1664 38.2824 95.0601 44.8306 92.8758C50.9662 90.8292 56.8251 90.4413 59.9 90.4007L60.4771 90.3968C64.3071 90.3027 65.5643 90.5157 69.2506 90.8917C70.1742 84.025 71.149 78.4059 73.3883 72.6213C75.5444 67.0515 78.8534 61.3757 84.3385 54.2746ZM215.661 53.9822C221.146 61.0832 224.455 66.7591 226.611 72.3289C228.85 78.1136 229.824 83.7333 230.748 90.6002C234.435 90.2243 235.692 90.0103 239.522 90.1044L240.099 90.1083C243.174 90.1489 249.033 90.5378 255.169 92.5844C261.512 94.7005 268.234 98.6194 272.419 105.84L272.815 106.549L272.824 106.565L272.832 106.58C276.028 113.037 276.882 120.402 275.248 127.418C273.799 134.342 271.346 141.01 267.971 147.214C273.092 143.95 277.889 140.202 282.294 136.016L282.303 136.006C286.785 131.859 290.629 127.072 293.709 121.803L293.718 121.786L293.728 121.77C296.689 117.117 298.494 111.826 298.992 106.336C299.187 97.9853 295.523 90.0718 288.438 82.6811L287.915 82.1559C276.813 71.1843 259.909 64.3356 247.69 60.3719L247.687 60.371C238.167 57.2512 226.01 55.2596 215.661 53.9822ZM171.517 32.3518C171.518 31.4566 172.647 31.6517 176.424 33.1703C192.47 39.5964 207.66 52.5267 215.215 66.2746C217.591 70.5586 219.538 75.2325 220.94 79.9449C222.186 84.1512 223.588 91.9789 223.199 92.3683C223.076 92.5246 214.666 93.5366 204.544 94.7045L196.676 95.6218C188.688 96.562 180.786 97.5192 177.047 98.0158C172.373 98.6731 168.452 99.1244 167.885 99.114L167.818 99.1061C167.562 98.814 168.949 72.5753 170.439 49.1758L170.739 44.5424C171.06 39.7521 171.337 35.4875 171.456 33.5067L171.517 32.3518ZM128.128 32.6207C127.709 32.7557 127.118 32.9595 126.287 33.2563L126.28 33.2583C103.738 41.1441 85.7298 59.6819 79.8277 80.914L79.8267 80.9169C79.2736 82.8814 78.6572 85.7206 78.2223 88.1173C78.005 89.3149 77.8365 90.3854 77.7437 91.1694C77.7238 91.3377 77.708 91.4888 77.6959 91.6222C77.9116 91.6516 78.1686 91.6882 78.4654 91.7268C79.4817 91.8589 80.9451 92.0408 82.7476 92.2598C84.5501 92.4787 86.6901 92.7342 89.0582 93.0127L103.94 94.7417C110.836 95.5509 116.777 96.2725 121.403 96.8608C124.486 97.253 126.989 97.5869 128.804 97.8466C129.711 97.9764 130.451 98.0885 131.007 98.181C131.21 98.2148 131.398 98.2484 131.566 98.2798C131.499 93.7762 129.844 60.2799 129.042 47.3324L128.35 36.328C128.251 34.7226 128.177 33.4457 128.128 32.6207ZM172.49 32.8642C172.404 34.4266 172.098 39.216 171.736 44.6099C170.938 56.8148 170.14 70.3728 169.576 80.9179C169.293 86.1911 169.069 90.7084 168.933 93.9251C168.865 95.5345 168.82 96.8135 168.799 97.697C168.797 97.8201 168.794 97.9349 168.793 98.0412C169.236 97.9977 169.811 97.9377 170.492 97.8583C172.153 97.6646 174.423 97.3737 176.909 97.0242L176.917 97.0222C181.912 96.3588 194.304 94.8783 204.429 93.71C209.492 93.1259 214.123 92.5811 217.503 92.1629C219.193 91.9538 220.565 91.7766 221.52 91.6427C221.802 91.6032 222.044 91.5671 222.246 91.5361C222.234 91.3739 222.216 91.1833 222.192 90.966C222.099 90.1427 221.926 89.0207 221.699 87.7662C221.245 85.2541 220.59 82.2844 219.981 80.2295C218.599 75.5851 216.68 70.9788 214.34 66.7606L214.338 66.7567C206.907 53.2345 191.909 40.4504 176.053 34.1003L176.052 34.0993C174.242 33.3716 173.136 32.9917 172.49 32.8642ZM217.695 141.39L217.399 141.685L212.258 146.786L212.255 146.788C209.416 149.589 205.195 153.694 202.947 155.903L202.939 155.91L198.513 160.171L193.559 160.548C190.994 160.743 188.211 161.014 187.342 161.127L187.328 161.129L186.538 161.22V202.391C186.538 214.131 186.577 224.634 186.64 232.19C186.672 235.969 186.71 239.009 186.752 241.097C186.758 241.425 186.765 241.728 186.772 242.007C187.025 241.738 187.305 241.441 187.606 241.117C188.322 240.347 189.164 239.435 190.087 238.429L193.054 235.172C205.093 221.848 214.561 211.601 226.248 199.135L226.249 199.134L236.744 187.961L235.468 182.605C234.129 177.075 233.211 171.967 232.14 163.8L231.67 160.102C230.068 147.122 229.366 135.009 228.704 109.532L228.46 100.518L226.763 100.686L226.754 100.687C219.235 101.364 175.691 107.485 167.706 108.956L167.045 109.083C164.68 109.572 162.87 109.842 161.583 109.863C160.944 109.874 160.36 109.825 159.877 109.669C159.383 109.509 158.866 109.19 158.629 108.585C158.585 108.471 158.568 108.366 158.561 108.327C158.552 108.27 158.545 108.212 158.54 108.161C158.529 108.056 158.522 107.93 158.516 107.792C158.504 107.513 158.496 107.137 158.493 106.682C158.485 105.769 158.493 104.501 158.512 102.973C158.551 99.9142 158.64 95.791 158.756 91.3298V91.3249L158.844 88.5789C159.289 75.2306 159.849 66.8252 162.77 30.1309L163.175 24.7954L156.59 13.3C154.724 10.0727 152.986 7.13099 151.683 4.9995C151.031 3.93331 150.493 3.07821 150.104 2.4931C150.001 2.65351 149.875 2.8509 149.726 3.09354C149.222 3.9142 148.48 5.16953 147.358 7.09223L142.705 15.0965C139.893 19.938 138.375 22.6008 137.6 24.1656C137.209 24.9547 137.043 25.3959 136.981 25.6599C136.933 25.8652 136.962 25.8953 136.968 25.9112H136.966C137.074 26.1768 137.157 26.5844 137.227 26.9918C137.308 27.4608 137.397 28.073 137.491 28.8049C137.679 30.2706 137.896 32.2528 138.128 34.6058C138.475 38.1369 138.859 42.5184 139.234 47.2757L139.605 52.1408V52.1428L139.787 54.8232C140.237 61.8243 140.869 73.7698 141.388 84.5841C141.685 90.7658 141.946 96.5833 142.116 100.903C142.2 103.062 142.262 104.85 142.295 106.124C142.311 106.759 142.32 107.273 142.32 107.642C142.32 107.826 142.318 107.984 142.313 108.107C142.311 108.167 142.307 108.231 142.301 108.291C142.299 108.313 142.287 108.457 142.233 108.605L142.231 108.611L142.228 108.618C142.041 109.103 141.639 109.354 141.352 109.481C141.051 109.614 140.71 109.685 140.384 109.728C139.726 109.815 138.907 109.808 138.062 109.754C136.571 109.659 134.847 109.407 133.443 109.146L132.862 109.035C131.03 108.669 128.929 108.471 125.295 108.035C125.248 108.037 125.215 108.038 125.203 108.037C125.125 108.036 125.039 108.031 124.955 108.024C124.783 108.01 124.562 107.985 124.304 107.953C123.786 107.889 123.079 107.791 122.246 107.672C121.409 107.552 120.441 107.411 119.395 107.261L116.08 106.796L115.862 106.767C111.306 106.149 106.006 105.431 104.026 105.202C103.021 105.087 100.619 104.763 97.5435 104.339L86.6715 102.824C82.9316 102.298 79.4169 101.802 76.7691 101.432C75.4452 101.247 74.3391 101.094 73.5308 100.985C73.1268 100.93 72.799 100.886 72.5562 100.856C72.4347 100.84 72.336 100.828 72.2613 100.819C72.2242 100.815 72.1945 100.812 72.1715 100.81C72.1669 100.809 72.1626 100.808 72.1588 100.808C72.1474 100.865 72.136 100.931 72.1236 101.008C72.0717 101.329 72.0206 101.763 71.9517 102.373C71.8011 103.733 71.53 109.793 71.2955 115.93C70.049 149.197 68.0998 168.331 64.3726 183.201L64.3717 183.203C64.0037 184.655 63.6754 186.039 63.439 187.095C63.3208 187.624 63.2267 188.066 63.1627 188.392C63.1481 188.466 63.1365 188.533 63.1256 188.592C63.2302 188.715 63.3728 188.879 63.5572 189.078C64.0232 189.583 64.7052 190.285 65.5562 191.139C66.8313 192.417 68.4713 194.02 70.3023 195.775L72.191 197.574L73.9058 199.213C82.5184 207.512 91.8941 217.535 107.962 235.684L109.414 237.295C110.825 238.851 112.101 240.224 113.111 241.269C113.365 241.533 113.603 241.772 113.819 241.989C113.827 241.606 113.834 241.171 113.841 240.688C113.874 238.542 113.902 235.454 113.923 231.654C113.967 224.053 113.987 213.608 113.967 202.16L113.852 161.424L108.552 160.858C105.844 160.567 104.214 160.367 103.144 160.128C102.002 159.873 101.406 159.553 100.795 159.019L100.786 159.011L100.777 159.003C96.072 154.684 85.1634 144.552 84.0289 143.345L82.7047 141.983L82.4322 141.703L82.1578 131.989C82.1087 129.767 82.1223 128.266 82.2271 127.249C82.2967 126.573 82.4147 126.001 82.65 125.546C82.9172 125.029 83.3036 124.722 83.7515 124.543L83.7603 124.539L83.9205 124.489C84.0802 124.45 84.2305 124.443 84.316 124.439C84.4698 124.432 84.6514 124.435 84.8531 124.443C85.2591 124.459 85.8113 124.501 86.5133 124.569C87.9207 124.706 89.9878 124.951 92.818 125.316C98.4821 126.047 107.241 127.265 119.976 129.076L123.852 129.634C127.392 130.15 129.952 130.55 131.759 130.874C132.962 131.089 133.855 131.275 134.491 131.444C134.808 131.528 135.083 131.614 135.309 131.705C135.463 131.766 135.646 131.849 135.815 131.968L135.977 132.099L136.111 132.229C136.765 132.897 137.214 133.82 137.48 134.813C137.767 135.884 137.861 137.108 137.733 138.35V138.354C137.616 139.442 136.72 148.123 135.747 157.666C135.26 162.438 134.793 166.9 134.432 170.242C134.252 171.912 134.098 173.304 133.982 174.317C133.876 175.239 133.795 175.904 133.753 176.143L133.753 176.144C133.748 176.179 133.731 176.204 133.805 176.353C133.911 176.565 134.155 176.918 134.705 177.545C135.794 178.786 137.856 180.848 141.684 184.618L143.386 186.286C145.048 187.909 146.573 189.38 147.793 190.541C148.606 191.316 149.281 191.95 149.77 192.398C149.921 192.537 150.054 192.654 150.166 192.753C150.218 192.714 150.28 192.672 150.347 192.618C150.855 192.215 151.63 191.505 152.779 190.373C155.067 188.119 158.735 184.296 164.521 178.179L164.53 178.17L166.733 175.898L164.915 159.23C163.671 147.664 163.053 142.008 162.876 139.007C162.787 137.514 162.801 136.586 162.932 135.882C163.071 135.135 163.342 134.67 163.578 134.208L163.582 134.2L163.791 133.822C164.011 133.444 164.264 133.069 164.521 132.739C164.844 132.323 165.246 131.883 165.658 131.63L165.668 131.624L165.855 131.527C166.052 131.438 166.278 131.373 166.504 131.317C166.833 131.235 167.275 131.148 167.865 131.048C169.047 130.848 170.893 130.586 173.756 130.218C179.489 129.482 189.358 128.313 206.296 126.347L208.125 126.139C209.912 125.942 211.559 125.782 212.883 125.672C213.765 125.599 214.511 125.546 215.063 125.52C215.338 125.506 215.576 125.5 215.762 125.5C215.855 125.5 215.947 125.503 216.031 125.509C216.072 125.512 216.166 125.519 216.275 125.543L216.387 125.573L216.427 125.587L216.465 125.604C216.881 125.782 217.162 126.103 217.33 126.531C217.47 126.888 217.539 127.339 217.585 127.871C217.677 128.955 217.695 130.786 217.695 133.885V141.39ZM132.563 98.8C132.526 99.3828 132.352 99.5152 131.909 99.379C130.623 98.9894 116.602 97.1979 96.6236 94.9001C86.4372 93.7318 77.9281 92.6997 76.8394 92.5111L76.7223 92.4847C76.3725 92.1314 77.7356 84.6557 78.8648 80.6451C84.769 59.4061 102.56 40.884 124.884 32.695L125.951 32.3136C126.632 32.0702 127.168 31.8828 127.587 31.7435L128.066 31.59C128.904 31.3342 129.066 31.3731 129.066 31.5733L129.348 36.2663C129.523 39.1094 129.767 43.0043 130.04 47.2689C130.857 60.4714 132.571 95.1311 132.571 98.5213L132.563 98.8Z" fill="white" fill-opacity="0.5"/>
<defs>
<linearGradient id="paint0_linear_1305_211" x1="150" y1="0.831543" x2="150" y2="244.169" gradientUnits="userSpaceOnUse">
<stop stop-color="#C3A869"/>
<stop offset="1" stop-color="#BF9535"/>
</linearGradient>
<linearGradient id="paint1_linear_1305_211" x1="150" y1="0.831543" x2="150" y2="244.169" gradientUnits="userSpaceOnUse">
<stop stop-color="#C3A869"/>
<stop offset="1" stop-color="#BF9535"/>
</linearGradient>
<linearGradient id="paint2_linear_1305_211" x1="150" y1="0.831543" x2="150" y2="244.169" gradientUnits="userSpaceOnUse">
<stop stop-color="#C3A869"/>
<stop offset="1" stop-color="#BF9535"/>
</linearGradient>
<linearGradient id="paint3_linear_1305_211" x1="150" y1="0.831543" x2="150" y2="244.169" gradientUnits="userSpaceOnUse">
<stop stop-color="#C3A869"/>
<stop offset="1" stop-color="#BF9535"/>
</linearGradient>
<linearGradient id="paint4_linear_1305_211" x1="150" y1="0.831543" x2="150" y2="244.169" gradientUnits="userSpaceOnUse">
<stop stop-color="#C3A869"/>
<stop offset="1" stop-color="#BF9535"/>
</linearGradient>
</defs>
</svg>
