<svg width="272" height="109" viewBox="0 0 272 109" fill="none" xmlns="http://www.w3.org/2000/svg">
<path d="M211.089 101.52H211.473V102H193.281V101.52H193.713C194.417 101.52 194.945 101.312 195.297 100.896C195.649 100.448 195.825 100.048 195.825 99.6959C195.825 99.3119 195.745 98.9119 195.585 98.4959L193.713 94.0319H183.441L181.521 98.4959C181.361 98.9119 181.281 99.2479 181.281 99.5039C181.281 99.7599 181.329 100.048 181.425 100.368C181.553 100.656 181.793 100.928 182.145 101.184C182.529 101.408 182.929 101.52 183.345 101.52H183.777V102H173.073V101.52H173.505C174.241 101.52 174.961 101.312 175.665 100.896C176.401 100.448 177.009 99.7919 177.489 98.9279L188.673 74.3999C190.369 70.8159 191.281 68.4319 191.409 67.2479H191.841L207.057 98.8799C208.081 100.64 209.425 101.52 211.089 101.52ZM184.497 91.6319H192.705L188.673 82.0319L184.497 91.6319Z" fill="url(#paint0_linear_1305_208)"/>
<path d="M154.939 102.672C149.211 102.672 144.651 101.12 141.259 98.016C137.899 94.88 136.219 90.592 136.219 85.152C136.219 79.68 137.915 75.408 141.307 72.336C144.699 69.264 149.403 67.728 155.419 67.728C158.011 67.728 160.683 67.952 163.435 68.4C166.187 68.816 168.283 69.328 169.723 69.936L169.243 79.104H168.811C167.147 73.12 163.483 70.128 157.819 70.128C150.459 70.128 146.779 75.28 146.779 85.584C146.779 90.256 147.531 93.872 149.035 96.432C150.571 98.992 152.891 100.272 155.995 100.272C157.691 100.272 159.163 99.824 160.411 98.928C161.691 98 162.331 96.736 162.331 95.136L162.379 88.56C162.379 87.856 162.155 87.328 161.707 86.976C161.291 86.592 160.699 86.4 159.931 86.4H159.163V85.92H175.291V86.4H174.571C173.771 86.4 173.163 86.592 172.747 86.976C172.331 87.328 172.139 87.856 172.171 88.56V96.48C170.379 98.752 167.131 100.496 162.427 101.712C159.995 102.352 157.499 102.672 154.939 102.672Z" fill="url(#paint1_linear_1305_208)"/>
<path d="M137.589 101.52H137.973V102H119.781V101.52H120.213C120.917 101.52 121.445 101.312 121.797 100.896C122.149 100.448 122.325 100.048 122.325 99.6959C122.325 99.3119 122.245 98.9119 122.085 98.4959L120.213 94.0319H109.941L108.021 98.4959C107.861 98.9119 107.781 99.2479 107.781 99.5039C107.781 99.7599 107.829 100.048 107.925 100.368C108.053 100.656 108.293 100.928 108.645 101.184C109.029 101.408 109.429 101.52 109.845 101.52H110.277V102H99.5732V101.52H100.005C100.741 101.52 101.461 101.312 102.165 100.896C102.901 100.448 103.509 99.7919 103.989 98.9279L115.173 74.3999C116.869 70.8159 117.781 68.4319 117.909 67.2479H118.341L133.557 98.8799C134.581 100.64 135.925 101.52 137.589 101.52ZM110.997 91.6319H119.205L115.173 82.0319L110.997 91.6319Z" fill="url(#paint2_linear_1305_208)"/>
<path d="M99.9158 91.12C99.9158 92.9546 99.5104 94.9173 98.6998 97.008C97.8891 99.056 96.5878 100.955 94.7958 102.704C93.0038 104.453 90.6998 105.883 87.8838 106.992C85.0678 108.101 81.9958 108.656 78.6678 108.656C75.3398 108.656 72.3531 108.123 69.7078 107.056C64.7584 105.093 61.5371 101.659 60.0438 96.752C59.6598 95.4293 59.4678 94.192 59.4678 93.04C59.4678 89.328 60.5984 85.8506 62.8598 82.608L63.4358 83.056C62.0278 85.5733 61.3238 88.0053 61.3238 90.352C61.3238 93.2533 62.0491 95.8133 63.4998 98.032C64.9504 100.251 66.8918 101.979 69.3238 103.216C71.7558 104.453 74.2304 105.072 76.7478 105.072C79.3078 105.072 81.4624 104.667 83.2118 103.856C84.9611 103.045 86.2411 101.957 87.0518 100.592C87.8624 99.2266 88.2678 97.7973 88.2678 96.304C88.2678 94.8106 87.7344 93.296 86.6678 91.76C85.6011 90.1813 84.0224 88.816 81.9318 87.664L71.4998 81.52C66.2091 78.4053 63.5638 74.3946 63.5638 69.488C63.5638 65.0933 65.0998 61.7013 68.1718 59.312C70.7318 57.3066 74.2091 56.304 78.6038 56.304C81.4198 56.304 85.0038 56.5173 89.3558 56.944H94.3478L93.0038 67.376H92.3638C92.3638 65.0293 91.4464 63.1306 89.6118 61.68C87.7771 60.2293 85.4304 59.504 82.5718 59.504C79.7131 59.504 77.5158 59.9946 75.9798 60.976C74.4438 61.9573 73.6118 63.2586 73.4838 64.88C73.3558 65.9893 73.6544 66.928 74.3798 67.696C75.0198 68.3786 75.6598 68.912 76.2998 69.296C76.9398 69.6373 77.5158 69.9573 78.0278 70.256C78.5398 70.5546 78.9024 70.7466 79.1158 70.832L91.0838 77.68C93.7718 79.1733 95.8624 81.0293 97.3558 83.248C99.0624 85.7653 99.9158 88.3893 99.9158 91.12Z" fill="url(#paint3_linear_1305_208)"/>
<path d="M262.939 17.68C263.451 18.8 263.707 19.968 263.707 21.184C263.707 22.368 263.579 23.424 263.323 24.352C263.067 25.248 262.667 26.144 262.123 27.04C260.939 28.96 258.907 30.144 256.027 30.592C257.275 30.944 258.395 31.568 259.387 32.464C260.443 33.36 261.435 34.608 262.363 36.208C264.763 40.304 266.603 42.944 267.883 44.128C268.843 45.024 270.059 45.488 271.531 45.52V46H265.531C261.371 46 258.395 45.536 256.603 44.608C254.043 43.296 252.219 41.04 251.131 37.84C250.843 36.912 250.587 35.936 250.363 34.912C250.171 33.888 249.995 33.152 249.835 32.704C249.707 32.224 249.547 31.792 249.355 31.408C249.163 30.992 248.955 30.672 248.731 30.448C248.347 30.064 247.899 29.776 247.387 29.584V29.104H248.155C250.011 29.104 251.403 28.256 252.331 26.56C252.811 25.664 253.099 24.704 253.195 23.68C253.323 22.624 253.387 21.968 253.387 21.712C253.387 21.456 253.387 21.296 253.387 21.232C253.163 17.008 251.339 14.896 247.915 14.896H245.803V42.496C245.803 43.328 246.107 44.048 246.715 44.656C247.323 45.232 248.043 45.52 248.875 45.52H249.451V46H232.219V45.52H232.843C233.675 45.52 234.379 45.232 234.955 44.656C235.563 44.08 235.883 43.376 235.915 42.544V15.904C235.883 14.72 235.371 13.84 234.379 13.264C233.899 13.008 233.387 12.88 232.843 12.88H232.219V12.4H250.987C257.259 12.4 261.243 14.16 262.939 17.68Z" fill="url(#paint4_linear_1305_208)"/>
<path d="M230.295 12.88H229.527C228.855 12.88 228.263 13.104 227.751 13.552C227.271 13.968 227.015 14.496 226.983 15.136V33.664C226.983 37.728 225.719 40.912 223.191 43.216C220.695 45.52 217.175 46.672 212.631 46.672C206.871 46.672 202.567 45.552 199.719 43.312C196.871 41.072 195.447 37.872 195.447 33.712V15.28C195.447 14.576 195.191 14 194.679 13.552C194.199 13.104 193.607 12.88 192.903 12.88H192.135V12.4H208.599V12.88H207.831C207.127 12.88 206.535 13.104 206.055 13.552C205.575 13.968 205.319 14.512 205.287 15.184V33.52C205.287 36.88 206.055 39.504 207.591 41.392C209.127 43.28 211.271 44.224 214.023 44.224C216.775 44.224 218.919 43.344 220.455 41.584C222.023 39.792 222.807 37.312 222.807 34.144V15.184C222.775 14.512 222.519 13.968 222.039 13.552C221.559 13.104 220.967 12.88 220.263 12.88H219.495V12.4H230.295V12.88Z" fill="url(#paint5_linear_1305_208)"/>
<path d="M153.337 45.52C154.169 45.52 154.873 45.232 155.449 44.656C156.057 44.048 156.377 43.328 156.409 42.496V15.856C156.377 15.024 156.057 14.32 155.449 13.744C154.873 13.168 154.169 12.88 153.337 12.88H152.713V12.4H169.945V12.88H169.321C168.489 12.88 167.769 13.168 167.161 13.744C166.585 14.32 166.281 15.024 166.249 15.856V42.496C166.249 43.328 166.553 44.048 167.161 44.656C167.769 45.232 168.489 45.52 169.321 45.52H169.945V46H152.713V45.52H153.337ZM191.977 46H186.793C180.905 46 176.793 44.4 174.457 41.2C173.497 39.92 172.137 37.872 170.377 35.056C168.649 32.208 167.785 30.768 167.785 30.736L179.257 15.088C179.481 14.768 179.593 14.48 179.593 14.224C179.593 13.968 179.545 13.744 179.449 13.552C179.225 13.072 178.777 12.832 178.105 12.832H177.625V12.4H189.193V12.832H189.001C186.857 12.832 185.097 13.616 183.721 15.184L175.609 24.976L186.841 41.872C188.409 44.24 190.121 45.456 191.977 45.52V46Z" fill="url(#paint6_linear_1305_208)"/>
<path d="M145.658 17.68C146.17 18.8 146.426 19.968 146.426 21.184C146.426 22.368 146.298 23.424 146.042 24.352C145.786 25.248 145.386 26.144 144.842 27.04C143.658 28.96 141.626 30.144 138.746 30.592C139.994 30.944 141.114 31.568 142.106 32.464C143.162 33.36 144.154 34.608 145.082 36.208C147.482 40.304 149.322 42.944 150.602 44.128C151.562 45.024 152.778 45.488 154.25 45.52V46H148.25C144.09 46 141.114 45.536 139.322 44.608C136.762 43.296 134.938 41.04 133.85 37.84C133.562 36.912 133.306 35.936 133.082 34.912C132.89 33.888 132.714 33.152 132.554 32.704C132.426 32.224 132.266 31.792 132.074 31.408C131.882 30.992 131.674 30.672 131.45 30.448C131.066 30.064 130.618 29.776 130.106 29.584V29.104H130.874C132.73 29.104 134.122 28.256 135.05 26.56C135.53 25.664 135.818 24.704 135.914 23.68C136.042 22.624 136.106 21.968 136.106 21.712C136.106 21.456 136.106 21.296 136.106 21.232C135.882 17.008 134.058 14.896 130.634 14.896H128.522V42.496C128.522 43.328 128.826 44.048 129.434 44.656C130.042 45.232 130.762 45.52 131.594 45.52H132.17V46H114.938V45.52H115.562C116.394 45.52 117.098 45.232 117.674 44.656C118.282 44.08 118.602 43.376 118.634 42.544V15.904C118.602 14.72 118.09 13.84 117.098 13.264C116.618 13.008 116.106 12.88 115.562 12.88H114.938V12.4H133.706C139.978 12.4 143.962 14.16 145.658 17.68Z" fill="url(#paint7_linear_1305_208)"/>
<path d="M115.537 12.88H114.865C113.905 12.88 112.977 13.152 112.081 13.696C111.217 14.24 110.529 14.912 110.017 15.712L100.609 30.544V42.496C100.609 43.328 100.897 44.048 101.473 44.656C102.081 45.232 102.817 45.52 103.681 45.52H104.257V46H87.073V45.52H87.697C88.529 45.52 89.233 45.232 89.809 44.656C90.417 44.08 90.737 43.376 90.769 42.544V30.544L81.601 15.616C80.801 14.368 79.697 13.536 78.289 13.12C77.809 12.96 77.329 12.88 76.849 12.88H76.177V12.4H94.705V12.88H94.129C93.425 12.88 92.881 13.2 92.497 13.84C92.273 14.192 92.161 14.544 92.161 14.896C92.161 15.216 92.257 15.536 92.449 15.856L99.025 27.712L105.841 15.856C106.033 15.536 106.129 15.216 106.129 14.896C106.129 14.576 106.017 14.24 105.793 13.888C105.377 13.216 104.833 12.88 104.161 12.88H103.585V12.4H115.537V12.88Z" fill="url(#paint8_linear_1305_208)"/>
<path d="M64.0788 14.7519V42.5439C64.1108 43.3759 64.4148 44.0799 64.9908 44.6559C65.5988 45.2319 66.3188 45.5199 67.1508 45.5199H67.7748V45.9999H50.5428V45.5199H51.1668C51.9988 45.5199 52.7028 45.2319 53.2788 44.6559C53.8868 44.0799 54.2068 43.3919 54.2388 42.5919V14.7519H49.4868C47.5668 14.7839 46.0628 15.3599 44.9748 16.4799C43.8868 17.5679 43.3428 19.0719 43.3428 20.9919V21.3279L42.8628 21.3759V11.4879C43.3108 11.6799 44.1108 11.8719 45.2628 12.0639C46.4468 12.2559 47.5348 12.3519 48.5268 12.3519H69.7908C70.7828 12.3519 71.8548 12.2559 73.0068 12.0639C74.1588 11.8719 74.9748 11.6799 75.4548 11.4879V21.3759L74.9748 21.3279V20.9919C74.9748 18.3999 74.0148 16.5759 72.0948 15.5199C71.1668 15.0399 70.0628 14.7839 68.7828 14.7519H64.0788Z" fill="url(#paint9_linear_1305_208)"/>
<path d="M40.8533 35.12C40.8533 36.9546 40.4479 38.9173 39.6373 41.008C38.8266 43.056 37.5253 44.9546 35.7333 46.704C33.9413 48.4533 31.6373 49.8826 28.8213 50.992C26.0053 52.1013 22.9333 52.656 19.6053 52.656C16.2773 52.656 13.2906 52.1226 10.6453 51.056C5.69594 49.0933 2.47461 45.6586 0.981274 40.752C0.597274 39.4293 0.405273 38.192 0.405273 37.04C0.405273 33.328 1.53594 29.8506 3.79728 26.608L4.37328 27.056C2.96528 29.5733 2.26128 32.0053 2.26128 34.352C2.26128 37.2533 2.98661 39.8133 4.43727 42.032C5.88794 44.2506 7.82928 45.9786 10.2613 47.216C12.6933 48.4533 15.1679 49.072 17.6853 49.072C20.2453 49.072 22.3999 48.6666 24.1493 47.856C25.8986 47.0453 27.1786 45.9573 27.9893 44.592C28.7999 43.2266 29.2053 41.7973 29.2053 40.304C29.2053 38.8106 28.6719 37.296 27.6053 35.76C26.5386 34.1813 24.9599 32.816 22.8693 31.664L12.4373 25.52C7.14661 22.4053 4.50127 18.3946 4.50127 13.488C4.50127 9.09329 6.03728 5.70129 9.10928 3.31195C11.6693 1.30662 15.1466 0.303955 19.5413 0.303955C22.3573 0.303955 25.9413 0.517288 30.2933 0.943954H35.2853L33.9413 11.376H33.3013C33.3013 9.02929 32.3839 7.13062 30.5493 5.67995C28.7146 4.22929 26.3679 3.50396 23.5093 3.50396C20.6506 3.50396 18.4533 3.99462 16.9173 4.97596C15.3813 5.95729 14.5493 7.25862 14.4213 8.87996C14.2933 9.98929 14.5919 10.928 15.3173 11.696C15.9573 12.3786 16.5973 12.912 17.2373 13.296C17.8773 13.6373 18.4533 13.9573 18.9653 14.256C19.4773 14.5546 19.8399 14.7466 20.0533 14.832L32.0213 21.68C34.7093 23.1733 36.7999 25.0293 38.2933 27.248C39.9999 29.7653 40.8533 32.3893 40.8533 35.12Z" fill="url(#paint10_linear_1305_208)"/>
<path d="M180.781 99.5039C180.781 99.1572 180.887 98.7536 181.055 98.3164L181.059 98.3076L181.062 98.2988L183.112 93.5322H194.046L196.047 98.3027L196.049 98.3096L196.052 98.3164C196.23 98.7806 196.325 99.2419 196.325 99.6963C196.325 100.211 196.072 100.72 195.69 101.205L195.679 101.219C195.59 101.323 195.494 101.417 195.392 101.5H208.94C208.034 101.022 207.261 100.224 206.625 99.1318L206.615 99.1143L206.606 99.0967L191.734 68.1787C191.594 68.7181 191.38 69.3619 191.097 70.1025C190.634 71.3111 189.976 72.8163 189.125 74.6143L177.944 99.1357L177.927 99.1709C177.411 100.099 176.745 100.824 175.925 101.323L175.92 101.326C175.815 101.388 175.709 101.446 175.603 101.5H181.735C181.394 101.232 181.126 100.925 180.969 100.571L180.955 100.542L180.946 100.512C180.84 100.158 180.781 99.8208 180.781 99.5039ZM193.166 91.4385L193.458 92.1318H183.734L188.682 80.7598L193.166 91.4385ZM184.497 91.6318H192.705L188.673 82.0322L184.497 91.6318ZM181.29 99.7021C181.308 99.9061 181.354 100.128 181.426 100.368C181.554 100.656 181.794 100.928 182.146 101.184C182.53 101.408 182.93 101.52 183.346 101.52H183.777V102H173.073V101.52H173.505C174.149 101.52 174.781 101.36 175.4 101.042L175.665 100.896C176.309 100.504 176.856 99.9528 177.304 99.2422L177.489 98.9277L188.673 74.4004C190.369 70.8165 191.281 68.4321 191.409 67.248H191.842L207.058 98.8799C208.082 100.64 209.425 101.519 211.089 101.52H211.474V102H193.281V101.52H193.713C194.417 101.52 194.945 101.312 195.297 100.896C195.605 100.504 195.779 100.149 195.817 99.8301L195.825 99.6963C195.825 99.3123 195.745 98.9121 195.585 98.4961L193.713 94.0322H183.441L181.521 98.4961C181.362 98.912 181.281 99.2479 181.281 99.5039L181.29 99.7021Z" fill="white" fill-opacity="0.5"/>
<path d="M136.219 85.1523C136.219 79.8514 137.811 75.6766 140.994 72.6279L141.307 72.3359C144.699 69.264 149.403 67.7276 155.419 67.7275L156.395 67.7383C158.68 67.7873 161.027 68.0084 163.436 68.4004C166.187 68.8163 168.283 69.3277 169.723 69.9355L169.243 79.1035H168.812L168.649 78.5518C166.972 73.1169 163.537 70.3119 158.344 70.1367L157.819 70.1279C150.459 70.1279 146.779 75.28 146.779 85.584L146.788 86.4473C146.876 90.7036 147.625 94.0316 149.035 96.4316C150.523 98.9116 152.747 100.191 155.706 100.269L155.995 100.272C157.585 100.272 158.979 99.8784 160.175 99.0908L160.411 98.9277C161.611 98.0577 162.248 96.8924 162.323 95.4316L162.331 95.1357L162.379 88.5596C162.379 87.9437 162.207 87.4626 161.864 87.1162L161.707 86.9756C161.291 86.5917 160.699 86.4004 159.931 86.4004H159.163V85.9199H175.291V86.4004H174.571C173.771 86.4004 173.163 86.5917 172.747 86.9756L172.602 87.1162C172.287 87.4626 172.143 87.9438 172.171 88.5596V96.4805C170.379 98.7523 167.131 100.496 162.427 101.712C159.995 102.352 157.499 102.672 154.939 102.672V102.172C157.457 102.172 159.91 101.857 162.3 101.229L162.302 101.228L163.158 100.996C167.258 99.8336 170.065 98.252 171.671 96.3018V88.5596C171.639 87.7602 171.862 87.0705 172.424 86.5947C172.493 86.5319 172.566 86.4736 172.642 86.4199H161.813C161.894 86.4773 161.971 86.5396 162.045 86.6074C162.621 87.0757 162.879 87.7559 162.879 88.5596V88.5635L162.831 95.1396C162.83 96.8959 162.115 98.3103 160.704 99.333L160.703 99.334C159.361 100.297 157.784 100.772 155.995 100.772C152.724 100.772 150.237 99.4071 148.606 96.6895L148.604 96.6855C147.036 94.0167 146.279 90.2986 146.279 85.584C146.279 80.3876 147.204 76.4003 149.132 73.7012C151.082 70.9711 154.008 69.6279 157.819 69.6279C160.743 69.628 163.193 70.4021 165.131 71.9844C166.745 73.3024 167.969 75.1556 168.825 77.5117L169.204 70.2695C167.833 69.7406 165.892 69.2772 163.36 68.8945L163.354 68.8936C160.627 68.4496 157.982 68.2275 155.419 68.2275C149.672 68.2276 145.204 69.6479 141.953 72.4326L141.643 72.707C138.376 75.6658 136.719 79.7916 136.719 85.1523C136.719 90.4812 138.361 94.6264 141.601 97.6504C144.879 100.649 149.306 102.172 154.939 102.172V102.672L154.405 102.667C149.104 102.576 144.828 101.122 141.58 98.3027L141.259 98.0156C138.004 94.9776 136.325 90.8585 136.224 85.6582L136.219 85.1523Z" fill="white" fill-opacity="0.5"/>
<path d="M107.281 99.5039C107.281 99.1572 107.387 98.7536 107.555 98.3164L107.559 98.3076L107.562 98.2988L109.612 93.5322H120.546L122.547 98.3027L122.549 98.3096L122.552 98.3164C122.73 98.7806 122.825 99.2419 122.825 99.6963C122.825 100.211 122.572 100.72 122.19 101.205L122.179 101.219C122.09 101.323 121.994 101.417 121.892 101.5H135.44C134.534 101.022 133.761 100.224 133.125 99.1318L133.115 99.1143L133.106 99.0967L118.234 68.1787C118.094 68.7181 117.88 69.3619 117.597 70.1025C117.134 71.3111 116.476 72.8163 115.625 74.6143L104.444 99.1357L104.427 99.1709C103.911 100.099 103.245 100.824 102.425 101.323L102.42 101.326C102.315 101.388 102.209 101.446 102.103 101.5H108.235C107.894 101.232 107.626 100.925 107.469 100.571L107.455 100.542L107.446 100.512C107.34 100.158 107.281 99.8208 107.281 99.5039ZM119.666 91.4385L119.958 92.1318H110.234L115.182 80.7598L119.666 91.4385ZM110.997 91.6318H119.205L115.173 82.0322L110.997 91.6318ZM107.79 99.7021C107.808 99.9061 107.854 100.128 107.926 100.368C108.054 100.656 108.294 100.928 108.646 101.184C109.03 101.408 109.43 101.52 109.846 101.52H110.277V102H99.5732V101.52H100.005C100.649 101.52 101.281 101.36 101.9 101.042L102.165 100.896C102.809 100.504 103.356 99.9528 103.804 99.2422L103.989 98.9277L115.173 74.4004C116.869 70.8165 117.781 68.4321 117.909 67.248H118.342L133.558 98.8799C134.582 100.64 135.925 101.519 137.589 101.52H137.974V102H119.781V101.52H120.213C120.917 101.52 121.445 101.312 121.797 100.896C122.105 100.504 122.279 100.149 122.317 99.8301L122.325 99.6963C122.325 99.3123 122.245 98.9121 122.085 98.4961L120.213 94.0322H109.941L108.021 98.4961C107.862 98.912 107.781 99.2479 107.781 99.5039L107.79 99.7021Z" fill="white" fill-opacity="0.5"/>
<path d="M60.8242 90.3516C60.8243 88.712 61.154 87.0433 61.8037 85.3467C60.5777 87.7892 59.9678 90.3521 59.9678 93.04C59.9678 94.135 60.1503 95.3229 60.5225 96.6064L60.6631 97.0479C62.1171 101.421 65.0322 104.536 69.4453 106.408L69.8926 106.591L69.8945 106.592L70.3818 106.781C72.8381 107.695 75.5981 108.156 78.668 108.156V108.656L78.0479 108.649C74.9679 108.587 72.188 108.056 69.708 107.056C64.9134 105.154 61.7398 101.872 60.1885 97.208L60.0439 96.752C59.7079 95.5945 59.5185 94.5024 59.4766 93.4756L59.4678 93.04C59.4678 89.3282 60.5983 85.8509 62.8594 82.6084L63.4355 83.0557L63.1797 83.5273C61.9424 85.877 61.3243 88.1518 61.3242 90.3516L61.332 90.8916C61.417 93.5718 62.1399 95.9521 63.5 98.0322C64.9506 100.251 66.8923 101.979 69.3242 103.216C71.6042 104.376 73.9214 104.992 76.2764 105.064L76.748 105.072C79.1479 105.072 81.1915 104.715 82.8789 104.003L83.2119 103.856C84.852 103.096 86.0795 102.092 86.8945 100.845L87.0518 100.592C87.8118 99.3118 88.2152 97.9755 88.2627 96.583L88.2676 96.3037C88.2675 94.9038 87.7988 93.4853 86.8613 92.0479L86.668 91.7598C85.6679 90.2798 84.2174 88.9878 82.3174 87.8828L81.9316 87.6641L71.5 81.5195C66.3747 78.5022 63.7314 74.6444 63.5713 69.9453L63.5635 69.4883C63.5635 65.2309 65.0056 61.9144 67.8887 59.5391L68.1719 59.3115C70.7318 57.3064 74.2091 56.3038 78.6035 56.3037L79.6963 56.3145C81.9522 56.3545 84.64 56.514 87.7598 56.7939L89.3555 56.9443H94.3477L93.0039 67.376H92.3643C92.3643 65.176 91.5578 63.3695 89.9453 61.957L89.6113 61.6797C87.8913 60.3199 85.7214 59.5977 83.1016 59.5127L82.5723 59.5039C79.7136 59.5039 77.5155 59.9943 75.9795 60.9756L75.7002 61.1641C74.3428 62.1215 73.6034 63.3599 73.4834 64.8799L73.4648 65.0859C73.3948 66.106 73.6999 66.9763 74.3799 67.6963C75.0198 68.3788 75.6599 68.9119 76.2998 69.2959C76.9396 69.6371 77.5154 69.9573 78.0273 70.2559C78.5393 70.5545 78.9029 70.7467 79.1162 70.832L91.084 77.6797C93.7719 79.173 95.8621 81.0294 97.3555 83.248C99.0621 85.7654 99.916 88.3895 99.916 91.1201L99.9111 91.4658C99.8636 93.2006 99.4601 95.048 98.7002 97.0078L98.542 97.3906C97.7245 99.293 96.4758 101.064 94.7959 102.704L94.4541 103.028C92.7141 104.631 90.5239 105.952 87.8838 106.992L87.3525 107.193C84.6826 108.168 81.7878 108.656 78.668 108.656V108.156C81.9394 108.156 84.9482 107.61 87.7002 106.526C90.4667 105.437 92.7108 104.041 94.4463 102.347L94.7686 102.024C96.3495 100.409 97.5007 98.6767 98.2334 96.8271L98.3779 96.4453C99.0741 94.5447 99.416 92.7708 99.416 91.1201C99.416 88.5007 98.5995 85.9726 96.9424 83.5283L96.9414 83.5273C95.4983 81.3833 93.4702 79.578 90.8408 78.1172L90.8359 78.1143L78.8857 71.2764C78.6332 71.1696 78.2563 70.968 77.7754 70.6875C77.2701 70.3927 76.6998 70.0762 76.0645 69.7373L76.0537 69.7314L76.043 69.7246C75.3547 69.3117 74.6787 68.7464 74.0146 68.0381C73.1829 67.1563 72.8436 66.0677 72.9873 64.8223C73.1342 63.0329 74.0668 61.6051 75.7109 60.5547L76.0273 60.3633C77.651 59.4401 79.8494 59.0039 82.5723 59.0039C85.5175 59.004 87.9807 59.7532 89.9219 61.2881L90.2773 61.583C91.5813 62.7262 92.3918 64.1205 92.709 65.749L93.7793 57.4443H89.3311L89.3066 57.4414C84.9632 57.0156 81.3968 56.8037 78.6035 56.8037C74.2817 56.8038 70.926 57.7904 68.4805 59.7061L68.4785 59.707C65.5454 61.9885 64.0635 65.2254 64.0635 69.4883C64.0636 74.1715 66.5715 78.0379 71.7539 81.0889L82.1855 87.2334C84.3202 88.4115 85.9595 89.8213 87.0781 91.4746L87.2803 91.7744C88.2586 93.2746 88.7675 94.7865 88.7676 96.3037C88.7676 97.7934 88.3876 99.2201 87.6367 100.577L87.4814 100.848C86.6636 102.225 85.4115 103.321 83.7578 104.147L83.4219 104.31C81.5889 105.159 79.3578 105.572 76.748 105.572C74.308 105.572 71.9122 105.009 69.5654 103.893L69.0967 103.662C66.7459 102.466 64.8339 100.821 63.3682 98.7295L63.0811 98.3057C61.5722 95.998 60.8242 93.3405 60.8242 90.3516Z" fill="white" fill-opacity="0.5"/>
<path d="M235.915 15.9043C235.883 14.7203 235.371 13.8397 234.379 13.2637C233.899 13.0078 233.387 12.8799 232.843 12.8799H232.219V12.4004H250.987L251.568 12.4053C257.506 12.5118 261.296 14.2698 262.939 17.6797C263.451 18.7996 263.707 19.9677 263.707 21.1836L263.701 21.6221C263.673 22.6299 263.547 23.5397 263.323 24.3516L263.221 24.6885C262.965 25.4724 262.599 26.2561 262.123 27.04L261.892 27.3916C260.682 29.1053 258.727 30.1718 256.027 30.5918C257.275 30.9438 258.395 31.568 259.387 32.4639C260.443 33.3599 261.435 34.608 262.363 36.208C264.763 40.3038 266.603 42.9439 267.883 44.1279C268.843 45.0239 270.059 45.4875 271.531 45.5195V46H265.531V45.5H269.06C268.505 45.2536 267.999 44.9195 267.544 44.4951L267.286 44.2451C265.966 42.9103 264.178 40.2949 261.932 36.4609L261.931 36.459C261.022 34.8929 260.064 33.6947 259.063 32.8457L259.058 32.8398L259.052 32.835C258.115 31.989 257.063 31.4037 255.892 31.0732L255.95 30.0977C258.731 29.6651 260.611 28.5385 261.697 26.7773C262.219 25.9173 262.599 25.0645 262.841 24.2188L262.926 23.8838C263.111 23.0879 263.207 22.1888 263.207 21.1836C263.207 20.0438 262.968 18.9501 262.488 17.8975L262.335 17.5957C260.684 14.5334 257 12.9004 250.987 12.9004H234.74C235.816 13.5687 236.38 14.5845 236.415 15.8906V42.5635C236.378 43.5223 236.004 44.3452 235.308 45.0088L235.309 45.0098C235.118 45.2001 234.915 45.3633 234.699 45.5H246.996C246.777 45.3652 246.568 45.2051 246.371 45.0186L246.361 45.0098C245.663 44.3115 245.303 43.4655 245.303 42.4961V14.3965H247.915V14.8965H245.803V42.4961L245.817 42.8027C245.884 43.5062 246.183 44.1242 246.715 44.6562C247.323 45.2322 248.043 45.5195 248.875 45.5195H249.451V46H232.219V45.5195H232.843C233.571 45.5195 234.201 45.2995 234.733 44.8584L234.955 44.6562C235.563 44.0802 235.883 43.3759 235.915 42.5439V15.9043ZM253.387 21.7119V21.2324C253.17 17.1405 251.452 15.0302 248.231 14.9023L247.915 14.8965V14.3965C249.736 14.3965 251.201 14.9628 252.229 16.1533C253.243 17.3267 253.772 19.0369 253.887 21.2051V21.7119C253.887 22.0038 253.818 22.6897 253.692 23.7256L253.693 23.7266C253.591 24.8161 253.283 25.8405 252.771 26.7959L252.77 26.7998C252.271 27.7101 251.635 28.4171 250.852 28.8945C250.152 29.3205 249.357 29.5487 248.48 29.5938C248.695 29.7409 248.898 29.9073 249.085 30.0947L249.188 30.2041C249.42 30.4665 249.623 30.7989 249.802 31.1846C250.011 31.6031 250.183 32.0676 250.318 32.5752C250.488 33.0621 250.665 33.8122 250.852 34.8047L251.023 35.5547C251.2 36.2898 251.394 36.9978 251.604 37.6787L251.811 38.249C252.809 40.8571 254.337 42.7342 256.385 43.9199L256.831 44.1631L256.833 44.1641L257.162 44.3223C258.876 45.0897 261.643 45.5 265.531 45.5V46L264.765 45.9941C261.004 45.9398 258.284 45.4782 256.604 44.6084C254.203 43.3784 252.45 41.3182 251.344 38.4287L251.131 37.8398C250.915 37.1439 250.717 36.4209 250.537 35.6709L250.363 34.9121C250.219 34.144 250.084 33.5378 249.958 33.0938L249.835 32.7041C249.739 32.3441 249.625 32.011 249.493 31.7051L249.355 31.4082C249.211 31.0962 249.058 30.8378 248.896 30.6338L248.731 30.4482C248.347 30.0642 247.899 29.776 247.387 29.584V29.1035H248.155L248.498 29.0938C250.183 28.9943 251.461 28.1494 252.331 26.5596C252.751 25.7755 253.024 24.9426 253.15 24.0605L253.195 23.6797C253.291 22.8875 253.351 22.3204 253.375 21.9785L253.387 21.7119Z" fill="white" fill-opacity="0.5"/>
<path d="M226.483 33.6641V15.123L226.484 15.1113C226.523 14.3365 226.84 13.68 227.424 13.1738C227.54 13.072 227.663 12.9828 227.787 12.9004H222.019C222.139 12.9825 222.256 13.0719 222.366 13.1738C222.956 13.6851 223.269 14.3607 223.307 15.1602L223.308 15.1719V34.1436C223.308 37.189 222.6 39.6746 221.135 41.5469L220.832 41.9131C219.184 43.8014 216.891 44.7236 214.023 44.7236C211.323 44.7236 209.137 43.8488 207.52 42.0742L207.203 41.708C205.571 39.7022 204.787 36.9511 204.787 33.5195V15.1719L204.788 15.1602C204.821 14.4605 205.064 13.8558 205.52 13.373L205.728 13.1738C205.838 13.0719 205.955 12.9825 206.075 12.9004H194.659C194.78 12.9829 194.897 13.0733 195.008 13.1758C195.632 13.7224 195.947 14.4379 195.947 15.2803V33.7119C195.947 37.7442 197.32 40.7886 200.028 42.9189L200.288 43.1162C203.012 45.1273 207.1 46.1718 212.631 46.1719V46.6719L211.568 46.6592C206.513 46.5323 202.654 45.4853 199.99 43.5186L199.72 43.3115C196.961 41.1416 195.537 38.0713 195.451 34.0996L195.447 33.7119V15.2803C195.447 14.6642 195.251 14.1456 194.859 13.7256L194.68 13.5518C194.2 13.1038 193.607 12.8799 192.903 12.8799H192.136V12.4004H208.6V12.8799H207.831C207.127 12.8799 206.536 13.104 206.056 13.5518L205.886 13.7139C205.515 14.1058 205.315 14.5958 205.287 15.1836V33.5195L205.296 34.1416C205.386 37.2052 206.152 39.6216 207.592 41.3916C209.032 43.1617 211.006 44.1023 213.515 44.2129L214.023 44.2236C216.603 44.2236 218.649 43.4503 220.16 41.9033L220.455 41.584C221.925 39.9039 222.706 37.6191 222.798 34.7295L222.808 34.1436V15.1836C222.78 14.5958 222.58 14.1058 222.209 13.7139L222.039 13.5518C221.559 13.104 220.967 12.88 220.264 12.8799H219.495V12.4004H230.295V12.8799H229.527C228.855 12.8799 228.263 13.1038 227.751 13.5518L227.582 13.7129C227.211 14.1014 227.011 14.5757 226.983 15.1357V33.6641L226.979 34.042C226.903 37.9258 225.64 40.9837 223.191 43.2158C220.695 45.5198 217.175 46.6719 212.631 46.6719V46.1719C217.092 46.1719 220.476 45.042 222.853 42.8486L222.854 42.8467L223.076 42.6387C225.334 40.4643 226.483 37.4928 226.483 33.6641Z" fill="white" fill-opacity="0.5"/>
<path d="M165.749 15.8467L165.75 15.8369C165.787 14.8822 166.141 14.0578 166.808 13.3906L166.817 13.3809L166.95 13.2607C167.107 13.1249 167.271 13.0051 167.44 12.9004H155.193C155.405 13.0348 155.605 13.1946 155.793 13.3809L155.921 13.5078C156.541 14.1504 156.874 14.9337 156.909 15.8369V42.5156C156.874 43.4176 156.543 44.2107 155.93 44.8779L155.803 45.0098C155.612 45.2001 155.409 45.3633 155.193 45.5H167.442C167.223 45.3652 167.014 45.2051 166.817 45.0186L166.808 45.0098C166.109 44.3115 165.749 43.4655 165.749 42.4961V15.8467ZM179.594 14.2236C179.594 14.0319 179.567 13.858 179.513 13.7021L179.449 13.5518C179.225 13.072 178.777 12.832 178.105 12.832H177.625V12.4004H189.193V12.832H189.001C186.857 12.8321 185.098 13.6159 183.722 15.1836L175.609 24.9756L186.842 41.8721C188.41 44.2399 190.122 45.4555 191.978 45.5195V46H186.793V45.5H189.912C188.766 44.9454 187.705 43.9607 186.729 42.5908L186.425 42.1484L174.987 24.9434L183.336 14.8652L183.341 14.8594L183.346 14.8545C184.122 13.9701 185.017 13.3198 186.022 12.9004H179.608C179.724 13.0251 179.819 13.1684 179.896 13.3281C179.897 13.3302 179.898 13.3328 179.899 13.335C179.9 13.3369 179.901 13.3389 179.902 13.3408C180.035 13.6112 180.094 13.9096 180.094 14.2236C180.094 14.6232 179.921 15.0124 179.667 15.375L179.661 15.3838L168.379 30.7705C168.486 30.9524 168.647 31.2233 168.862 31.583C169.293 32.3009 169.939 33.3703 170.801 34.791C172.34 37.2531 173.567 39.1175 174.483 40.3906L174.857 40.9004L174.861 40.9053L175.073 41.1836C177.311 44.0191 181.165 45.4999 186.793 45.5V46L186.247 45.9951C180.65 45.8983 176.72 44.3003 174.457 41.2002C173.737 40.2402 172.792 38.8483 171.622 37.0244L170.377 35.0557C169.081 32.9202 168.271 31.5765 167.947 31.0244L167.785 30.7363L179.258 15.0879C179.454 14.8079 179.563 14.5523 179.588 14.3213L179.594 14.2236ZM166.249 42.4961L166.264 42.8027C166.33 43.5062 166.629 44.1243 167.161 44.6562C167.769 45.2322 168.489 45.5195 169.321 45.5195H169.945V46H152.214V45.1396C152.689 45.3231 153.203 45.4391 153.756 45.4902C154.309 45.4205 154.8 45.2126 155.228 44.8584L155.449 44.6562C156.057 44.0483 156.377 43.328 156.409 42.4961V15.8564C156.381 15.1284 156.133 14.4978 155.664 13.9658L155.449 13.7441C154.873 13.1683 154.17 12.88 153.338 12.8799H152.714V12.4004H169.945V12.8799H169.321C168.489 12.8799 167.769 13.1682 167.161 13.7441C166.585 14.3201 166.281 15.0246 166.249 15.8564V42.4961Z" fill="white" fill-opacity="0.5"/>
<path d="M136.105 21.7119V21.2324C135.888 17.1405 134.17 15.0302 130.95 14.9023L130.634 14.8965V14.3965C132.455 14.3965 133.92 14.9628 134.948 16.1533C135.962 17.3267 136.49 19.0369 136.605 21.2051V21.7119C136.605 22.0038 136.537 22.6897 136.411 23.7256L136.412 23.7266C136.31 24.8161 136.002 25.8405 135.49 26.7959L135.488 26.7998C134.99 27.7101 134.354 28.4171 133.57 28.8945C132.871 29.3205 132.076 29.5487 131.199 29.5938C131.414 29.7409 131.616 29.9073 131.804 30.0947L131.906 30.2041C132.139 30.4665 132.341 30.7989 132.521 31.1846C132.73 31.6031 132.902 32.0676 133.037 32.5752C133.206 33.0621 133.384 33.8122 133.57 34.8047L133.742 35.5547C133.919 36.2898 134.112 36.9978 134.323 37.6787L134.529 38.249C135.528 40.8571 137.056 42.7342 139.104 43.9199L139.55 44.1631L139.552 44.1641L139.881 44.3223C141.595 45.0897 144.362 45.5 148.25 45.5V46L147.483 45.9941C143.723 45.9398 141.002 45.4782 139.322 44.6084C136.922 43.3784 135.169 41.3182 134.062 38.4287L133.85 37.8398C133.634 37.1439 133.436 36.4209 133.256 35.6709L133.082 34.9121C132.938 34.144 132.803 33.5378 132.677 33.0938L132.554 32.7041C132.458 32.3441 132.344 32.011 132.212 31.7051L132.074 31.4082C131.93 31.0962 131.777 30.8378 131.615 30.6338L131.45 30.4482C131.066 30.0642 130.617 29.776 130.105 29.584V29.1035H130.874L131.217 29.0938C132.902 28.9943 134.18 28.1494 135.05 26.5596C135.47 25.7755 135.743 24.9426 135.869 24.0605L135.914 23.6797C136.01 22.8875 136.07 22.3204 136.094 21.9785L136.105 21.7119ZM114.438 12.4004H133.706L134.287 12.4053C140.225 12.5118 144.015 14.2698 145.658 17.6797C146.17 18.7996 146.426 19.9677 146.426 21.1836L146.42 21.6221C146.392 22.6299 146.266 23.5397 146.042 24.3516L145.939 24.6885C145.684 25.4724 145.318 26.2561 144.842 27.04L144.61 27.3916C143.401 29.1053 141.446 30.1718 138.746 30.5918C139.994 30.9438 141.114 31.568 142.105 32.4639C143.161 33.3599 144.154 34.608 145.082 36.208C147.482 40.3038 149.322 42.9439 150.602 44.1279C151.452 44.9216 152.504 45.3745 153.756 45.4902C153.927 45.4686 154.093 45.4356 154.252 45.3867C154.425 45.3336 154.591 45.2659 154.75 45.1807V46H148.25V45.5H151.778C151.224 45.2536 150.718 44.9195 150.263 44.4951L150.005 44.2451C148.684 42.9103 146.897 40.2949 144.65 36.4609L144.649 36.459C143.741 34.8929 142.783 33.6947 141.782 32.8457L141.776 32.8398L141.771 32.835C140.834 31.989 139.782 31.4037 138.61 31.0732L138.669 30.0977C141.45 29.6651 143.33 28.5385 144.416 26.7773C144.938 25.9173 145.317 25.0645 145.56 24.2188L145.645 23.8838C145.83 23.0879 145.926 22.1888 145.926 21.1836C145.926 20.0438 145.687 18.9501 145.207 17.8975L145.054 17.5957C143.403 14.5334 139.718 12.9004 133.706 12.9004H117.459C118.534 13.5687 119.098 14.5845 119.134 15.8906V42.5635C119.097 43.5223 118.722 44.3452 118.026 45.0088L118.027 45.0098C117.837 45.2001 117.633 45.3633 117.418 45.5H129.715C129.496 45.3652 129.287 45.2051 129.09 45.0186L129.08 45.0098C128.382 44.3115 128.022 43.4655 128.021 42.4961V14.3965H130.634V14.8965H128.521V42.4961L128.536 42.8027C128.603 43.5062 128.902 44.1242 129.434 44.6562C130.042 45.2322 130.762 45.5195 131.594 45.5195H132.17V46H114.938V45.5195H115.562C116.29 45.5195 116.92 45.2995 117.452 44.8584L117.674 44.6562C118.282 44.0802 118.602 43.3759 118.634 42.5439V15.9043C118.602 14.7203 118.09 13.8397 117.098 13.2637C116.618 13.0078 116.105 12.8799 115.562 12.8799H114.865L114.507 12.8926C114.484 12.8942 114.461 12.8974 114.438 12.8994V12.4004Z" fill="white" fill-opacity="0.5"/>
<path d="M115.562 12.8799H114.865C113.905 12.8799 112.977 13.1523 112.081 13.6963C111.217 14.2403 110.529 14.912 110.017 15.7119L100.609 30.5439V42.4961L100.623 42.8027C100.686 43.5062 100.969 44.1243 101.473 44.6562C102.081 45.2322 102.817 45.5194 103.681 45.5195H104.257V46H87.0732V45.5195H87.6973C88.4252 45.5195 89.055 45.2993 89.5869 44.8584L89.8086 44.6562C90.4166 44.0802 90.7375 43.3759 90.7695 42.5439V30.5439L81.6006 15.6162C80.8507 14.4464 79.834 13.6419 78.5498 13.2031L78.2891 13.1201C77.8091 12.9601 77.3286 12.8799 76.8486 12.8799H76.1768V12.4004H94.7051V12.8799H94.1289C93.425 12.8799 92.881 13.2 92.4971 13.8398L92.418 13.9717C92.2464 14.2797 92.1611 14.5885 92.1611 14.8965L92.166 15.0156C92.187 15.2957 92.2812 15.5763 92.4492 15.8564L99.0254 27.7119L105.841 15.8564C106.009 15.5763 106.104 15.2958 106.125 15.0156L106.129 14.8965C106.129 14.6166 106.043 14.3239 105.872 14.0195L105.793 13.8877C105.377 13.2159 104.833 12.8799 104.161 12.8799H103.585V12.4004H116.037V12.915C115.947 12.902 115.856 12.8912 115.765 12.8857L115.562 12.8799ZM106.629 14.8965C106.629 15.3181 106.501 15.7224 106.273 16.1045L106.274 16.1055L99.0176 28.7285L92.0117 16.0986C91.7868 15.7186 91.6612 15.3154 91.6611 14.8965C91.6611 14.491 91.7752 14.1002 91.9814 13.7295L92.0752 13.5713C92.237 13.3041 92.4273 13.0803 92.6426 12.9004H79.1533C80.2509 13.3644 81.1552 14.0982 81.8564 15.0986L82.0225 15.3457L82.0273 15.3545L91.1953 30.2822L91.2695 30.4023V42.5537L91.2686 42.5635C91.2316 43.5222 90.8579 44.3452 90.1621 45.0088L90.1631 45.0098C89.9726 45.2003 89.7683 45.3632 89.5527 45.5H101.757C101.536 45.3655 101.326 45.2052 101.129 45.0186L101.119 45.0098L101.11 45C100.447 44.2998 100.109 43.4569 100.109 42.4961V30.3984L100.187 30.2764L109.595 15.4443L109.596 15.4424L109.812 15.124C110.339 14.3973 111.008 13.7801 111.814 13.2725L111.821 13.2686L112.187 13.0615C112.296 13.0039 112.407 12.9508 112.518 12.9004H105.602C105.832 13.0924 106.036 13.3335 106.214 13.6191C106.474 14.0274 106.629 14.4565 106.629 14.8965Z" fill="white" fill-opacity="0.5"/>
<path d="M75.4551 21.376L74.9746 21.3281V20.9922C74.9746 18.4002 74.0147 16.5755 72.0947 15.5195C71.1669 15.0397 70.0629 14.784 68.7832 14.752H64.0791V42.5439C64.1111 43.3759 64.4152 44.0802 64.9912 44.6562C65.599 45.2319 66.3187 45.5194 67.1504 45.5195H67.7744V46H50.543V45.5195H51.167C51.8949 45.5195 52.5247 45.2993 53.0566 44.8584L53.2793 44.6562C53.8872 44.0803 54.2073 43.3917 54.2393 42.5918V14.752H49.4863C47.5666 14.784 46.0625 15.3606 44.9746 16.4805L44.7773 16.6885C43.8209 17.7573 43.3428 19.192 43.3428 20.9922V21.3281L42.8633 21.376V11.4883C43.3114 11.6802 44.1111 11.8725 45.2627 12.0645C46.2987 12.2325 47.2614 12.3267 48.1504 12.3477L48.5264 12.3516H69.791C70.6588 12.3516 71.5879 12.2788 72.5781 12.1318L73.0068 12.0645C74.1588 11.8725 74.9751 11.6803 75.4551 11.4883V21.376ZM54.7393 42.6016L54.7383 42.6123C54.7009 43.5445 54.3233 44.3495 53.6318 45.0088L53.6328 45.0098C53.4423 45.2003 53.238 45.3632 53.0225 45.5H65.2715C65.0526 45.3652 64.8434 45.2051 64.6465 45.0186L64.6367 45.0098C63.97 44.3427 63.6159 43.5178 63.5791 42.5635V14.252H68.7949L69.29 14.2754C70.2646 14.3448 71.1497 14.5475 71.9385 14.8916L72.3242 15.0762L72.3359 15.082L72.5303 15.1934C73.6771 15.8748 74.4798 16.8245 74.9551 18.0166V12.1719C74.6523 12.2531 74.2998 12.3331 73.8994 12.4111L73.0889 12.5576C71.9145 12.7533 70.8148 12.8515 69.791 12.8516H48.5264C47.5028 12.8515 46.3876 12.753 45.1826 12.5576H45.1807C44.4513 12.4361 43.8417 12.3101 43.3633 12.1797V18.042C43.6157 17.4157 43.9605 16.8527 44.4033 16.3574L44.6211 16.126C45.821 14.8939 47.4615 14.2856 49.4785 14.252H54.7393V42.6016Z" fill="white" fill-opacity="0.5"/>
<path d="M1.76172 34.3516C1.76178 32.712 2.09148 31.0433 2.74121 29.3467C1.51522 31.7892 0.905273 34.3521 0.905273 37.04C0.905278 38.135 1.08782 39.3229 1.45996 40.6064L1.60059 41.0479C3.0546 45.4213 5.96969 48.5357 10.3828 50.4082L10.8301 50.5908L10.832 50.5918L11.3193 50.7812C13.7756 51.6951 16.5356 52.1562 19.6055 52.1562V52.6562L18.9854 52.6494C15.9054 52.5869 13.1255 52.0557 10.6455 51.0557C5.8509 49.1544 2.67729 45.8721 1.12598 41.208L0.981445 40.752C0.6454 39.5945 0.456028 38.5024 0.414062 37.4756L0.405273 37.04C0.405273 33.3282 1.53576 29.8509 3.79688 26.6084L4.37305 27.0557L4.11719 27.5273C2.87992 29.877 2.2618 32.1518 2.26172 34.3516L2.26953 34.8916C2.35447 37.5718 3.07743 39.9521 4.4375 42.0322C5.88815 44.2508 7.82981 45.9785 10.2617 47.2158C12.5417 48.3757 14.8589 48.992 17.2139 49.0645L17.6855 49.0723C20.0854 49.0722 22.129 48.7154 23.8164 48.0029L24.1494 47.8564C25.7895 47.0964 27.017 46.0923 27.832 44.8447L27.9893 44.5918C28.7493 43.3118 29.1527 41.9755 29.2002 40.583L29.2051 40.3037C29.205 38.9038 28.7363 37.4853 27.7988 36.0479L27.6055 35.7598C26.6054 34.2798 25.1549 32.9878 23.2549 31.8828L22.8691 31.6641L12.4375 25.5195C7.31218 22.5022 4.66893 18.6444 4.50879 13.9453L4.50098 13.4883C4.50098 9.23087 5.94307 5.91445 8.82617 3.53906L9.10938 3.31152C11.6693 1.30638 15.1466 0.303756 19.541 0.303711L20.6338 0.314453C22.8897 0.354467 25.5775 0.513968 28.6973 0.793945L30.293 0.944336H35.2852L33.9414 11.376H33.3018C33.3018 9.176 32.4953 7.36952 30.8828 5.95703L30.5488 5.67969C28.8288 4.31988 26.6589 3.59765 24.0391 3.5127L23.5098 3.50391C20.6511 3.50391 18.453 3.99425 16.917 4.97559L16.6377 5.16406C15.2803 6.12154 14.5409 7.35994 14.4209 8.87988L14.4023 9.08594C14.3323 10.106 14.6374 10.9763 15.3174 11.6963C15.9573 12.3788 16.5974 12.9119 17.2373 13.2959C17.8771 13.6371 18.4529 13.9573 18.9648 14.2559C19.4768 14.5545 19.8404 14.7467 20.0537 14.832L32.0215 21.6797C34.7094 23.173 36.7996 25.0294 38.293 27.248C39.9996 29.7654 40.8535 32.3895 40.8535 35.1201L40.8486 35.4658C40.8011 37.2006 40.3976 39.048 39.6377 41.0078L39.4795 41.3906C38.662 43.293 37.4133 45.0642 35.7334 46.7041L35.3916 47.0283C33.6516 48.6309 31.4614 49.9522 28.8213 50.9922L28.29 51.1934C25.6201 52.1683 22.7253 52.6562 19.6055 52.6562V52.1562C22.8769 52.1562 25.8857 51.6105 28.6377 50.5264C31.4042 49.4365 33.6483 48.0407 35.3838 46.3467L35.7061 46.0244C37.287 44.4094 38.4382 42.6767 39.1709 40.8271L39.3154 40.4453C40.0116 38.5447 40.3535 36.7708 40.3535 35.1201C40.3535 32.5007 39.537 29.9726 37.8799 27.5283L37.8789 27.5273C36.4358 25.3833 34.4077 23.578 31.7783 22.1172L31.7734 22.1143L19.8232 15.2764C19.6376 15.1979 19.3847 15.0694 19.0732 14.8945L18.7129 14.6875C18.2076 14.3927 17.6373 14.0762 17.002 13.7373L16.9912 13.7314L16.9805 13.7246C16.2922 13.3117 15.6162 12.7464 14.9521 12.0381C14.1204 11.1563 13.7811 10.0677 13.9248 8.82227C14.0717 7.03291 15.0043 5.60511 16.6484 4.55469L16.9648 4.36328C18.5885 3.44008 20.7869 3.00391 23.5098 3.00391C26.455 3.00398 28.9182 3.75324 30.8594 5.28809L31.2148 5.58301C32.5188 6.7262 33.3293 8.12054 33.6465 9.74902L34.7168 1.44434H30.2686L30.2441 1.44141C25.9007 1.01559 22.3343 0.803711 19.541 0.803711C15.2192 0.803756 11.8635 1.79042 9.41797 3.70605L9.41602 3.70703C6.48289 5.98852 5.00098 9.22539 5.00098 13.4883C5.00108 18.1715 7.50899 22.0379 12.6914 25.0889L23.123 31.2334C25.2577 32.4115 26.897 33.8213 28.0156 35.4746L28.2178 35.7744C29.1961 37.2746 29.705 38.7865 29.7051 40.3037C29.7051 41.7934 29.3251 43.2201 28.5742 44.5771L28.4189 44.8477C27.6011 46.2249 26.349 47.3206 24.6953 48.1475L24.3594 48.3096C22.5264 49.159 20.2953 49.5722 17.6855 49.5723C15.2455 49.5723 12.8497 49.0094 10.5029 47.8926L10.0342 47.6621C7.68336 46.4661 5.77139 44.8207 4.30566 42.7295L4.01855 42.3057C2.50974 39.998 1.76172 37.3405 1.76172 34.3516Z" fill="white" fill-opacity="0.5"/>
<defs>
<linearGradient id="paint0_linear_1305_208" x1="-275.474" y1="-212.484" x2="-275.474" y2="136.717" gradientUnits="userSpaceOnUse">
<stop stop-color="#C3A869"/>
<stop offset="1" stop-color="#BF9535"/>
</linearGradient>
<linearGradient id="paint1_linear_1305_208" x1="-14.9926" y1="-212.803" x2="-14.9926" y2="134.479" gradientUnits="userSpaceOnUse">
<stop stop-color="#C3A869"/>
<stop offset="1" stop-color="#BF9535"/>
</linearGradient>
<linearGradient id="paint2_linear_1305_208" x1="243.478" y1="-212.484" x2="243.478" y2="136.717" gradientUnits="userSpaceOnUse">
<stop stop-color="#C3A869"/>
<stop offset="1" stop-color="#BF9535"/>
</linearGradient>
<linearGradient id="paint3_linear_1305_208" x1="500" y1="-118.297" x2="500" y2="113.507" gradientUnits="userSpaceOnUse">
<stop stop-color="#C3A869"/>
<stop offset="1" stop-color="#BF9535"/>
</linearGradient>
<linearGradient id="paint4_linear_1305_208" x1="-676.988" y1="-42.9079" x2="-676.988" y2="318.265" gradientUnits="userSpaceOnUse">
<stop stop-color="#C3A869"/>
<stop offset="1" stop-color="#BF9535"/>
</linearGradient>
<linearGradient id="paint5_linear_1305_208" x1="-412.644" y1="-42.0606" x2="-412.644" y2="312.031" gradientUnits="userSpaceOnUse">
<stop stop-color="#C3A869"/>
<stop offset="1" stop-color="#BF9535"/>
</linearGradient>
<linearGradient id="paint6_linear_1305_208" x1="-128.814" y1="-42.9079" x2="-128.814" y2="318.265" gradientUnits="userSpaceOnUse">
<stop stop-color="#C3A869"/>
<stop offset="1" stop-color="#BF9535"/>
</linearGradient>
<linearGradient id="paint7_linear_1305_208" x1="131.873" y1="-42.9079" x2="131.873" y2="318.265" gradientUnits="userSpaceOnUse">
<stop stop-color="#C3A869"/>
<stop offset="1" stop-color="#BF9535"/>
</linearGradient>
<linearGradient id="paint8_linear_1305_208" x1="398.711" y1="-42.9079" x2="398.711" y2="318.265" gradientUnits="userSpaceOnUse">
<stop stop-color="#C3A869"/>
<stop offset="1" stop-color="#BF9535"/>
</linearGradient>
<linearGradient id="paint9_linear_1305_208" x1="758.556" y1="-38.9026" x2="758.556" y2="312.726" gradientUnits="userSpaceOnUse">
<stop stop-color="#C3A869"/>
<stop offset="1" stop-color="#BF9535"/>
</linearGradient>
<linearGradient id="paint10_linear_1305_208" x1="134" y1="-1.00006" x2="134" y2="111" gradientUnits="userSpaceOnUse">
<stop stop-color="#C3A869"/>
<stop offset="1" stop-color="#BF9535"/>
</linearGradient>
</defs>
</svg>
