<svg xmlns="http://www.w3.org/2000/svg"  viewBox="0 0 64 64" width="64px" height="64px"><path d="M 15 0 A 8.99927 8.99927 0 0 0 6.9101562 12.925781 L 16.558594 32.84375 A 31.52234 31.52234 0 0 0 10.875 50.755859 C 10.875 62.977979 21.28028 64 31.9375 64 C 42.61183 64 54 62.977049 54 50.755859 A 30.09831 30.09831 0 0 0 47.554688 32.599609 L 57.089844 12.927734 A 8.92516 8.92516 0 0 0 56.617188 4.2207031 A 8.93463 8.93463 0 0 0 49 0 L 15 0 z M 15 2 L 49 2 A 6.99911 6.99911 0 0 1 55.289062 12.054688 L 46.113281 30.988281 A 21.05047 21.05047 0 0 0 42.953125 28.335938 L 51.689453 10.308594 A 2.99536 2.99536 0 0 0 49 6 L 15 6 A 2.9955 2.9955 0 0 0 12.310547 10.306641 L 21.060547 28.363281 A 19.52853 19.52853 0 0 0 17.955078 31.140625 L 8.7089844 12.052734 A 6.99907 6.99907 0 0 1 15 2 z M 14.960938 8 A 0.98251 0.98251 0 0 1 15 8 L 49 8 A 0.98238 0.98238 0 0 1 49.847656 8.4804688 A 0.93878 0.93878 0 0 1 49.890625 9.4335938 L 41.234375 27.294922 A 19.31635 19.31635 0 0 0 31.9375 25 A 18.55512 18.55512 0 0 0 22.763672 27.291016 L 14.109375 9.4316406 A 0.93618 0.93618 0 0 1 14.150391 8.4824219 A 0.98251 0.98251 0 0 1 14.960938 8 z M 31.9375 27 C 45.62355 27 52 41.175779 52 50.755859 C 52 60.119629 44.32325 62 31.9375 62 C 19.57472 62 12.875 60.208489 12.875 50.755859 C 12.875 41.571289 18.0503 27 31.9375 27 z M 31.9375 29 C 26.63429 29 22.338382 31.394034 19.169922 36.115234 A 1.0001132 1.0001132 0 0 0 20.832031 37.228516 C 23.605961 33.095216 27.34181 31 31.9375 31 A 1 1 0 0 0 31.9375 29 z"/></svg>