<svg xmlns="http://www.w3.org/2000/svg"  viewBox="0 0 64 64" width="64px" height="64px"><path d="M 28 0 C 19.728516 0 13 6.7285156 13 15 C 13 23.271484 19.728516 30 28 30 C 32.905457 30 37.255676 27.622131 39.994141 23.970703 C 40.309082 25.934204 40.229614 27.952698 39.740234 29.910156 C 39.40918 31.24707 39.240234 32.616211 39.240234 33.980469 C 39.240234 34.661133 39.28418 35.354492 39.369141 36.044922 L 39.636719 38.167969 C 35.899414 34.856445 31.062492 33 26 33 C 21.182922 33 16.574402 34.684326 12.917969 37.701172 C 9.6380005 35.317749 5.6578979 34 1.5996094 34 L 1 34 C 0.44726562 34 0 34.447266 0 35 L 0 58 C 0 58.430664 0.27539062 58.813477 0.68359375 58.949219 L 12.144531 62.769531 C 14.597656 63.585938 17.148438 64 19.730469 64 L 30.359375 64 C 34.225586 64 38.066406 63.058594 41.462891 61.277344 L 53.380859 55.056641 C 57.537109 52.889648 60.850586 49.523438 62.964844 45.316406 L 63.894531 43.445312 C 64.027344 43.177734 64.036133 42.864258 63.914062 42.591797 L 48.763672 8.734375 C 47.486328 5.859375 44.620117 4 41.460938 4 L 38.164062 4 C 35.488403 1.5258789 31.923279 0 28 0 z M 28 2 C 35.167969 2 41 7.8320312 41 15 C 41 22.167969 35.167969 28 28 28 C 20.832031 28 15 22.167969 15 15 C 15 7.8320312 20.832031 2 28 2 z M 39.972656 6 L 41.458984 6 C 43.829102 6 45.977539 7.3925781 46.935547 9.5488281 L 61.894531 42.978516 L 61.175781 44.421875 C 59.25293 48.248047 56.239258 51.311523 52.457031 53.283203 L 40.535156 59.503906 C 37.422852 61.136719 33.90332 62 30.359375 62 L 19.730469 62 C 17.364258 62 15.025391 61.619141 12.777344 60.871094 L 2 57.279297 L 2 36.003906 C 5.3623047 36.08252 8.6487427 37.165833 11.414062 39.076172 C 11.059387 39.433228 10.71106 39.798401 10.380859 40.183594 L 10.238281 40.351562 C 9.8798828 40.771484 9.9296875 41.40332 10.349609 41.761719 C 10.768555 42.118164 11.399414 42.070312 11.759766 41.650391 L 11.900391 41.484375 C 12.389404 40.914185 12.915894 40.384155 13.462891 39.882812 C 13.582275 39.820312 13.692017 39.737061 13.78125 39.625 C 13.784668 39.620728 13.785706 39.613709 13.789062 39.609375 C 17.151672 36.666443 21.467407 35 26 35 C 31.427734 35 36.564453 37.363281 40.095703 41.482422 L 40.238281 41.650391 C 40.432617 41.87793 40.713867 42 41 42 C 41.136719 42 41.273437 41.973633 41.404297 41.916016 C 41.808594 41.737305 42.047852 41.313477 41.992188 40.875 L 41.351562 35.798828 C 41.277344 35.191406 41.240234 34.579102 41.240234 33.980469 C 41.240234 32.77832 41.388672 31.570312 41.679688 30.392578 C 42.412781 27.462219 42.336121 24.410095 41.480469 21.535156 C 42.443726 19.556519 43 17.344727 43 15 C 43 11.621155 41.864746 8.510437 39.972656 6 z M 28 8 C 24.140625 8 21 11.140625 21 15 C 21 18.859375 24.140625 22 28 22 C 31.859375 22 35 18.859375 35 15 C 35 11.140625 31.859375 8 28 8 z M 28 10 C 30.756836 10 33 12.243164 33 15 C 33 17.756836 30.756836 20 28 20 C 25.243164 20 23 17.756836 23 15 C 23 12.243164 25.243164 10 28 10 z M 7.0644531 50.001953 C 6.6756287 49.977463 6.2907715 50.182129 6.1054688 50.552734 C 5.8583984 51.046875 6.0585938 51.647461 6.5527344 51.894531 C 11.923828 54.580078 17.936516 56 23.943359 56 L 27 56 C 27.552734 56 28 55.552734 28 55 C 28 54.447266 27.552734 54 27 54 L 23.945312 54 C 18.24707 54 12.541992 52.65332 7.4472656 50.105469 C 7.3239746 50.044189 7.1940613 50.010117 7.0644531 50.001953 z"/></svg>