<svg xmlns="http://www.w3.org/2000/svg"  viewBox="0 0 64 64" width="64px" height="64px"><path d="M 27.763672 0 A 2.94 2.94 0 0 0 24.828125 2.65625 L 24.189453 9.0527344 L 21.296875 10.251953 L 16.320312 6.1796875 A 2.9409 2.9409 0 0 0 12.367188 6.3769531 L 6.3769531 12.369141 A 2.9409 2.9409 0 0 0 6.1796875 16.320312 L 10.255859 21.302734 L 9.0605469 24.189453 L 2.65625 24.830078 A 2.94 2.94 0 0 0 0 27.763672 L 0 36.236328 A 2.94 2.94 0 0 0 2.65625 39.169922 L 9.0605469 39.810547 L 10.255859 42.697266 L 6.1796875 47.679688 A 2.9409 2.9409 0 0 0 6.3769531 51.630859 L 12.369141 57.623047 A 2.9388 2.9388 0 0 0 16.320312 57.820312 L 21.294922 53.75 L 24.189453 54.947266 L 24.830078 61.34375 A 2.94 2.94 0 0 0 27.763672 64 L 36.236328 64 A 2.94 2.94 0 0 0 39.171875 61.34375 L 39.810547 54.947266 L 42.705078 53.748047 L 47.679688 57.820312 A 2.9376 2.9376 0 0 0 51.632812 57.623047 L 57.623047 51.632812 A 2.9409 2.9409 0 0 0 57.820312 47.679688 L 53.744141 42.697266 L 54.939453 39.810547 L 61.345703 39.169922 A 2.94 2.94 0 0 0 64 36.236328 L 64 27.763672 A 2.94 2.94 0 0 0 61.34375 24.830078 L 54.939453 24.189453 L 53.744141 21.302734 L 57.820312 16.320312 A 2.9409 2.9409 0 0 0 57.623047 12.369141 L 51.630859 6.3769531 A 2.9393 2.9393 0 0 0 47.679688 6.1796875 L 42.697266 10.255859 L 39.810547 9.0605469 L 39.171875 2.65625 A 2.94 2.94 0 0 0 36.236328 0 L 27.763672 0 z M 27.763672 2 L 36.236328 2 A 0.9468 0.9468 0 0 1 37.181641 2.8554688 L 37.880859 9.8554688 A 1.0014 1.0014 0 0 0 38.492188 10.679688 L 42.484375 12.332031 A 1.001 1.001 0 0 0 43.5 12.181641 L 48.945312 7.7285156 A 0.9464 0.9464 0 0 1 50.21875 7.7910156 L 56.208984 13.78125 A 0.946 0.946 0 0 1 56.271484 15.054688 L 51.816406 20.5 A 1.0023 1.0023 0 0 0 51.667969 21.515625 L 53.320312 25.505859 A 0.9992 0.9992 0 0 0 54.144531 26.119141 L 61.144531 26.820312 A 0.946 0.946 0 0 1 62 27.763672 L 62 36.236328 A 0.946 0.946 0 0 1 61.144531 37.179688 L 54.144531 37.880859 A 0.9992 0.9992 0 0 0 53.320312 38.492188 L 51.667969 42.484375 A 1.0023 1.0023 0 0 0 51.816406 43.5 L 56.271484 48.945312 A 0.946 0.946 0 0 1 56.208984 50.21875 L 50.21875 56.208984 A 0.9468 0.9468 0 0 1 48.945312 56.271484 L 43.505859 51.822266 A 0.9966 0.9966 0 0 0 42.490234 51.671875 L 38.492188 53.328125 A 1 1 0 0 0 37.880859 54.152344 L 37.181641 61.144531 A 0.9468 0.9468 0 0 1 36.236328 62 L 27.763672 62 A 0.9468 0.9468 0 0 1 26.818359 61.144531 L 26.119141 54.152344 A 1 1 0 0 0 25.507812 53.328125 L 21.507812 51.671875 A 0.999 0.999 0 0 0 20.492188 51.822266 L 15.054688 56.271484 A 0.9472 0.9472 0 0 1 13.78125 56.208984 L 7.7910156 50.21875 A 0.946 0.946 0 0 1 7.7285156 48.945312 L 12.183594 43.5 A 1.0023 1.0023 0 0 0 12.332031 42.484375 L 10.679688 38.494141 A 0.9992 0.9992 0 0 0 9.8554688 37.880859 L 2.8554688 37.179688 A 0.946 0.946 0 0 1 2 36.236328 L 2 27.763672 A 0.946 0.946 0 0 1 2.8554688 26.820312 L 9.8554688 26.119141 A 0.9992 0.9992 0 0 0 10.679688 25.507812 L 12.332031 21.515625 A 1.0023 1.0023 0 0 0 12.183594 20.5 L 7.7285156 15.054688 A 0.946 0.946 0 0 1 7.7910156 13.78125 L 13.78125 7.7910156 A 0.9468 0.9468 0 0 1 15.054688 7.7285156 L 20.494141 12.177734 A 0.9987 0.9987 0 0 0 21.509766 12.328125 L 25.507812 10.671875 A 1 1 0 0 0 26.119141 9.8476562 L 26.818359 2.8554688 A 0.9468 0.9468 0 0 1 27.763672 2 z M 32 16 A 16 16 0 1 0 48 32 A 16.0183 16.0183 0 0 0 32 16 z M 31.417969 18.011719 A 14 14 0 0 1 46 32 A 14.0158 14.0158 0 0 1 32 46 A 14 14 0 0 1 31.417969 18.011719 z"/></svg>