<svg width="518" height="73" viewBox="0 0 518 73" fill="none" xmlns="http://www.w3.org/2000/svg">
<path d="M48.7114 7.39546L46.7126 3.90614C45.6034 1.98817 44.6444 0.405268 44.5635 0.405268C44.4133 0.405268 44.4827 0.30128 42.0794 4.43763C40.4156 7.30303 40.2539 7.6381 40.3579 7.90384C40.4965 8.22735 40.8316 11.682 41.1204 15.5988C41.3862 19.2961 41.9985 32.0056 41.9177 32.2251C41.8021 32.5255 40.3405 32.3375 39.474 32.1642C38.9107 32.0515 38.2608 31.9909 37.1776 31.8609C37.0967 31.884 35.8402 31.6821 34.4769 31.4972L34.4122 31.4884C33.0627 31.3054 31.4864 31.0917 30.8951 31.0235C30.3037 30.9552 28.055 30.6406 25.8577 30.3333L25.7536 30.3187C23.5352 30.0067 21.5826 29.7294 21.4208 29.7179C21.1435 29.6948 21.132 29.7294 21.0511 30.4458C21.0049 30.8617 20.924 32.6757 20.8547 34.4897C20.4849 44.3568 19.9072 50.0068 18.8096 54.3858C18.5901 55.2523 18.4167 56.038 18.4167 56.1304C18.4167 56.2228 19.6761 57.4822 21.2128 58.938C23.9049 61.4915 26.7241 64.484 31.8079 70.2264C32.9864 71.5435 33.98 72.5834 34.0378 72.5256C34.084 72.4794 34.1187 66.8757 34.1071 60.0819L34.0725 47.7306L32.2354 47.5342C30.6178 47.3609 30.3752 47.3031 30.0979 47.0605C28.6883 45.7664 25.4416 42.7508 25.1412 42.4273L24.7484 42.0229L24.6906 39.9894C24.6213 37.8173 24.6675 37.4475 24.9563 37.332C25.1643 37.2511 27.9951 37.6208 35.5514 38.6954C38.8905 39.1691 39.9766 39.3655 40.1384 39.5157C40.4619 39.8161 40.6352 40.4516 40.5658 41.1217C40.5312 41.4452 40.2654 44.0218 39.9766 46.8525C39.6877 49.6833 39.422 52.1443 39.3873 52.3176C39.3411 52.6064 39.5606 52.8606 41.8252 55.0905C43.2002 56.4424 44.4018 57.5862 44.4942 57.6324C44.656 57.7249 45.5919 56.8006 49.0234 53.1726L49.7744 52.3985L49.2198 47.3147C48.4804 40.44 48.4919 40.648 48.7923 40.0587C48.931 39.793 49.1505 39.5042 49.3007 39.4117C49.5318 39.2731 51.184 39.0535 61.236 37.8866C62.7034 37.7133 63.9974 37.6093 64.1014 37.6439C64.2632 37.7133 64.2863 37.979 64.2863 39.8277V41.9305L62.7612 43.4441C61.9177 44.276 60.6699 45.4891 59.9997 46.1477L58.7635 47.3378L57.4001 47.4418C56.6375 47.4995 55.8056 47.5804 55.5399 47.6151L55.0431 47.6729V60.1512C55.0431 67.1183 55.0893 72.618 55.147 72.5949C55.1933 72.5834 56.2562 71.4395 57.4925 70.0761C61.0627 66.1247 63.8703 63.086 67.3366 59.3887L70.5601 55.9571L70.1442 54.2124C69.6936 52.3522 69.4047 50.6538 69.0234 47.5689C68.5497 43.7329 68.3418 40.1512 68.1453 32.5948L68.0645 29.6023L67.2441 29.6832C64.9333 29.8912 51.2302 31.8207 49.4971 32.1789C48.0991 32.4677 47.4405 32.4793 47.3365 32.2135C47.2903 32.098 47.325 29.8565 47.3943 27.2106C47.5329 22.7392 47.66 20.6826 48.5844 9.0708L48.7114 7.39546Z" fill="url(#paint0_linear_1304_204)"/>
<path d="M38.5786 14.1315C38.4168 11.6011 38.2897 9.50985 38.2897 9.47519C38.2897 9.38276 38.1742 9.40587 37.3654 9.69472C30.5947 12.0633 25.1759 17.6323 23.3965 24.0333C23.0615 25.2234 22.6571 27.4417 22.7611 27.5457C22.7842 27.5688 25.4416 27.8923 28.6652 28.2621C34.5924 28.9438 38.7519 29.4752 39.1331 29.5908C39.2833 29.637 39.3296 29.5792 39.3296 29.3366C39.3296 28.3314 38.8212 18.0483 38.5786 14.1315Z" fill="url(#paint1_linear_1304_204)"/>
<path d="M63.8472 19.7698C61.6058 15.6913 57.0997 11.8553 52.3394 9.9489C51.2187 9.4983 50.8836 9.44053 50.8836 9.70627C50.8836 9.81026 50.7796 11.4278 50.6525 13.3227C50.1788 20.5671 49.7051 29.4175 49.786 29.5099C49.8206 29.533 51.0454 29.3944 52.5243 29.1864C54.0032 28.99 57.6774 28.5509 60.6814 28.2043C63.6855 27.8577 66.1812 27.5573 66.2158 27.5111C66.3314 27.3955 65.9154 25.0732 65.5457 23.8253C65.1297 22.4273 64.552 21.0408 63.8472 19.7698Z" fill="url(#paint2_linear_1304_204)"/>
<path d="M5.04866 40.7619C6.65249 42.2862 8.42957 43.6177 10.3436 44.7292C9.05223 42.6361 8.13476 40.335 7.63211 37.9283C7.16284 35.9142 7.40793 33.7998 8.32554 31.946C10.6901 27.5698 16.2706 27.2233 17.9417 27.2233C19.154 27.1932 19.4648 27.2682 20.7998 27.3982C21.3712 23.0654 21.9263 20.5524 25.6958 15.8297C22.4812 16.2037 18.5021 16.8151 15.4271 17.8227C11.7383 19.0194 6.5615 21.1149 3.21839 24.5155C1.07432 26.7511 -0.0605127 29.1753 0.00248865 31.7573C0.153173 33.4371 0.70446 35.0565 1.61024 36.48C2.53876 38.0688 3.69744 39.5117 5.04866 40.7619Z" fill="url(#paint3_linear_1304_204)"/>
<path d="M83.9513 40.6752C82.3475 42.1996 80.5704 43.5311 78.6564 44.6426C79.9478 42.5495 80.8652 40.2483 81.3679 37.8416C81.8371 35.8275 81.5921 33.7132 80.6745 31.8594C78.3099 27.4831 72.7294 27.1367 71.0583 27.1367C69.846 27.1066 69.5352 27.1815 68.2002 27.3115C67.6288 22.9787 67.0737 20.4657 63.3042 15.743C66.5188 16.1171 70.4979 16.7284 73.5729 17.7361C77.2617 18.9327 82.4385 21.0282 85.7816 24.4289C87.9257 26.6644 89.0605 29.0887 88.9975 31.6706C88.8468 33.3505 88.2955 34.9699 87.3898 36.3934C86.4612 37.9821 85.3026 39.425 83.9513 40.6752Z" fill="url(#paint4_linear_1304_204)"/>
<path d="M44.5633 0.573542C44.6442 0.573542 45.6032 2.1564 46.7124 4.07435L48.7114 7.56356L48.5843 9.23897L48.2734 13.1689C47.628 21.4026 47.5154 23.4663 47.3941 27.3787C47.3248 30.0245 47.2902 32.2662 47.3365 32.3817C47.434 32.6308 48.0188 32.6362 49.2434 32.3979L49.4971 32.3469C51.1768 31.9998 64.0885 30.1783 66.9947 29.8757L68.0643 29.7704L68.1451 32.7629C68.3416 40.3192 68.5496 43.901 69.0233 47.7369C69.4045 50.8218 69.6935 52.5203 70.1442 54.3805L70.5599 56.1253L67.3365 59.5567C63.8703 63.254 61.0626 66.2928 57.4924 70.2443L56.6108 71.2112C55.7881 72.1086 55.1815 72.7544 55.1468 72.763C55.0963 72.7782 55.0548 68.5716 55.0452 62.8553L55.0428 47.841L55.5397 47.7833C55.739 47.7573 56.2568 47.7053 56.8249 47.6565L57.3999 47.6098L58.7633 47.506L59.9995 46.3159C60.5022 45.8219 61.3299 45.016 62.0681 44.2929L62.7611 43.6123L64.2862 42.0985V39.9958C64.2862 38.1471 64.2631 37.8814 64.1013 37.8121C63.9973 37.7774 62.7033 37.8813 61.236 38.0546L57.8464 38.4497C50.7947 39.2752 49.5034 39.4584 49.3007 39.5797C49.1505 39.6722 48.9309 39.9612 48.7923 40.227C48.4919 40.8162 48.4802 40.6084 49.2196 47.4827L49.7744 52.5664L49.0232 53.3407C45.5917 56.9686 44.6558 57.8928 44.4941 57.8004C44.4127 57.7594 43.4828 56.879 42.3308 55.7542L41.8252 55.2587C39.7025 53.1684 39.3765 52.8141 39.3821 52.54L39.3873 52.4858C39.4133 52.3558 39.5692 50.9389 39.7674 49.0444L39.9766 47.0206C40.2654 44.1902 40.5311 41.614 40.5659 41.29C40.6352 40.6199 40.4617 39.9843 40.1382 39.6839C39.9967 39.5525 39.1475 39.3855 36.7005 39.0285L35.5512 38.8634C27.9949 37.7889 25.1641 37.4193 24.9561 37.5002C24.6674 37.6158 24.6211 37.9858 24.6904 40.1576L24.7484 42.1911L25.1412 42.5955C25.4421 42.9195 28.6881 45.9346 30.0976 47.2286C30.3749 47.4712 30.6177 47.5291 32.2351 47.7024L34.0722 47.8988L34.107 60.2501C34.1185 67.0438 34.084 72.6475 34.0377 72.6937L34.0296 72.6957C33.9324 72.6876 33.1852 71.9161 32.2395 70.8738L31.8078 70.3943C26.7241 64.652 23.9048 61.6596 21.2127 59.1062C19.676 57.6504 18.4167 56.3909 18.4167 56.2985C18.4167 56.2059 18.59 55.4201 18.8095 54.5537C19.8728 50.3116 20.4482 44.8767 20.8193 35.5706L20.8546 34.6579C20.9153 33.0708 20.9848 31.4835 21.0322 30.8328L21.051 30.614C21.1319 29.8977 21.1434 29.863 21.4207 29.8861C21.5828 29.8977 23.5352 30.175 25.7534 30.487L25.8577 30.5015C28.0549 30.8088 30.3034 31.1234 30.8949 31.1917C31.4863 31.2599 33.0626 31.4737 34.4121 31.6567L34.4767 31.6654C35.8395 31.8502 37.0956 32.0518 37.1774 32.0289C38.2606 32.1589 38.9107 32.2197 39.4739 32.3324C40.3405 32.5057 41.8021 32.6937 41.9177 32.3933C41.9985 32.1738 41.3861 19.4646 41.1204 15.7671C40.8406 11.9731 40.5175 8.61257 40.3715 8.11159L40.3578 8.07213C40.2669 7.83961 40.3793 7.55396 41.5234 5.5667L42.0793 4.60584C44.482 0.470466 44.4133 0.573494 44.5633 0.573542ZM25.6957 15.9978C21.9262 20.7205 21.371 23.2336 20.7996 27.5664L19.9603 27.4799C19.2529 27.4054 18.8507 27.3688 17.9415 27.3914L17.7738 27.3926C15.925 27.417 10.6161 27.8746 8.32538 32.1142C7.40778 33.968 7.16283 36.0823 7.63209 38.0964C8.13474 40.503 9.05217 42.8042 10.3435 44.8972C8.4295 43.7858 6.65226 42.4543 5.04843 40.9299C3.69725 39.6797 2.53861 38.2368 1.61011 36.6481C0.732664 35.2692 0.187754 33.7064 0.017552 32.0829L0.00248686 31.9254C-0.0585183 29.4241 1.00441 27.0709 3.02014 24.8938L3.21831 24.6838C6.56142 21.2831 11.7383 19.1875 15.4271 17.9909C18.5021 16.9832 22.4812 16.3718 25.6957 15.9978ZM63.304 15.9113C66.5186 16.2854 70.4976 16.8967 73.5726 17.9044C77.2614 19.101 82.4383 21.1964 85.7815 24.5971C87.9255 26.8326 89.0603 29.2569 88.9973 31.8389L88.9822 31.9961C88.812 33.6196 88.2671 35.1824 87.3897 36.5614C86.4611 38.1501 85.3025 39.5932 83.9513 40.8435C82.3475 42.3678 80.5703 43.6993 78.6562 44.8108C79.9072 42.7831 80.8073 40.56 81.3193 38.2351L81.3677 38.0096C81.8369 35.9955 81.592 33.8812 80.6744 32.0275C78.3837 27.7879 73.0747 27.3303 71.2259 27.3059L71.0582 27.3047C69.8459 27.2746 69.5351 27.3497 68.2002 27.4796L68.0924 26.6876C67.5468 22.8242 66.8379 20.3388 63.304 15.9113ZM25.0204 16.3781C21.9501 16.757 18.3436 17.3476 15.5193 18.2731L15.5184 18.2734C11.836 19.468 6.71926 21.5461 3.4298 24.8921C1.32782 27.0847 0.240738 29.4323 0.298574 31.9097C0.441769 33.4873 0.948736 35.0098 1.77872 36.3583L1.86042 36.4886L1.86332 36.4932L1.86621 36.4981C2.72281 37.9638 3.77843 39.3033 5.00265 40.4788L5.24978 40.7118L5.25268 40.7147L5.55224 40.9952C6.77581 42.1245 8.09771 43.1418 9.50132 44.0365C8.50038 42.1962 7.77265 40.218 7.34296 38.164L7.29979 37.9684C6.87469 35.9463 7.14117 33.8379 8.05971 31.9822L8.06203 31.9776L8.06463 31.9729C9.29489 29.696 11.3571 28.4778 13.2998 27.8298C15.12 27.2226 16.8581 27.1075 17.7703 27.0955L17.9415 27.0944C19.0778 27.0664 19.4507 27.1296 20.5443 27.2412C20.8183 25.204 21.1075 23.537 21.7719 21.821C22.4115 20.1686 23.3932 18.4847 25.0204 16.3781ZM63.9793 16.2914C65.6066 18.398 66.5882 20.0819 67.2279 21.7342C67.8922 23.4503 68.1811 25.1175 68.4551 27.1547C69.549 27.0432 69.9219 26.9797 71.0582 27.0076L71.2294 27.0088C72.1416 27.0208 73.8798 27.1362 75.7 27.7433C77.5819 28.3711 79.5762 29.5337 80.8175 31.6759L80.9351 31.8862L80.9377 31.8908L80.94 31.8955C81.8882 33.811 82.1417 35.996 81.6568 38.0772C81.2271 40.1314 80.4992 42.1097 79.4981 43.95C81.0172 42.9818 82.4404 41.8698 83.7471 40.6279L83.75 40.625C85.0797 39.3947 86.2198 37.9748 87.1335 36.4114L87.1364 36.4065L87.1393 36.4018C88.0177 35.0214 88.5531 33.4516 88.7009 31.8229C88.7587 29.3456 87.672 26.9979 85.57 24.8054L85.4147 24.6496C82.1212 21.3946 77.1063 19.3629 73.4814 18.187L73.4805 18.1867C70.6562 17.2612 67.0497 16.6703 63.9793 16.2914ZM50.8834 9.87432C50.8835 9.60875 51.2187 9.66664 52.3392 10.1172C57.0995 12.0236 61.6057 15.8595 63.8472 19.9381C64.552 21.209 65.1296 22.5956 65.5455 23.9936C65.9153 25.2415 66.3312 27.5637 66.2156 27.6792C66.1793 27.7256 63.6842 28.0258 60.6812 28.3723L58.3473 28.6444C55.9773 28.9234 53.6332 29.2073 52.5241 29.3546C51.1374 29.5496 49.9742 29.6835 49.806 29.6804L49.786 29.6781C49.7102 29.5915 50.1215 21.8073 50.5636 14.8655L50.6525 13.4909C50.7478 12.0698 50.83 10.8046 50.8652 10.2169L50.8834 9.87432ZM38.0115 9.95411C37.887 9.99416 37.7116 10.0546 37.4651 10.1427L37.463 10.1433C30.7756 12.4827 25.4332 17.9823 23.6822 24.2811L23.6819 24.282C23.5178 24.8648 23.335 25.7071 23.2059 26.4181C23.1415 26.7734 23.0915 27.091 23.064 27.3236C23.0581 27.3735 23.0534 27.4183 23.0498 27.4579C23.1138 27.4666 23.19 27.4775 23.2781 27.4889C23.5796 27.5281 24.0137 27.5821 24.5485 27.647C25.0832 27.712 25.7181 27.7878 26.4206 27.8704L30.8355 28.3833C32.8814 28.6234 34.6437 28.8375 36.0162 29.012C36.931 29.1284 37.6735 29.2274 38.2119 29.3045C38.481 29.343 38.7005 29.3762 38.8655 29.4037C38.9257 29.4137 38.9814 29.4237 39.0312 29.433C39.0114 28.0969 38.5203 18.1597 38.2823 14.3186L38.0772 11.0539C38.0479 10.5777 38.026 10.1989 38.0115 9.95411ZM51.172 10.0263C51.1466 10.4898 51.0557 11.9107 50.9483 13.5109C50.7116 17.1317 50.4749 21.1539 50.3075 24.2823C50.2237 25.8467 50.1572 27.1868 50.1168 28.1411C50.0966 28.6185 50.0832 28.998 50.0772 29.2601C50.0763 29.2966 50.0757 29.3307 50.0751 29.3622C50.2067 29.3493 50.3773 29.3315 50.5792 29.3079C51.0719 29.2505 51.7455 29.1642 52.4829 29.0605L52.4852 29.0599C53.9671 28.8631 57.6436 28.4239 60.6473 28.0773C62.1492 27.904 63.5232 27.7424 64.5257 27.6183C65.0272 27.5563 65.4343 27.5037 65.7176 27.464C65.8012 27.4523 65.873 27.4415 65.9329 27.4323C65.9293 27.3842 65.9242 27.3277 65.9169 27.2632C65.8895 27.019 65.8379 26.6861 65.7706 26.314C65.6359 25.5687 65.4417 24.6877 65.261 24.078C64.8511 22.7002 64.2816 21.3337 63.5877 20.0823L63.5871 20.0811C61.3823 16.0695 56.9331 12.2769 52.2291 10.393L52.2289 10.3928C51.6919 10.1769 51.3636 10.0642 51.172 10.0263ZM64.5828 42.2224L64.495 42.3097L62.97 43.8232L62.9691 43.8238C62.1268 44.6546 60.8744 45.8727 60.2076 46.528L60.2052 46.53L58.8923 47.794L57.4225 47.906C56.6616 47.9637 55.836 48.0442 55.5782 48.0778L55.5739 48.0784L55.3395 48.1053V60.3192C55.3395 63.8021 55.3512 66.918 55.3699 69.1598C55.3793 70.2809 55.3905 71.1827 55.403 71.8022C55.4049 71.8993 55.407 71.9893 55.409 72.072C55.484 71.9922 55.567 71.9041 55.6565 71.808C55.8689 71.5797 56.1186 71.3091 56.3923 71.0105L57.2728 70.0444C60.8442 66.0916 63.653 63.0516 67.1201 59.3534L67.1204 59.3531L70.234 56.0385L69.8556 54.4496C69.4582 52.8088 69.1859 51.2936 68.8683 48.8707L68.7289 47.7734C68.2534 43.9228 68.0452 40.3294 67.8488 32.771L67.7763 30.097L67.2731 30.1469L67.2705 30.1472C65.0398 30.348 52.1216 32.1637 49.7527 32.6002L49.5568 32.6379C48.855 32.7829 48.318 32.8631 47.9362 32.8694C47.7468 32.8725 47.5734 32.858 47.43 32.8117C47.2837 32.7643 47.1303 32.6697 47.0601 32.4902C47.0468 32.4564 47.0417 32.4252 47.0398 32.4136C47.037 32.3967 47.0349 32.3796 47.0334 32.3643C47.0304 32.3333 47.0282 32.2959 47.0265 32.2549C47.0229 32.1722 47.0206 32.0607 47.0195 31.9256C47.0173 31.6548 47.0195 31.2786 47.0253 30.8252C47.0369 29.9179 47.0631 28.6946 47.0977 27.3711V27.3697L47.1238 26.555C47.2557 22.5951 47.4219 20.1015 48.2885 9.21547L48.4087 7.63261L46.4552 4.22231C45.9014 3.26488 45.3859 2.39216 44.9993 1.75982C44.806 1.44352 44.6463 1.18984 44.5309 1.01626C44.5002 1.06384 44.463 1.1224 44.4188 1.19439C44.2691 1.43785 44.0491 1.81026 43.7162 2.38067L42.3357 4.75525C41.5017 6.19156 41.0514 6.98155 40.8214 7.44578C40.7054 7.67986 40.656 7.81075 40.6377 7.88907C40.6235 7.94999 40.6321 7.95892 40.6339 7.96363H40.6334C40.6652 8.04243 40.6898 8.16333 40.7107 8.28421C40.7348 8.42334 40.761 8.60496 40.7889 8.82208C40.8449 9.2569 40.9091 9.84495 40.9778 10.543C41.081 11.5906 41.1947 12.8904 41.3061 14.3018L41.4162 15.7451V15.7457L41.4701 16.5409C41.6037 18.6178 41.791 22.1617 41.9452 25.3699C42.0333 27.2038 42.1108 28.9297 42.161 30.2111C42.1861 30.8516 42.2045 31.3822 42.214 31.76C42.2188 31.9485 42.2215 32.1009 42.2216 32.2105C42.2216 32.265 42.221 32.3118 42.2195 32.3483C42.2188 32.3663 42.2178 32.3852 42.2161 32.4029C42.2154 32.4095 42.212 32.4521 42.1958 32.496L42.1952 32.498L42.1943 32.5001C42.139 32.644 42.0195 32.7184 41.9345 32.7559C41.8452 32.7953 41.7439 32.8167 41.6474 32.8293C41.4521 32.855 41.2091 32.8529 40.9584 32.8369C40.5161 32.8087 40.0047 32.7341 39.5881 32.6567L39.4157 32.6237C38.8723 32.515 38.2491 32.4562 37.171 32.3272C37.157 32.3276 37.147 32.3278 37.1435 32.3277C37.1204 32.3273 37.095 32.3257 37.0699 32.3237C37.019 32.3195 36.9533 32.3122 36.8769 32.3028C36.7233 32.2838 36.5134 32.2546 36.2662 32.2192C36.018 32.1838 35.7307 32.1419 35.4205 32.0974L34.437 31.9596L34.3724 31.9509C33.0207 31.7676 31.4486 31.5545 30.861 31.4867C30.563 31.4523 29.8503 31.3563 28.9379 31.2305L25.7125 30.7811C24.603 30.6251 23.5603 30.4778 22.7748 30.368C22.3821 30.3131 22.0539 30.2678 21.8141 30.2354C21.6943 30.2192 21.597 30.2063 21.525 30.1971C21.489 30.1926 21.4597 30.189 21.4375 30.1864C21.4265 30.1851 21.4177 30.1842 21.4109 30.1835C21.4095 30.1834 21.4082 30.183 21.4071 30.1829C21.4037 30.1999 21.4004 30.2196 21.3967 30.2424C21.3813 30.3375 21.3661 30.4664 21.3457 30.6474C21.301 31.0507 21.2206 32.8486 21.151 34.6693C20.7812 44.5383 20.2029 50.215 19.0972 54.6262L19.0969 54.6268C18.9878 55.0577 18.8904 55.4682 18.8202 55.7815C18.7852 55.9383 18.7572 56.0695 18.7383 56.1662C18.7339 56.1881 18.7305 56.208 18.7273 56.2256C18.7583 56.2622 18.8006 56.3106 18.8553 56.3698C18.9936 56.5195 19.1959 56.7279 19.4483 56.9811C19.8266 57.3604 20.3132 57.8359 20.8564 58.3565L21.4167 58.8903L21.9254 59.3766C24.4805 61.8386 27.2619 64.812 32.0286 70.1961L32.4594 70.6742C32.8781 71.1357 33.2568 71.543 33.5562 71.8532C33.6317 71.9314 33.7023 72.0024 33.7663 72.0668C33.7685 71.953 33.7708 71.824 33.7729 71.6806C33.7825 71.044 33.7908 70.1281 33.7973 69.0005C33.8103 66.7456 33.8161 63.6469 33.8103 60.2507L33.7761 48.1657L32.2039 47.9977C31.4003 47.9116 30.9167 47.8521 30.5994 47.7813C30.2607 47.7056 30.0838 47.6107 29.9027 47.4523L29.8998 47.45L29.8972 47.4476C28.5014 46.1663 25.2651 43.1603 24.9286 42.8023L24.5357 42.3982L24.4549 42.3152L24.3735 39.4335C24.3589 38.7742 24.3629 38.3289 24.394 38.027C24.4147 37.8267 24.4497 37.657 24.5195 37.5219C24.5988 37.3686 24.7134 37.2774 24.8463 37.2243L24.8489 37.2231L24.8964 37.2083C24.9438 37.1968 24.9884 37.1946 25.0137 37.1935C25.0594 37.1916 25.1132 37.1923 25.1731 37.1947C25.2935 37.1995 25.4574 37.2119 25.6656 37.2321C26.0831 37.2727 26.6964 37.3454 27.536 37.4538C29.2163 37.6707 31.8149 38.032 35.5929 38.5693L36.7428 38.7346C37.7931 38.8879 38.5523 39.0064 39.0886 39.1025C39.4454 39.1664 39.7102 39.2215 39.8989 39.2716C39.9931 39.2966 40.0745 39.3222 40.1417 39.3491C40.1873 39.3673 40.2417 39.3919 40.2918 39.4271L40.3399 39.466L40.3796 39.5046C40.5736 39.7027 40.7068 39.9767 40.7857 40.2711C40.8709 40.5888 40.8989 40.952 40.8608 41.3204V41.3216C40.8262 41.6443 40.5604 44.2198 40.2715 47.0508C40.127 48.4666 39.9885 49.7902 39.8816 50.7816C39.8281 51.2773 39.7824 51.6903 39.748 51.9905C39.7166 52.2643 39.6924 52.4614 39.6799 52.5325L39.6802 52.5328C39.6785 52.5432 39.6736 52.5505 39.6956 52.5946C39.7269 52.6576 39.7992 52.7623 39.9624 52.9482C40.2857 53.3165 40.8973 53.9283 42.033 55.0466L42.5379 55.5415C43.031 56.023 43.4833 56.4593 43.8451 56.8038C44.0865 57.0336 44.2867 57.2218 44.4318 57.3548C44.4767 57.3959 44.5162 57.4307 44.5491 57.4601C44.5647 57.4485 44.5831 57.4359 44.603 57.42C44.7538 57.3003 44.9836 57.0897 45.3244 56.7539C46.0031 56.0853 47.0914 54.9512 48.8079 53.1365L48.8105 53.1336L49.4641 52.4597L48.9247 47.5149C48.5556 44.0836 48.3723 42.4057 48.3197 41.5154C48.2936 41.0724 48.2977 40.7972 48.3366 40.5882C48.3777 40.3667 48.4583 40.2287 48.5281 40.0918L48.5292 40.0892L48.5912 39.9772C48.6567 39.8649 48.7316 39.7538 48.8079 39.6557C48.9038 39.5324 49.023 39.402 49.1451 39.3268L49.148 39.325L49.2037 39.2963C49.2622 39.27 49.329 39.2506 49.3963 39.2339C49.4939 39.2097 49.625 39.1837 49.7999 39.1541C50.1507 39.0948 50.6982 39.0172 51.5477 38.9081C53.2483 38.6898 56.1761 38.3429 61.2013 37.7596L61.7436 37.6978C62.274 37.6394 62.7626 37.5921 63.1554 37.5594C63.4169 37.5376 63.6382 37.5219 63.802 37.5141C63.8835 37.5102 63.9541 37.5082 64.0095 37.5083C64.0369 37.5084 64.0643 37.5092 64.0891 37.5109C64.1015 37.5118 64.1294 37.5138 64.1616 37.5211L64.1949 37.5301L64.2068 37.5341L64.2181 37.5391C64.3413 37.5919 64.4247 37.6872 64.4745 37.8141C64.516 37.9201 64.5367 38.0539 64.5501 38.2116C64.5774 38.5332 64.5828 39.0765 64.5828 39.9958V42.2224ZM39.327 29.5873C39.3161 29.7602 39.2643 29.7995 39.1329 29.7591C38.7514 29.6435 34.592 29.112 28.665 28.4303C25.643 28.0837 23.1187 27.7775 22.7957 27.7216L22.7609 27.7138C22.6572 27.6089 23.0616 25.3912 23.3966 24.2013C25.1481 17.9004 30.4263 12.4056 37.049 9.97615L37.3654 9.86301C37.5676 9.79081 37.7264 9.73521 37.851 9.69387L37.9929 9.64832C38.2416 9.57244 38.2896 9.584 38.2896 9.64339L38.3733 11.0357C38.4253 11.8791 38.4975 13.0346 38.5784 14.2997C38.821 18.2165 39.3293 28.4989 39.3294 29.5046L39.327 29.5873Z" fill="white" fill-opacity="0.5"/>
<path d="M150.075 44.9196C150.075 46.6012 149.704 48.4003 148.961 50.3166C148.218 52.1938 147.025 53.9342 145.382 55.5376C143.74 57.1411 141.628 58.4513 139.047 59.4681C136.465 60.4849 133.65 60.9933 130.599 60.9933C127.549 60.9933 124.811 60.5045 122.386 59.5268C117.85 57.7277 114.897 54.5795 113.528 50.0819C113.176 48.8696 113 47.7354 113 46.6795C113 43.277 114.036 40.0896 116.109 37.1173L116.637 37.528C115.347 39.8354 114.701 42.0646 114.701 44.2156C114.701 46.875 115.366 49.2215 116.696 51.2552C118.025 53.2889 119.805 54.8728 122.034 56.0069C124.263 57.1411 126.532 57.7082 128.839 57.7082C131.186 57.7082 133.161 57.3366 134.764 56.5936C136.368 55.8505 137.541 54.8532 138.284 53.6017C139.027 52.3503 139.399 51.0401 139.399 49.6713C139.399 48.3025 138.91 46.9141 137.932 45.5062C136.954 44.0592 135.507 42.8077 133.591 41.7517L124.029 36.12C119.179 33.2651 116.754 29.5888 116.754 25.0913C116.754 21.0631 118.162 17.9539 120.978 15.7638C123.325 13.9257 126.512 13.0067 130.54 13.0067C133.122 13.0067 136.407 13.2022 140.396 13.5933H144.972L143.74 23.1554H143.153C143.153 21.0044 142.312 19.2641 140.63 17.9344C138.949 16.6047 136.798 15.9398 134.177 15.9398C131.557 15.9398 129.543 16.3896 128.135 17.2891C126.727 18.1886 125.965 19.3814 125.847 20.8676C125.73 21.8844 126.004 22.7448 126.669 23.4487C127.255 24.0745 127.842 24.5633 128.428 24.9153C129.015 25.2282 129.543 25.5215 130.012 25.7953C130.482 26.069 130.814 26.245 131.01 26.3233L141.98 32.6002C144.444 33.969 146.36 35.6703 147.729 37.704C149.293 40.0114 150.075 42.4166 150.075 44.9196Z" fill="url(#paint5_linear_1304_204)"/>
<path d="M171.364 26.2499V51.7245C171.393 52.4871 171.672 53.1324 172.2 53.6604C172.757 54.1884 173.417 54.4524 174.18 54.4524H174.752V54.8923H158.957V54.4524H159.529C160.291 54.4524 160.937 54.1884 161.465 53.6604C162.022 53.1324 162.315 52.5018 162.345 51.7685V26.2499H157.989C156.229 26.2793 154.85 26.8072 153.853 27.8338C152.856 28.8311 152.357 30.2097 152.357 31.9696V32.2776L151.917 32.3216V23.2581C152.328 23.4341 153.061 23.6101 154.117 23.7861C155.202 23.962 156.2 24.05 157.109 24.05H176.6C177.509 24.05 178.492 23.962 179.548 23.7861C180.604 23.6101 181.352 23.4341 181.792 23.2581V32.3216L181.352 32.2776V31.9696C181.352 29.5937 180.472 27.9218 178.712 26.9539C177.861 26.5139 176.849 26.2793 175.676 26.2499H171.364Z" fill="url(#paint6_linear_1304_204)"/>
<path d="M218.532 24.534H217.916C217.036 24.534 216.185 24.7833 215.364 25.282C214.572 25.7806 213.941 26.3966 213.472 27.1299L204.848 40.7251V51.6805C204.848 52.4431 205.112 53.1031 205.64 53.6604C206.198 54.1884 206.872 54.4524 207.664 54.4524H208.192V54.8923H192.441V54.4524H193.013C193.776 54.4524 194.421 54.1884 194.949 53.6604C195.506 53.1324 195.8 52.4871 195.829 51.7245V40.7251L187.425 27.0419C186.692 25.8979 185.68 25.1353 184.389 24.754C183.95 24.6073 183.51 24.534 183.07 24.534H182.454V24.094H199.437V24.534H198.909C198.263 24.534 197.765 24.8273 197.413 25.414C197.207 25.7366 197.105 26.0593 197.105 26.3819C197.105 26.6752 197.193 26.9685 197.369 27.2619L203.396 38.1293L209.644 27.2619C209.82 26.9685 209.908 26.6752 209.908 26.3819C209.908 26.0886 209.805 25.7806 209.6 25.458C209.219 24.842 208.72 24.534 208.104 24.534H207.576V24.094H218.532V24.534Z" fill="url(#paint7_linear_1304_204)"/>
<path d="M246.141 28.9338C246.61 29.9604 246.845 31.031 246.845 32.1456C246.845 33.2309 246.727 34.1988 246.493 35.0494C246.258 35.8707 245.891 36.692 245.393 37.5133C244.308 39.2732 242.445 40.3585 239.805 40.7691C240.949 41.0918 241.976 41.6637 242.885 42.485C243.853 43.3063 244.762 44.4502 245.613 45.9168C247.813 49.6713 249.499 52.0912 250.673 53.1764C251.552 53.9977 252.667 54.423 254.016 54.4524V54.8923H248.517C244.704 54.8923 241.976 54.467 240.333 53.6164C237.987 52.4138 236.315 50.3459 235.317 47.4128C235.053 46.5621 234.819 45.6675 234.613 44.7289C234.437 43.7903 234.276 43.1157 234.129 42.705C234.012 42.265 233.865 41.8691 233.689 41.5171C233.513 41.1358 233.323 40.8424 233.117 40.6371C232.765 40.2851 232.355 40.0212 231.886 39.8452V39.4052H232.59C234.291 39.4052 235.567 38.6279 236.417 37.0733C236.857 36.252 237.121 35.3721 237.209 34.4335C237.327 33.4655 237.385 32.8642 237.385 32.6296C237.385 32.3949 237.385 32.2483 237.385 32.1896C237.18 28.3178 235.508 26.3819 232.37 26.3819H230.434V51.6805C230.434 52.4431 230.712 53.1031 231.27 53.6604C231.827 54.1884 232.487 54.4524 233.249 54.4524H233.777V54.8923H217.982V54.4524H218.554C219.317 54.4524 219.962 54.1884 220.49 53.6604C221.047 53.1324 221.341 52.4871 221.37 51.7245V27.3059C221.341 26.2206 220.871 25.414 219.962 24.886C219.522 24.6513 219.053 24.534 218.554 24.534H217.982V24.094H235.185C240.934 24.094 244.586 25.7073 246.141 28.9338Z" fill="url(#paint8_linear_1304_204)"/>
<path d="M253.18 54.4524C253.943 54.4524 254.588 54.1884 255.116 53.6604C255.673 53.1031 255.967 52.4431 255.996 51.6805V27.2619C255.967 26.4992 255.673 25.8539 255.116 25.326C254.588 24.798 253.943 24.534 253.18 24.534H252.608V24.094H268.403V24.534H267.831C267.069 24.534 266.409 24.798 265.851 25.326C265.323 25.8539 265.045 26.4992 265.015 27.2619V51.6805C265.015 52.4431 265.294 53.1031 265.851 53.6604C266.409 54.1884 267.069 54.4524 267.831 54.4524H268.403V54.8923H252.608V54.4524H253.18ZM288.598 54.8923H283.846C278.449 54.8923 274.68 53.4258 272.539 50.4926C271.659 49.3193 270.412 47.4421 268.799 44.8609C267.215 42.2504 266.423 40.9304 266.423 40.9011L276.939 26.5579C277.144 26.2646 277.247 26.0006 277.247 25.7659C277.247 25.5313 277.203 25.326 277.115 25.15C276.909 24.71 276.499 24.49 275.883 24.49H275.443V24.094H286.046V24.49H285.87C283.905 24.49 282.292 25.2086 281.03 26.6459L273.595 35.6214L283.89 51.1086C285.328 53.2791 286.897 54.3937 288.598 54.4524V54.8923Z" fill="url(#paint9_linear_1304_204)"/>
<path d="M323.721 24.534H323.017C322.401 24.534 321.858 24.7393 321.389 25.15C320.949 25.5313 320.714 26.0153 320.685 26.6019V43.585C320.685 47.3101 319.526 50.2286 317.209 52.3405C314.921 54.4524 311.695 55.5083 307.53 55.5083C302.25 55.5083 298.305 54.4817 295.694 52.4285C293.084 50.3753 291.779 47.4421 291.779 43.629V26.7339C291.779 26.0886 291.544 25.5606 291.075 25.15C290.635 24.7393 290.092 24.534 289.447 24.534H288.743V24.094H303.834V24.534H303.13C302.485 24.534 301.942 24.7393 301.502 25.15C301.062 25.5313 300.827 26.0299 300.798 26.6459V43.453C300.798 46.5328 301.502 48.938 302.91 50.6686C304.318 52.3991 306.283 53.2644 308.806 53.2644C311.328 53.2644 313.293 52.4578 314.701 50.8446C316.139 49.202 316.857 46.9288 316.857 44.0249V26.6459C316.828 26.0299 316.593 25.5313 316.153 25.15C315.713 24.7393 315.171 24.534 314.525 24.534H313.821V24.094H323.721V24.534Z" fill="url(#paint10_linear_1304_204)"/>
<path d="M353.643 28.9338C354.112 29.9604 354.347 31.031 354.347 32.1456C354.347 33.2309 354.229 34.1988 353.995 35.0494C353.76 35.8707 353.393 36.692 352.895 37.5133C351.809 39.2732 349.947 40.3585 347.307 40.7691C348.451 41.0918 349.478 41.6637 350.387 42.485C351.355 43.3063 352.264 44.4502 353.115 45.9168C355.315 49.6713 357.001 52.0912 358.174 53.1764C359.054 53.9977 360.169 54.423 361.518 54.4524V54.8923H356.019C352.205 54.8923 349.478 54.467 347.835 53.6164C345.488 52.4138 343.817 50.3459 342.819 47.4128C342.555 46.5621 342.321 45.6675 342.115 44.7289C341.939 43.7903 341.778 43.1157 341.631 42.705C341.514 42.265 341.367 41.8691 341.191 41.5171C341.015 41.1358 340.825 40.8424 340.619 40.6371C340.267 40.2851 339.857 40.0212 339.387 39.8452V39.4052H340.091C341.793 39.4052 343.069 38.6279 343.919 37.0733C344.359 36.252 344.623 35.3721 344.711 34.4335C344.828 33.4655 344.887 32.8642 344.887 32.6296C344.887 32.3949 344.887 32.2483 344.887 32.1896C344.682 28.3178 343.01 26.3819 339.871 26.3819H337.936V51.6805C337.936 52.4431 338.214 53.1031 338.771 53.6604C339.329 54.1884 339.989 54.4524 340.751 54.4524H341.279V54.8923H325.484V54.4524H326.056C326.819 54.4524 327.464 54.1884 327.992 53.6604C328.549 53.1324 328.843 52.4871 328.872 51.7245V27.3059C328.843 26.2206 328.373 25.414 327.464 24.886C327.024 24.6513 326.555 24.534 326.056 24.534H325.484V24.094H342.687C348.436 24.094 352.088 25.7073 353.643 28.9338Z" fill="url(#paint11_linear_1304_204)"/>
<path d="M407.745 44.9196C407.745 46.6012 407.373 48.4003 406.63 50.3166C405.887 52.1938 404.694 53.9342 403.052 55.5376C401.409 57.1411 399.297 58.4513 396.716 59.4681C394.135 60.4849 391.319 60.9933 388.268 60.9933C385.218 60.9933 382.48 60.5045 380.055 59.5268C375.519 57.7277 372.566 54.5795 371.197 50.0819C370.845 48.8696 370.669 47.7354 370.669 46.6795C370.669 43.277 371.706 40.0896 373.779 37.1173L374.306 37.528C373.016 39.8354 372.371 42.0646 372.371 44.2156C372.371 46.875 373.035 49.2215 374.365 51.2552C375.695 53.2889 377.474 54.8728 379.703 56.0069C381.933 57.1411 384.201 57.7082 386.508 57.7082C388.855 57.7082 390.83 57.3366 392.433 56.5936C394.037 55.8505 395.21 54.8532 395.953 53.6017C396.696 52.3503 397.068 51.0401 397.068 49.6713C397.068 48.3025 396.579 46.9141 395.601 45.5062C394.624 44.0592 393.177 42.8077 391.26 41.7517L381.698 36.12C376.849 33.2651 374.424 29.5888 374.424 25.0913C374.424 21.0631 375.832 17.9539 378.648 15.7638C380.994 13.9257 384.181 13.0067 388.21 13.0067C390.791 13.0067 394.076 13.2022 398.065 13.5933H402.641L401.409 23.1554H400.822C400.822 21.0044 399.982 19.2641 398.3 17.9344C396.618 16.6047 394.467 15.9398 391.847 15.9398C389.227 15.9398 387.212 16.3896 385.805 17.2891C384.397 18.1886 383.634 19.3814 383.517 20.8676C383.399 21.8844 383.673 22.7448 384.338 23.4487C384.925 24.0745 385.511 24.5633 386.098 24.9153C386.684 25.2282 387.212 25.5215 387.682 25.7953C388.151 26.069 388.483 26.245 388.679 26.3233L399.649 32.6002C402.113 33.969 404.029 35.6703 405.398 37.704C406.962 40.0114 407.745 42.4166 407.745 44.9196Z" fill="url(#paint12_linear_1304_204)"/>
<path d="M442.277 54.4524H442.629V54.8923H425.954V54.4524H426.35C426.995 54.4524 427.479 54.2617 427.802 53.8804C428.124 53.4698 428.286 53.1031 428.286 52.7805C428.286 52.4285 428.212 52.0618 428.066 51.6805L426.35 47.5887H416.934L415.174 51.6805C415.028 52.0618 414.954 52.3698 414.954 52.6045C414.954 52.8391 414.998 53.1031 415.086 53.3964C415.204 53.6604 415.424 53.9097 415.746 54.1444C416.098 54.3497 416.465 54.4524 416.846 54.4524H417.242V54.8923H407.431V54.4524H407.827C408.501 54.4524 409.161 54.2617 409.807 53.8804C410.481 53.4698 411.039 52.8685 411.478 52.0765L421.73 29.5937C423.284 26.3086 424.12 24.1234 424.238 23.0381H424.634L438.581 52.0325C439.52 53.6457 440.751 54.4524 442.277 54.4524ZM417.902 45.3889H425.426L421.73 36.5894L417.902 45.3889Z" fill="url(#paint13_linear_1304_204)"/>
<path d="M458.18 55.5083C452.929 55.5083 448.75 54.0857 445.641 51.2405C442.561 48.366 441.021 44.4356 441.021 39.4492C441.021 34.4335 442.575 30.5177 445.685 27.7018C448.794 24.886 453.105 23.4781 458.62 23.4781C460.996 23.4781 463.445 23.6834 465.967 24.094C468.49 24.4754 470.411 24.9447 471.731 25.502L471.291 33.9055H470.895C469.37 28.4205 466.011 25.678 460.82 25.678C454.073 25.678 450.7 30.4004 450.7 39.8452C450.7 44.1276 451.39 47.4421 452.768 49.7886C454.176 52.1352 456.303 53.3084 459.148 53.3084C460.702 53.3084 462.052 52.8978 463.196 52.0765C464.369 51.2259 464.955 50.0673 464.955 48.6007L464.999 42.573C464.999 41.9277 464.794 41.4437 464.383 41.1211C464.002 40.7691 463.46 40.5931 462.756 40.5931H462.052V40.1532H476.835V40.5931H476.175C475.442 40.5931 474.884 40.7691 474.503 41.1211C474.122 41.4437 473.946 41.9277 473.975 42.573V49.8326C472.332 51.9152 469.355 53.5138 465.043 54.6284C462.814 55.215 460.526 55.5083 458.18 55.5083Z" fill="url(#paint14_linear_1304_204)"/>
<path d="M509.648 54.4524H510V54.8923H493.325V54.4524H493.721C494.366 54.4524 494.85 54.2617 495.173 53.8804C495.495 53.4698 495.657 53.1031 495.657 52.7805C495.657 52.4285 495.583 52.0618 495.437 51.6805L493.721 47.5887H484.305L482.546 51.6805C482.399 52.0618 482.326 52.3698 482.326 52.6045C482.326 52.8391 482.37 53.1031 482.458 53.3964C482.575 53.6604 482.795 53.9097 483.117 54.1444C483.469 54.3497 483.836 54.4524 484.217 54.4524H484.613V54.8923H474.802V54.4524H475.198C475.873 54.4524 476.533 54.2617 477.178 53.8804C477.852 53.4698 478.41 52.8685 478.85 52.0765L489.101 29.5937C490.656 26.3086 491.492 24.1234 491.609 23.0381H492.005L505.952 52.0325C506.891 53.6457 508.123 54.4524 509.648 54.4524ZM485.273 45.3889H492.797L489.101 36.5894L485.273 45.3889Z" fill="url(#paint15_linear_1304_204)"/>
<path d="M114.201 44.2158C114.201 42.9647 114.41 41.6954 114.821 40.4092C113.94 42.4119 113.5 44.5009 113.5 46.6799C113.5 47.6788 113.666 48.7636 114.006 49.9368L114.135 50.34C115.464 54.3372 118.128 57.1824 122.162 58.8943L122.57 59.0622L122.573 59.0632L123.019 59.236C125.265 60.0716 127.789 60.4934 130.599 60.4935V60.9933L130.03 60.9875C127.207 60.9301 124.659 60.4435 122.386 59.5269C117.991 57.7841 115.083 54.7746 113.661 50.4992L113.528 50.0823C113.22 49.0215 113.046 48.0203 113.008 47.0792L113 46.6799C113 43.2774 114.037 40.0894 116.109 37.1171L116.637 37.5282L116.402 37.9597C115.268 40.1137 114.701 42.1993 114.701 44.2158L114.709 44.7107C114.787 47.167 115.449 49.3484 116.695 51.2548C118.025 53.2885 119.805 54.8733 122.034 56.0074C124.124 57.0707 126.249 57.6349 128.407 57.7013L128.839 57.7081C131.039 57.7081 132.912 57.3819 134.459 56.7289L134.764 56.5932C136.267 55.8965 137.393 54.9768 138.14 53.8332L138.284 53.6018C138.981 52.4285 139.351 51.2035 139.395 49.9271L139.398 49.6713C139.398 48.388 138.969 47.0877 138.109 45.77L137.932 45.5064C137.015 44.1497 135.686 42.9647 133.944 41.9517L133.591 41.7516L124.028 36.1204C119.331 33.3547 116.909 29.818 116.762 25.511L116.755 25.0912C116.755 21.1888 118.076 18.149 120.719 15.9717L120.979 15.7637C123.325 13.9258 126.512 13.0067 130.54 13.0067L131.541 13.0154C133.609 13.0521 136.073 13.1991 138.933 13.4557L140.396 13.5934H144.972L143.739 23.1552H143.153C143.153 21.1387 142.414 19.4835 140.936 18.1888L140.631 17.934C139.054 16.6874 137.065 16.0251 134.663 15.9472L134.178 15.9394C131.557 15.9394 129.543 16.3892 128.135 17.2887L127.879 17.4615C126.635 18.3391 125.958 19.4745 125.848 20.8678L125.83 21.0562C125.766 21.9912 126.046 22.7891 126.669 23.4491C127.255 24.0746 127.842 24.5635 128.429 24.9155C129.015 25.2283 129.543 25.5214 130.013 25.7951C130.482 26.0688 130.814 26.2451 131.01 26.3233L141.979 32.5998C144.443 33.9686 146.36 35.6703 147.729 37.7039C149.293 40.0113 150.075 42.4167 150.075 44.9197L150.071 45.236C150.028 46.8264 149.658 48.52 148.961 50.3166L148.816 50.6671C148.067 52.411 146.922 54.0346 145.382 55.5378L145.068 55.8346C143.473 57.3034 141.467 58.5151 139.047 59.4684L138.56 59.6529C136.112 60.5465 133.458 60.9933 130.599 60.9933V60.4935C133.593 60.4935 136.346 59.9943 138.863 59.0027C141.395 58.0053 143.447 56.7278 145.033 55.1795C146.631 53.6196 147.78 51.938 148.494 50.136L148.749 49.4409C149.303 47.8327 149.575 46.3266 149.575 44.9197C149.575 42.5279 148.829 40.2185 147.314 37.9841L147.313 37.9831C145.995 36.0242 144.142 34.3734 141.737 33.0372L141.731 33.0343L130.78 26.7675C130.546 26.6681 130.2 26.4827 129.761 26.2266C129.298 25.9567 128.775 25.6672 128.193 25.3567L128.182 25.3509L128.171 25.344C127.536 24.9631 126.914 24.442 126.304 23.7908C125.532 22.973 125.218 21.9631 125.351 20.8102C125.487 19.1559 126.35 17.8366 127.866 16.8679L128.158 16.6912C129.655 15.84 131.678 15.4396 134.178 15.4396C136.885 15.4396 139.152 16.1286 140.94 17.5425L141.269 17.8149C142.406 18.812 143.136 20.0171 143.459 21.4155L144.403 14.0933H140.371L140.347 14.0903C136.366 13.7001 133.099 13.5065 130.54 13.5065C126.585 13.5066 123.518 14.4087 121.286 16.1571L121.285 16.1581C118.608 18.2404 117.255 21.1946 117.255 25.0912C117.255 29.3654 119.541 32.8976 124.282 35.6888L133.845 41.3211C135.808 42.4045 137.317 43.7022 138.347 45.2262C139.366 46.695 139.898 48.1791 139.898 49.6713C139.898 51.0441 139.548 52.3581 138.856 53.6077L138.714 53.8566C137.959 55.1273 136.805 56.1369 135.283 56.8978L134.975 57.0472C133.287 57.829 131.235 58.208 128.839 58.208C126.596 58.2079 124.394 57.6905 122.238 56.6645L121.808 56.4526C119.647 55.3533 117.889 53.8412 116.541 51.9187L116.277 51.5292C114.889 49.4066 114.201 46.9627 114.201 44.2158ZM371.87 44.2158C371.87 42.9634 372.08 41.6928 372.492 40.4053C371.61 42.4092 371.169 44.4995 371.169 46.6799C371.169 47.6788 371.336 48.7636 371.676 49.9368L371.804 50.34C373.133 54.3374 375.797 57.1825 379.832 58.8943L380.24 59.0622L380.242 59.0632L380.688 59.236C382.934 60.0715 385.459 60.4935 388.269 60.4935V60.9933L387.7 60.9875C384.877 60.9302 382.329 60.4435 380.056 59.5269C375.661 57.7841 372.752 54.7747 371.33 50.4992L371.197 50.0823C370.889 49.0215 370.716 48.0202 370.678 47.0792L370.669 46.6799C370.669 43.2774 371.706 40.0894 373.778 37.1171L374.307 37.5282L374.072 37.9597C372.938 40.1138 372.37 42.1992 372.37 44.2158L372.378 44.7107C372.456 47.1671 373.119 49.3484 374.365 51.2548C375.695 53.2885 377.474 54.8733 379.703 56.0074C381.793 57.0707 383.918 57.6348 386.076 57.7013L386.509 57.7081C388.709 57.7081 390.582 57.382 392.129 56.7289L392.434 56.5932C393.937 55.8966 395.062 54.9766 395.809 53.8332L395.953 53.6018C396.65 52.4285 397.02 51.2035 397.063 49.9271L397.067 49.6713C397.067 48.3881 396.639 47.0876 395.779 45.77L395.602 45.5064C394.685 44.1498 393.356 42.9646 391.614 41.9517L391.26 41.7516L381.698 36.1204C377 33.3547 374.578 29.8181 374.431 25.511L374.424 25.0912C374.424 21.1889 375.745 18.1489 378.388 15.9717L378.647 15.7637C380.994 13.9256 384.182 13.0067 388.21 13.0067L389.211 13.0154C391.279 13.0521 393.743 13.1991 396.603 13.4557L398.065 13.5934H402.641L401.409 23.1552H400.822C400.822 21.1389 400.083 19.4834 398.605 18.1888L398.3 17.934C396.723 16.6876 394.734 16.0252 392.333 15.9472L391.847 15.9394C389.227 15.9395 387.213 16.3893 385.805 17.2887L385.548 17.4615C384.304 18.3391 383.627 19.4746 383.517 20.8678L383.499 21.0562C383.435 21.9912 383.715 22.7891 384.338 23.4491C384.924 24.0747 385.511 24.5635 386.098 24.9155C386.684 25.2283 387.212 25.5214 387.682 25.7951C388.151 26.0687 388.483 26.245 388.679 26.3233L399.649 32.5998C402.113 33.9687 404.03 35.6703 405.398 37.7039C406.963 40.0113 407.744 42.4167 407.744 44.9197L407.74 45.236C407.697 46.8264 407.327 48.5199 406.63 50.3166L406.485 50.6671C405.736 52.4109 404.592 54.0346 403.052 55.5378L402.738 55.8346C401.143 57.3036 399.136 58.515 396.716 59.4684L396.229 59.6529C393.782 60.5466 391.128 60.9933 388.269 60.9933V60.4935C391.262 60.4935 394.015 59.9943 396.532 59.0027C399.064 58.0053 401.116 56.7279 402.702 55.1795C404.301 53.6186 405.451 51.9363 406.165 50.1331C406.89 48.2631 407.244 46.5267 407.244 44.9197C407.244 42.5279 406.499 40.2185 404.984 37.9841L404.983 37.9831C403.665 36.0241 401.811 34.3735 399.406 33.0372L399.4 33.0343L388.449 26.7675C388.215 26.6681 387.869 26.4826 387.43 26.2266C386.967 25.9567 386.444 25.6672 385.862 25.3567L385.852 25.3509L385.841 25.344C385.206 24.9631 384.583 24.4421 383.973 23.7908C383.201 22.973 382.887 21.9631 383.02 20.8102C383.156 19.156 384.019 17.8366 385.535 16.8679L385.828 16.6912C387.325 15.8402 389.348 15.4396 391.847 15.4396C394.554 15.4396 396.822 16.1285 398.61 17.5425L398.938 17.8149C400.074 18.8116 400.805 20.0157 401.129 21.4135L402.072 14.0933H398.041L398.017 14.0903C394.036 13.7001 390.769 13.5065 388.21 13.5065C384.255 13.5065 381.188 14.4087 378.956 16.1571L378.955 16.1581C376.278 18.2404 374.924 21.1946 374.924 25.0912C374.924 29.3656 377.211 32.8976 381.952 35.6888L391.502 41.3142L391.865 41.5202C393.657 42.5624 395.048 43.7946 396.016 45.2262C397.035 46.6951 397.567 48.1791 397.567 49.6713C397.567 51.044 397.218 52.3582 396.526 53.6077L396.383 53.8566C395.628 55.1272 394.475 56.1369 392.953 56.8978L392.644 57.0472C390.956 57.829 388.905 58.2079 386.509 58.208C384.266 58.208 382.063 57.6906 379.907 56.6645L379.477 56.4526C377.316 55.3534 375.558 53.8411 374.211 51.9187L373.946 51.5292C372.558 49.4066 371.87 46.9627 371.87 44.2158ZM320.185 43.5851V26.5898L320.186 26.5771C320.222 25.8558 320.518 25.2434 321.062 24.7719C321.134 24.7086 321.208 24.6495 321.284 24.5943H316.267C316.34 24.6494 316.411 24.7085 316.479 24.7719C317.029 25.2485 317.321 25.8786 317.356 26.622L317.357 26.6337V44.0254C317.357 47.0094 316.618 49.4137 315.078 51.1738L315.077 51.1728C313.557 52.9143 311.444 53.7639 308.806 53.7639C306.32 53.7639 304.305 52.9584 302.813 51.3222L302.522 50.9844C301.019 49.1361 300.298 46.6045 300.298 43.4533V26.6337L300.299 26.622C300.33 25.9717 300.556 25.4084 300.98 24.9584L301.175 24.7719C301.244 24.7083 301.316 24.6496 301.389 24.5943H291.188C291.262 24.65 291.334 24.7097 291.403 24.7739C291.404 24.7748 291.406 24.7759 291.407 24.7768C291.41 24.7795 291.413 24.782 291.416 24.7846C291.99 25.2926 292.278 25.9558 292.278 26.7343V43.629C292.278 47.3145 293.533 50.0922 296.004 52.0359C298.488 53.9892 302.3 55.0086 307.529 55.0087V55.5085L306.556 55.4958C301.922 55.3796 298.385 54.4203 295.943 52.6177L295.694 52.4283C293.165 50.4392 291.861 47.6243 291.782 43.9834L291.778 43.629V26.7343C291.778 26.1697 291.599 25.6949 291.239 25.3099L291.074 25.1498C290.634 24.7393 290.091 24.5337 289.446 24.5337H288.743V24.0944H303.834V24.5337H303.13C302.485 24.5337 301.942 24.7392 301.502 25.1498L301.347 25.2982C301.007 25.6574 300.824 26.1066 300.798 26.6454V43.4533L300.807 44.0225C300.889 46.8308 301.59 49.0466 302.91 50.6691C304.23 52.2911 306.04 53.1528 308.339 53.2543L308.806 53.264C311.328 53.264 313.293 52.4579 314.701 50.8448C316.049 49.3049 316.764 47.2106 316.849 44.5623L316.857 44.0254V26.6454C316.832 26.1066 316.649 25.6574 316.309 25.2982L316.153 25.1498C315.713 24.7392 315.171 24.5337 314.525 24.5337H313.821V24.0944H323.721V24.5337H323.017C322.401 24.5338 321.858 24.7392 321.389 25.1498L321.233 25.2982C320.894 25.6541 320.71 26.0885 320.685 26.6015V43.5851L320.672 44.2743C320.536 47.672 319.381 50.3606 317.209 52.3405C314.921 54.4523 311.694 55.5085 307.529 55.5085V55.0087C311.612 55.0087 314.702 53.9746 316.87 51.9734L316.872 51.9714L317.075 51.781C319.135 49.7973 320.185 47.0853 320.185 43.5851ZM441.021 39.4495C441.021 34.5906 442.48 30.7637 445.397 27.9693L445.685 27.7018C448.794 24.886 453.106 23.4784 458.62 23.4784L459.515 23.4881C461.609 23.5331 463.761 23.7351 465.968 24.0944C468.49 24.4757 470.412 24.9449 471.731 25.5022L471.291 33.9051H470.896L470.747 33.3994C469.21 28.4177 466.061 25.8464 461.301 25.6858L460.819 25.6779C454.073 25.6781 450.7 30.4004 450.7 39.8449L450.708 40.6367C450.789 44.5381 451.476 47.5885 452.769 49.7884C454.089 51.9884 456.04 53.1569 458.623 53.2943L459.147 53.308C460.605 53.308 461.882 52.9471 462.979 52.2253L463.195 52.0769C464.295 51.2793 464.88 50.2107 464.948 48.8717L464.955 48.6003L464.999 42.5727C464.999 42.0084 464.842 41.5673 464.528 41.2498L464.384 41.1209C464.003 40.769 463.46 40.5928 462.756 40.5927H462.052V40.1534H476.835V40.5927H476.175C475.442 40.5927 474.884 40.769 474.503 41.1209L474.369 41.2498C474.081 41.5673 473.949 42.0084 473.975 42.5727V49.8324C472.332 51.9149 469.355 53.5133 465.043 54.6279C462.814 55.2145 460.526 55.5085 458.18 55.5085V55.0087C460.484 55.0087 462.729 54.7201 464.916 54.1446H464.918L465.702 53.9318C469.45 52.8691 472.01 51.424 473.475 49.6498V42.5727C473.448 41.8784 473.627 41.2675 474.084 40.8261L474.18 40.7392C474.213 40.7092 474.247 40.681 474.282 40.6533H464.601C464.631 40.6778 464.662 40.7022 464.691 40.7285C465.251 41.168 465.499 41.8142 465.499 42.5727V42.5766L465.455 48.6042C465.454 50.2269 464.793 51.5357 463.489 52.481L463.487 52.482C462.25 53.3707 460.795 53.8078 459.147 53.8078C456.135 53.8077 453.841 52.5503 452.339 50.0462L452.337 50.0413C450.895 47.586 450.2 44.1697 450.2 39.8449C450.2 35.0782 451.049 31.4132 452.823 28.929C454.62 26.414 457.315 25.1782 460.819 25.1781C463.507 25.1781 465.764 25.8896 467.549 27.3474C468.991 28.525 470.094 30.165 470.877 32.2386L471.212 25.8351C469.961 25.3566 468.195 24.9364 465.893 24.5884L465.887 24.5874C463.389 24.1808 460.967 23.9782 458.62 23.9782C453.19 23.9782 449.012 25.3629 446.021 28.0718C443.036 30.7744 441.521 34.5448 441.521 39.4495C441.521 44.3231 443.021 48.1098 445.979 50.8721L446.262 51.125C449.228 53.6993 453.183 55.0086 458.18 55.0087V55.5085L457.69 55.5046C452.831 55.4212 448.913 54.0867 445.936 51.5028L445.641 51.2402C442.657 48.4555 441.119 44.68 441.025 39.9132L441.021 39.4495ZM181.792 32.3216L181.352 32.2777V31.9692C181.351 29.5936 180.472 27.9219 178.712 26.954C177.861 26.514 176.849 26.2794 175.676 26.25H171.364V51.7244C171.394 52.487 171.672 53.1324 172.2 53.6604C172.757 54.1883 173.417 54.4521 174.18 54.4522H174.752V54.8925H158.957V54.4522H159.528C160.196 54.4522 160.773 54.25 161.261 53.8459L161.465 53.6604C162.022 53.1325 162.315 52.5016 162.345 51.7684V26.25H157.989C156.23 26.2794 154.851 26.8072 153.854 27.8336L153.672 28.0249C152.795 29.0045 152.358 30.3194 152.357 31.9692V32.2777L151.917 32.3216V23.2577C152.328 23.4337 153.061 23.6099 154.117 23.7859C155.067 23.9399 155.949 24.0263 156.764 24.0456L157.109 24.0505H176.6C177.282 24.0505 178.005 24.0001 178.77 23.9011L179.548 23.7859C180.604 23.6099 181.352 23.4337 181.792 23.2577V32.3216ZM264.516 27.2429C264.55 26.3576 264.879 25.5913 265.498 24.9721L265.507 24.9633C265.653 24.8248 265.807 24.7021 265.967 24.5943H255.018C255.175 24.7045 255.327 24.8295 255.47 24.9721C256.115 25.5878 256.461 26.3532 256.495 27.2429L256.496 27.2527V51.6903L256.495 51.7C256.461 52.5927 256.113 53.3708 255.47 54.0138C255.327 54.1566 255.176 54.2823 255.018 54.3926H265.968C265.808 54.2847 265.654 54.1623 265.508 54.0236L265.498 54.0138C264.85 53.3663 264.516 52.5805 264.516 51.6805V27.2429ZM237.385 32.6291V32.1898C237.186 28.4389 235.611 26.5048 232.659 26.3877L232.369 26.3818V25.882C234.048 25.882 235.403 26.4051 236.355 27.5075C237.293 28.5929 237.779 30.1712 237.885 32.1634V32.6291C237.885 32.901 237.822 33.5379 237.706 34.4939L237.705 34.4929C237.61 35.4922 237.328 36.4325 236.858 37.3095L236.856 37.3134C236.397 38.1531 235.809 38.8073 235.083 39.2494C234.467 39.6246 233.771 39.8324 233.008 39.8879C233.171 40.007 233.326 40.1381 233.471 40.2833L233.567 40.3858C233.784 40.6301 233.972 40.9383 234.137 41.2937L234.275 41.5915C234.402 41.8853 234.509 42.2009 234.601 42.5365L234.723 42.9232C234.845 43.3533 234.97 43.9229 235.102 44.6219L235.259 45.3082C235.42 45.9811 235.598 46.6289 235.791 47.252L235.979 47.7724C236.891 50.1559 238.287 51.8682 240.154 52.9497L240.562 53.1713L240.563 53.1723L240.862 53.3168C242.424 54.0163 244.953 54.3926 248.517 54.3926V54.8925L247.814 54.8876C244.367 54.8378 241.873 54.4139 240.333 53.6165C238.133 52.4891 236.527 50.6012 235.513 47.953L235.317 47.4131C235.119 46.7751 234.937 46.112 234.772 45.4244L234.613 44.7293C234.481 44.0255 234.358 43.4697 234.242 43.0628L234.13 42.7054C234.042 42.3756 233.937 42.07 233.816 41.7897L233.689 41.5173C233.557 41.2312 233.417 40.9945 233.269 40.8075L233.117 40.6367C232.765 40.2849 232.355 40.0208 231.886 39.8449V39.4056H232.59L232.903 39.3958C234.448 39.3048 235.62 38.5307 236.417 37.0732C236.802 36.3546 237.052 35.5912 237.168 34.7828L237.209 34.4333C237.297 33.7073 237.352 33.1876 237.374 32.8742L237.385 32.6291ZM277.247 25.7658C277.247 25.5899 277.222 25.4304 277.173 25.2874L277.114 25.1498C276.909 24.71 276.499 24.4898 275.883 24.4898H275.442V24.0944H286.046V24.4898H285.87C283.905 24.4898 282.291 25.2083 281.03 26.6454L273.595 35.6215L283.891 51.1084C285.328 53.2787 286.897 54.3933 288.598 54.4522V54.8925H283.847V54.3926H286.526C285.419 53.8103 284.403 52.7883 283.474 51.3847L272.973 35.5883L280.646 26.3272L280.65 26.3213L280.654 26.3164C281.322 25.5557 282.085 24.982 282.938 24.5943H277.352C277.434 24.6942 277.503 24.8053 277.561 24.9262C277.689 25.1837 277.747 25.4684 277.747 25.7658C277.747 26.144 277.584 26.5087 277.349 26.8446L277.342 26.8534L267.017 40.9354C267.114 41.1014 267.258 41.3413 267.446 41.6559C267.841 42.3137 268.433 43.2936 269.223 44.5955C270.633 46.8521 271.757 48.5602 272.597 49.726L272.939 50.1926L272.943 50.1975C274.951 52.9479 278.528 54.3926 283.847 54.3926V54.8925L283.345 54.8876C278.215 54.7987 274.613 53.3338 272.539 50.4923C271.879 49.6125 271.013 48.3369 269.94 46.6653L268.799 44.8611C267.611 42.9032 266.869 41.6708 266.572 41.1649L266.423 40.9013L276.938 26.5576C277.118 26.3011 277.22 26.0673 277.242 25.8556L277.247 25.7658ZM328.872 27.3054C328.843 26.2204 328.373 25.4141 327.464 24.8862C327.024 24.6515 326.554 24.5337 326.056 24.5337H325.484V24.0944H342.688L343.22 24.0983C348.662 24.1959 352.137 25.8081 353.643 28.9339C354.112 29.9605 354.347 31.0313 354.347 32.1459L354.341 32.5471C354.315 33.4711 354.199 34.3051 353.994 35.0494L353.9 35.3579C353.666 36.0764 353.331 36.795 352.895 37.5135L352.682 37.8357C351.573 39.4063 349.781 40.3845 347.307 40.7695C348.451 41.0921 349.477 41.6636 350.387 42.4848C351.355 43.306 352.264 44.4501 353.114 45.9165C355.314 49.6709 357.002 52.0909 358.175 53.1762C359.055 53.9974 360.169 54.4229 361.519 54.4522V54.8925H356.019V54.3926H359.066C358.62 54.1739 358.207 53.8916 357.833 53.5423C356.598 52.3987 354.878 49.9152 352.684 46.1693L352.682 46.1674C351.851 44.7349 350.976 43.6408 350.063 42.8665L350.058 42.8607L350.052 42.8558C349.198 42.0844 348.238 41.5509 347.171 41.2498L347.23 40.2755C349.771 39.8802 351.481 38.8519 352.469 37.2509C352.946 36.464 353.293 35.6842 353.514 34.9117C353.733 34.1141 353.847 33.1939 353.847 32.1459C353.847 31.1039 353.627 30.104 353.188 29.1418C351.757 26.1852 348.365 24.5943 342.688 24.5943H327.938C328.858 25.2146 329.341 26.1319 329.372 27.2927V51.7439C329.338 52.6378 328.987 53.4064 328.336 54.0236L328.335 54.0226C328.195 54.1612 328.049 54.2849 327.895 54.3926H338.888C338.728 54.2847 338.574 54.1623 338.428 54.0236L338.418 54.0138C337.77 53.3663 337.436 52.5805 337.436 51.6805V25.882H339.871V26.3818H337.936V51.6805L337.948 51.9617C338.009 52.6065 338.284 53.1728 338.771 53.6604C339.329 54.1883 339.989 54.4521 340.751 54.4522H341.279V54.8925H325.484V54.4522H326.056C326.723 54.4522 327.3 54.25 327.788 53.8459L327.992 53.6604C328.549 53.1325 328.843 52.487 328.872 51.7244V27.3054ZM344.887 32.6291V32.1898C344.688 28.4389 343.113 26.5048 340.161 26.3877L339.871 26.3818V25.882C341.55 25.882 342.905 26.4051 343.857 27.5075C344.795 28.5929 345.281 30.1712 345.387 32.1634V32.6291C345.387 32.8996 345.323 33.5312 345.208 34.4792L345.209 34.4802C345.115 35.4842 344.832 36.4288 344.36 37.3095L344.357 37.3134C343.898 38.153 343.31 38.8073 342.584 39.2494C341.968 39.6244 341.273 39.8325 340.51 39.8879C340.673 40.007 340.827 40.1381 340.973 40.2833L341.069 40.3858C341.286 40.6301 341.473 40.9383 341.639 41.2937L341.777 41.5915C341.904 41.8853 342.011 42.2009 342.103 42.5365L342.224 42.9232C342.346 43.3533 342.472 43.9228 342.604 44.6219L342.761 45.3082C342.922 45.9811 343.1 46.6289 343.293 47.252L343.48 47.7724C344.392 50.1556 345.788 51.8682 347.655 52.9497L348.063 53.1713L348.064 53.1723L348.364 53.3168C349.926 54.0163 352.455 54.3926 356.019 54.3926V54.8925L355.316 54.8876C351.869 54.8378 349.375 54.4139 347.835 53.6165C345.635 52.4891 344.028 50.6013 343.014 47.953L342.819 47.4131C342.621 46.7751 342.439 46.112 342.274 45.4244L342.115 44.7293C341.983 44.0255 341.86 43.4697 341.744 43.0628L341.631 42.7054C341.543 42.3755 341.438 42.0701 341.317 41.7897L341.191 41.5173C341.059 41.2313 340.919 40.9945 340.771 40.8075L340.619 40.6367C340.267 40.2849 339.857 40.0208 339.388 39.8449V39.4056H340.092L340.405 39.3958C341.95 39.3047 343.121 38.5307 343.919 37.0732C344.304 36.3546 344.554 35.5912 344.67 34.7828L344.711 34.4333C344.799 33.7073 344.854 33.1876 344.876 32.8742L344.887 32.6291ZM414.454 52.6041C414.454 52.2788 414.553 51.9033 414.708 51.5009L414.711 51.4921L414.715 51.4833L416.604 47.089H426.683L426.811 47.3955L428.526 51.4872L428.532 51.5009C428.697 51.9303 428.785 52.3584 428.785 52.7808C428.785 53.2659 428.546 53.7414 428.194 54.1896L428.189 54.1964L428.184 54.2032C428.126 54.2715 428.064 54.3344 428 54.3926H440.145C439.367 53.9439 438.701 53.2333 438.148 52.2838L438.139 52.2672L438.13 52.2487L424.547 24.0095C424.418 24.4834 424.231 25.0387 423.99 25.6692C423.566 26.7783 422.962 28.1591 422.182 29.8077L411.934 52.2838L411.916 52.319C411.44 53.1754 410.825 53.8457 410.066 54.3077L410.061 54.3106C410.012 54.3396 409.961 54.3656 409.912 54.3926H415.255C414.981 54.1611 414.762 53.8989 414.629 53.5989L414.616 53.5706L414.607 53.5403C414.509 53.2138 414.454 52.8995 414.454 52.6041ZM481.825 52.6041C481.825 52.2788 481.924 51.9033 482.079 51.5009L482.082 51.4921L482.086 51.4833L483.846 47.3916L483.977 47.089H494.054L494.182 47.3955L495.897 51.4872L495.903 51.5009C496.069 51.9303 496.157 52.3584 496.157 52.7808C496.157 53.2659 495.919 53.7414 495.566 54.1896L495.555 54.2032C495.497 54.2715 495.435 54.3344 495.371 54.3926H507.516C506.739 53.944 506.073 53.2332 505.521 52.2838L505.51 52.2672L505.502 52.2487L491.918 24.0095C491.789 24.4834 491.602 25.0387 491.361 25.6692C490.937 26.7783 490.333 28.1591 489.553 29.8077L479.305 52.2838L479.297 52.3014L479.287 52.319C478.811 53.1754 478.196 53.8457 477.438 54.3077L477.433 54.3106C477.384 54.3396 477.333 54.3655 477.283 54.3926H482.626C482.352 54.1611 482.134 53.8989 482.001 53.5989L481.987 53.5706L481.979 53.5403C481.881 53.2138 481.825 52.8995 481.825 52.6041ZM426.178 45.8891H417.14L421.738 35.3178L426.178 45.8891ZM493.549 45.8891H484.511L489.109 35.3178L493.549 45.8891ZM417.902 45.3893H425.426L421.729 36.589L417.902 45.3893ZM485.273 45.3893H492.797L489.102 36.589L485.273 45.3893ZM209.908 26.3818C209.908 26.1252 209.829 25.8575 209.672 25.5784L209.6 25.4583C209.218 24.8424 208.72 24.5338 208.104 24.5337H207.576V24.0944H235.186L235.718 24.0983C241.16 24.1959 244.635 25.8081 246.141 28.9339C246.61 29.9605 246.845 31.0313 246.845 32.1459L246.839 32.5471C246.813 33.471 246.698 34.3051 246.493 35.0494L246.398 35.3579C246.164 36.0763 245.829 36.795 245.393 37.5135L245.181 37.8357C244.072 39.4065 242.28 40.3845 239.805 40.7695C240.949 41.0921 241.976 41.6636 242.885 42.4848C243.853 43.306 244.762 44.4501 245.612 45.9165C247.812 49.6709 249.5 52.0909 250.673 53.1762C251.452 53.9033 252.415 54.3195 253.562 54.4258C254.07 54.3621 254.52 54.1709 254.912 53.8459L255.116 53.6604C255.673 53.1031 255.967 52.443 255.996 51.6805V27.2615C255.97 26.5944 255.742 26.0171 255.312 25.5295L255.116 25.3255C254.588 24.7976 253.942 24.5337 253.18 24.5337H252.608V24.0944H268.403V24.5337H267.831C267.069 24.5338 266.409 24.7978 265.852 25.3255C265.324 25.8534 265.045 26.499 265.016 27.2615V51.6805L265.028 51.9617C265.089 52.6065 265.364 53.1728 265.852 53.6604C266.409 54.1883 267.069 54.4521 267.831 54.4522H268.403V54.8925H248.517V54.3926H251.564C251.118 54.1739 250.705 53.8916 250.331 53.5423C249.096 52.3987 247.376 49.9151 245.182 46.1693L245.181 46.1674C244.35 44.7347 243.474 43.6408 242.562 42.8665L242.556 42.8607L242.55 42.8558C241.696 42.0845 240.736 41.5509 239.669 41.2498L239.729 40.2755C242.11 39.905 243.763 38.9782 244.773 37.5448L244.967 37.2509C245.444 36.464 245.791 35.6842 246.012 34.9117C246.231 34.1141 246.345 33.1939 246.345 32.1459C246.345 31.1039 246.125 30.1041 245.686 29.1418C244.255 26.1852 240.863 24.5943 235.186 24.5943H220.437C221.356 25.2146 221.839 26.1318 221.87 27.2927V51.7439C221.836 52.6378 221.485 53.4064 220.834 54.0236L220.833 54.0226C220.693 54.1612 220.547 54.2849 220.393 54.3926H231.386C231.226 54.2847 231.072 54.1623 230.926 54.0236L230.916 54.0138C230.268 53.3663 229.934 52.5805 229.934 51.6805V25.882H232.369V26.3818H230.434V51.6805L230.446 51.9617C230.507 52.6065 230.782 53.1728 231.27 53.6604C231.827 54.1883 232.487 54.4521 233.249 54.4522H233.777V54.8925H217.982V54.4522H218.555C219.317 54.4521 219.962 54.1883 220.49 53.6604C221.048 53.1324 221.341 52.487 221.37 51.7244V27.3054C221.341 26.2204 220.871 25.4141 219.962 24.8862C219.522 24.6516 219.053 24.5338 218.555 24.5337H217.916C217.036 24.5337 216.185 24.7831 215.364 25.2816C214.572 25.7802 213.941 26.3964 213.472 27.1297L204.849 40.7255V51.6805L204.86 51.9617C204.918 52.6065 205.179 53.1728 205.641 53.6604C206.198 54.1882 206.872 54.4522 207.664 54.4522H208.192V54.8925H192.441V54.4522H193.013C193.775 54.4522 194.421 54.1884 194.949 53.6604C195.506 53.1325 195.8 52.487 195.829 51.7244V40.7255L187.426 27.0418C186.738 25.9693 185.805 25.2317 184.628 24.8295L184.39 24.7544C183.95 24.6077 183.509 24.5337 183.069 24.5337H182.453V24.0944H199.437V24.5337H198.908C198.263 24.5339 197.765 24.8279 197.413 25.4143L197.341 25.5354C197.184 25.8176 197.105 26.0996 197.104 26.3818L197.109 26.4922C197.129 26.7487 197.215 27.005 197.369 27.2615L203.396 38.1296L209.645 27.2615C209.798 27.0051 209.885 26.7486 209.904 26.4922L209.908 26.3818ZM414.963 52.7857C414.979 52.9727 415.02 53.1767 415.086 53.3968C415.203 53.6607 415.424 53.9101 415.746 54.1446L415.879 54.2169C416.19 54.374 416.512 54.4521 416.846 54.4522H417.242V54.8925H407.431V54.4522H407.827C408.417 54.4521 408.996 54.3065 409.563 54.0148L409.807 53.8801C410.481 53.4695 411.039 52.8686 411.479 52.0769L421.729 29.5938C423.284 26.3087 424.12 24.1233 424.237 23.038H424.634L438.581 52.0329C439.52 53.6458 440.751 54.452 442.276 54.4522H442.629V54.8925H425.954V54.4522H426.35C426.914 54.4522 427.355 54.3066 427.673 54.0148L427.802 53.8801C428.084 53.521 428.243 53.1956 428.278 52.9038L428.285 52.7808C428.285 52.4288 428.212 52.0618 428.065 51.6805L426.35 47.5889H416.935L415.174 51.6805C415.027 52.0615 414.954 52.3695 414.954 52.6041L414.963 52.7857ZM482.334 52.7857C482.35 52.9727 482.392 53.1767 482.458 53.3968C482.575 53.6606 482.795 53.9102 483.117 54.1446L483.25 54.2169C483.561 54.3741 483.884 54.4522 484.218 54.4522H484.613V54.8925H474.802V54.4522H475.198C475.788 54.4521 476.368 54.3068 476.936 54.0148L477.178 53.8801C477.852 53.4695 478.41 52.8686 478.85 52.0769L489.102 29.5938C490.656 26.3087 491.492 24.1233 491.609 23.038H492.005L505.952 52.0329C506.891 53.646 508.123 54.4522 509.648 54.4522H510V54.8925H493.325V54.4522H493.721C494.285 54.4522 494.726 54.3065 495.044 54.0148L495.173 53.8801C495.455 53.5209 495.614 53.1956 495.649 52.9038L495.657 52.7808C495.657 52.4288 495.583 52.0618 495.437 51.6805L493.721 47.5889H484.306L482.546 51.6805C482.399 52.0616 482.325 52.3695 482.325 52.6041L482.334 52.7857ZM210.408 26.3818C210.408 26.7799 210.288 27.1613 210.073 27.5192L210.072 27.5183L203.389 39.1459L196.932 27.5046C196.722 27.151 196.604 26.7743 196.604 26.3818C196.605 25.9492 196.744 25.5365 196.989 25.1498C197.119 24.9349 197.268 24.7493 197.436 24.5943H185.378C186.31 25.0252 187.085 25.6759 187.693 26.5439L187.847 26.7724L187.852 26.7802L196.255 40.4639L196.329 40.584V51.7342L196.328 51.7439C196.294 52.6378 195.944 53.4064 195.293 54.0236L195.292 54.0226C195.152 54.1614 195.005 54.2848 194.851 54.3926H205.759C205.598 54.2849 205.443 54.1624 205.297 54.0236L205.286 54.0138L205.277 54.0041C204.662 53.3546 204.349 52.5719 204.349 51.6805V40.5801L204.426 40.457L213.05 26.8622L213.051 26.8602L213.251 26.5664C213.737 25.8958 214.355 25.3267 215.098 24.8588L215.104 24.8549L215.441 24.6636C215.488 24.6389 215.537 24.6175 215.584 24.5943H209.536C209.718 24.7613 209.882 24.9624 210.025 25.1947C210.265 25.5722 210.408 25.9703 210.408 26.3818ZM162.845 51.7889C162.81 52.6587 162.456 53.4106 161.809 54.0236L161.808 54.0226C161.668 54.1612 161.521 54.2849 161.367 54.3926H172.316C172.157 54.2847 172.003 54.1623 171.856 54.0236L171.847 54.0138C171.228 53.3947 170.898 52.6292 170.864 51.7439V25.7502H175.688L176.144 25.7717C177.041 25.8355 177.857 26.0223 178.585 26.3399L178.941 26.5097L178.953 26.5156L179.307 26.7265C180.213 27.3075 180.872 28.0807 181.292 29.0295V23.9401C181.025 24.0101 180.719 24.078 180.374 24.1452L179.63 24.2789C178.551 24.4587 177.541 24.5503 176.6 24.5503H157.109C156.168 24.5503 155.144 24.4593 154.037 24.2799L154.035 24.2789C153.393 24.1718 152.85 24.0611 152.417 23.946V29.0627C152.681 28.4695 153.04 27.9398 153.5 27.4802C154.609 26.3416 156.124 25.7811 157.98 25.7502H162.845V51.7889Z" fill="white" fill-opacity="0.5"/>
<defs>
<linearGradient id="paint0_linear_1304_204" x1="44.5" y1="0.405029" x2="44.5" y2="72.595" gradientUnits="userSpaceOnUse">
<stop stop-color="#C3A869"/>
<stop offset="1" stop-color="#BF9535"/>
</linearGradient>
<linearGradient id="paint1_linear_1304_204" x1="44.5" y1="0.405029" x2="44.5" y2="72.595" gradientUnits="userSpaceOnUse">
<stop stop-color="#C3A869"/>
<stop offset="1" stop-color="#BF9535"/>
</linearGradient>
<linearGradient id="paint2_linear_1304_204" x1="44.5" y1="0.405029" x2="44.5" y2="72.595" gradientUnits="userSpaceOnUse">
<stop stop-color="#C3A869"/>
<stop offset="1" stop-color="#BF9535"/>
</linearGradient>
<linearGradient id="paint3_linear_1304_204" x1="44.5" y1="0.405029" x2="44.5" y2="72.595" gradientUnits="userSpaceOnUse">
<stop stop-color="#C3A869"/>
<stop offset="1" stop-color="#BF9535"/>
</linearGradient>
<linearGradient id="paint4_linear_1304_204" x1="44.5" y1="0.405029" x2="44.5" y2="72.595" gradientUnits="userSpaceOnUse">
<stop stop-color="#C3A869"/>
<stop offset="1" stop-color="#BF9535"/>
</linearGradient>
<linearGradient id="paint5_linear_1304_204" x1="310.152" y1="11.8114" x2="310.152" y2="63.1419" gradientUnits="userSpaceOnUse">
<stop stop-color="#C3A869"/>
<stop offset="1" stop-color="#BF9535"/>
</linearGradient>
<linearGradient id="paint6_linear_1304_204" x1="310.152" y1="11.8114" x2="310.152" y2="63.1419" gradientUnits="userSpaceOnUse">
<stop stop-color="#C3A869"/>
<stop offset="1" stop-color="#BF9535"/>
</linearGradient>
<linearGradient id="paint7_linear_1304_204" x1="310.152" y1="11.8114" x2="310.152" y2="63.1419" gradientUnits="userSpaceOnUse">
<stop stop-color="#C3A869"/>
<stop offset="1" stop-color="#BF9535"/>
</linearGradient>
<linearGradient id="paint8_linear_1304_204" x1="310.152" y1="11.8114" x2="310.152" y2="63.1419" gradientUnits="userSpaceOnUse">
<stop stop-color="#C3A869"/>
<stop offset="1" stop-color="#BF9535"/>
</linearGradient>
<linearGradient id="paint9_linear_1304_204" x1="310.152" y1="11.8114" x2="310.152" y2="63.1419" gradientUnits="userSpaceOnUse">
<stop stop-color="#C3A869"/>
<stop offset="1" stop-color="#BF9535"/>
</linearGradient>
<linearGradient id="paint10_linear_1304_204" x1="310.152" y1="11.8114" x2="310.152" y2="63.1419" gradientUnits="userSpaceOnUse">
<stop stop-color="#C3A869"/>
<stop offset="1" stop-color="#BF9535"/>
</linearGradient>
<linearGradient id="paint11_linear_1304_204" x1="310.152" y1="11.8114" x2="310.152" y2="63.1419" gradientUnits="userSpaceOnUse">
<stop stop-color="#C3A869"/>
<stop offset="1" stop-color="#BF9535"/>
</linearGradient>
<linearGradient id="paint12_linear_1304_204" x1="310.152" y1="11.8114" x2="310.152" y2="63.1419" gradientUnits="userSpaceOnUse">
<stop stop-color="#C3A869"/>
<stop offset="1" stop-color="#BF9535"/>
</linearGradient>
<linearGradient id="paint13_linear_1304_204" x1="310.152" y1="11.8114" x2="310.152" y2="63.1419" gradientUnits="userSpaceOnUse">
<stop stop-color="#C3A869"/>
<stop offset="1" stop-color="#BF9535"/>
</linearGradient>
<linearGradient id="paint14_linear_1304_204" x1="310.152" y1="11.8114" x2="310.152" y2="63.1419" gradientUnits="userSpaceOnUse">
<stop stop-color="#C3A869"/>
<stop offset="1" stop-color="#BF9535"/>
</linearGradient>
<linearGradient id="paint15_linear_1304_204" x1="310.152" y1="11.8114" x2="310.152" y2="63.1419" gradientUnits="userSpaceOnUse">
<stop stop-color="#C3A869"/>
<stop offset="1" stop-color="#BF9535"/>
</linearGradient>
</defs>
</svg>
