<svg width="413" height="56" viewBox="0 0 413 56" fill="none" xmlns="http://www.w3.org/2000/svg">
<path d="M45.0753 35.9196C45.0753 37.6012 44.7037 39.4003 43.9607 41.3166C43.2176 43.1938 42.0248 44.9342 40.3822 46.5376C38.7396 48.1411 36.6278 49.4513 34.0466 50.4681C31.4654 51.4849 28.6495 51.9933 25.599 51.9933C22.5485 51.9933 19.8109 51.5045 17.3861 50.5268C12.8495 48.7277 9.89678 45.5795 8.52797 41.0819C8.17599 39.8696 8 38.7354 8 37.6795C8 34.277 9.03639 31.0896 11.1092 28.1173L11.6371 28.528C10.3465 30.8354 9.70124 33.0646 9.70124 35.2156C9.70124 37.875 10.3661 40.2215 11.6958 42.2552C13.0255 44.2889 14.805 45.8728 17.0342 47.0069C19.2634 48.1411 21.5317 48.7082 23.8391 48.7082C26.1857 48.7082 28.1607 48.3366 29.7641 47.5936C31.3676 46.8505 32.5409 45.8532 33.2839 44.6017C34.027 43.3503 34.3985 42.0401 34.3985 40.6713C34.3985 39.3025 33.9097 37.9141 32.932 36.5062C31.9542 35.0592 30.5072 33.8077 28.5909 32.7517L19.0287 27.12C14.1792 24.2651 11.7545 20.5888 11.7545 16.0913C11.7545 12.0631 13.1624 8.95394 15.9782 6.76383C18.3248 4.92571 21.5121 4.00665 25.5404 4.00665C28.1216 4.00665 31.4067 4.2022 35.3958 4.59329H39.9716L38.7396 14.1554H38.153C38.153 12.0044 37.3122 10.2641 35.6305 8.93438C33.9488 7.60468 31.7978 6.93982 29.1775 6.93982C26.5572 6.93982 24.5431 7.38958 23.1352 8.28908C21.7272 9.18859 20.9646 10.3814 20.8473 11.8676C20.73 12.8844 21.0037 13.7448 21.6686 14.4487C22.2552 15.0745 22.8418 15.5633 23.4285 15.9153C24.0151 16.2282 24.5431 16.5215 25.0124 16.7953C25.4817 17.069 25.8141 17.245 26.0097 17.3233L36.9797 23.6002C39.4436 24.969 41.3599 26.6703 42.7287 28.704C44.2931 31.0114 45.0753 33.4166 45.0753 35.9196Z" fill="url(#paint0_linear_1305_205)"/>
<path d="M66.3641 17.2499V42.7245C66.3935 43.4871 66.6721 44.1324 67.2001 44.6604C67.7574 45.1884 68.4174 45.4524 69.18 45.4524H69.752V45.8923H53.9568V45.4524H54.5288C55.2914 45.4524 55.9367 45.1884 56.4647 44.6604C57.022 44.1324 57.3153 43.5018 57.3446 42.7685V17.2499H52.9889C51.229 17.2793 49.8504 17.8072 48.8531 18.8338C47.8558 19.8311 47.3572 21.2097 47.3572 22.9696V23.2776L46.9172 23.3216V14.2581C47.3279 14.4341 48.0612 14.6101 49.1171 14.7861C50.2024 14.962 51.1997 15.05 52.1089 15.05H71.5999C72.5091 15.05 73.4918 14.962 74.5477 14.7861C75.6036 14.6101 76.3516 14.4341 76.7916 14.2581V23.3216L76.3516 23.2776V22.9696C76.3516 20.5937 75.4716 18.9218 73.7117 17.9539C72.8611 17.5139 71.8492 17.2793 70.6759 17.2499H66.3641Z" fill="url(#paint1_linear_1305_205)"/>
<path d="M113.532 15.534H112.916C112.036 15.534 111.185 15.7833 110.364 16.282C109.572 16.7806 108.941 17.3966 108.472 18.1299L99.8484 31.7251V42.6805C99.8484 43.4431 100.112 44.1031 100.64 44.6604C101.198 45.1884 101.872 45.4524 102.664 45.4524H103.192V45.8923H87.441V45.4524H88.013C88.7756 45.4524 89.4209 45.1884 89.9489 44.6604C90.5062 44.1324 90.7995 43.4871 90.8289 42.7245V31.7251L82.4253 18.0419C81.692 16.8979 80.6801 16.1353 79.3895 15.754C78.9495 15.6073 78.5095 15.534 78.0696 15.534H77.4536V15.094H94.4367V15.534H93.9087C93.2634 15.534 92.7647 15.8273 92.4128 16.414C92.2074 16.7366 92.1048 17.0593 92.1048 17.3819C92.1048 17.6752 92.1928 17.9685 92.3688 18.2619L98.3964 29.1293L104.644 18.2619C104.82 17.9685 104.908 17.6752 104.908 17.3819C104.908 17.0886 104.805 16.7806 104.6 16.458C104.219 15.842 103.72 15.534 103.104 15.534H102.576V15.094H113.532V15.534Z" fill="url(#paint2_linear_1305_205)"/>
<path d="M141.141 19.9338C141.61 20.9604 141.845 22.031 141.845 23.1456C141.845 24.2309 141.727 25.1988 141.493 26.0494C141.258 26.8707 140.891 27.692 140.393 28.5133C139.308 30.2732 137.445 31.3585 134.805 31.7691C135.949 32.0918 136.976 32.6637 137.885 33.485C138.853 34.3063 139.762 35.4502 140.613 36.9168C142.813 40.6713 144.499 43.0912 145.673 44.1764C146.552 44.9977 147.667 45.423 149.016 45.4524V45.8923H143.517C139.704 45.8923 136.976 45.467 135.333 44.6164C132.987 43.4138 131.315 41.3459 130.317 38.4128C130.053 37.5621 129.819 36.6675 129.613 35.7289C129.437 34.7903 129.276 34.1157 129.129 33.705C129.012 33.265 128.865 32.8691 128.689 32.5171C128.513 32.1358 128.323 31.8424 128.117 31.6371C127.765 31.2851 127.355 31.0212 126.886 30.8452V30.4052H127.59C129.291 30.4052 130.567 29.6279 131.417 28.0733C131.857 27.252 132.121 26.3721 132.209 25.4335C132.327 24.4655 132.385 23.8642 132.385 23.6296C132.385 23.3949 132.385 23.2483 132.385 23.1896C132.18 19.3178 130.508 17.3819 127.37 17.3819H125.434V42.6805C125.434 43.4431 125.712 44.1031 126.27 44.6604C126.827 45.1884 127.487 45.4524 128.249 45.4524H128.777V45.8923H112.982V45.4524H113.554C114.317 45.4524 114.962 45.1884 115.49 44.6604C116.047 44.1324 116.341 43.4871 116.37 42.7245V18.3059C116.341 17.2206 115.871 16.414 114.962 15.886C114.522 15.6513 114.053 15.534 113.554 15.534H112.982V15.094H130.185C135.934 15.094 139.586 16.7073 141.141 19.9338Z" fill="url(#paint3_linear_1305_205)"/>
<path d="M148.18 45.4524C148.943 45.4524 149.588 45.1884 150.116 44.6604C150.673 44.1031 150.967 43.4431 150.996 42.6805V18.2619C150.967 17.4992 150.673 16.8539 150.116 16.326C149.588 15.798 148.943 15.534 148.18 15.534H147.608V15.094H163.403V15.534H162.831C162.069 15.534 161.409 15.798 160.851 16.326C160.323 16.8539 160.045 17.4992 160.015 18.2619V42.6805C160.015 43.4431 160.294 44.1031 160.851 44.6604C161.409 45.1884 162.069 45.4524 162.831 45.4524H163.403V45.8923H147.608V45.4524H148.18ZM183.598 45.8923H178.846C173.449 45.8923 169.68 44.4258 167.539 41.4926C166.659 40.3193 165.412 38.4421 163.799 35.8609C162.215 33.2504 161.423 31.9304 161.423 31.9011L171.939 17.5579C172.144 17.2646 172.247 17.0006 172.247 16.7659C172.247 16.5313 172.203 16.326 172.115 16.15C171.909 15.71 171.499 15.49 170.883 15.49H170.443V15.094H181.046V15.49H180.87C178.905 15.49 177.292 16.2086 176.03 17.6459L168.595 26.6214L178.89 42.1086C180.328 44.2791 181.897 45.3937 183.598 45.4524V45.8923Z" fill="url(#paint4_linear_1305_205)"/>
<path d="M218.721 15.534H218.017C217.401 15.534 216.858 15.7393 216.389 16.15C215.949 16.5313 215.714 17.0153 215.685 17.6019V34.585C215.685 38.3101 214.526 41.2286 212.209 43.3405C209.921 45.4524 206.695 46.5083 202.53 46.5083C197.25 46.5083 193.305 45.4817 190.694 43.4285C188.084 41.3753 186.779 38.4421 186.779 34.629V17.7339C186.779 17.0886 186.544 16.5606 186.075 16.15C185.635 15.7393 185.092 15.534 184.447 15.534H183.743V15.094H198.834V15.534H198.13C197.485 15.534 196.942 15.7393 196.502 16.15C196.062 16.5313 195.827 17.0299 195.798 17.6459V34.453C195.798 37.5328 196.502 39.938 197.91 41.6686C199.318 43.3991 201.283 44.2644 203.806 44.2644C206.328 44.2644 208.293 43.4578 209.701 41.8446C211.139 40.202 211.857 37.9288 211.857 35.0249V17.6459C211.828 17.0299 211.593 16.5313 211.153 16.15C210.713 15.7393 210.171 15.534 209.525 15.534H208.821V15.094H218.721V15.534Z" fill="url(#paint5_linear_1305_205)"/>
<path d="M248.643 19.9338C249.112 20.9604 249.347 22.031 249.347 23.1456C249.347 24.2309 249.229 25.1988 248.995 26.0494C248.76 26.8707 248.393 27.692 247.895 28.5133C246.809 30.2732 244.947 31.3585 242.307 31.7691C243.451 32.0918 244.478 32.6637 245.387 33.485C246.355 34.3063 247.264 35.4502 248.115 36.9168C250.315 40.6713 252.001 43.0912 253.174 44.1764C254.054 44.9977 255.169 45.423 256.518 45.4524V45.8923H251.019C247.205 45.8923 244.478 45.467 242.835 44.6164C240.488 43.4138 238.817 41.3459 237.819 38.4128C237.555 37.5621 237.321 36.6675 237.115 35.7289C236.939 34.7903 236.778 34.1157 236.631 33.705C236.514 33.265 236.367 32.8691 236.191 32.5171C236.015 32.1358 235.825 31.8424 235.619 31.6371C235.267 31.2851 234.857 31.0212 234.387 30.8452V30.4052H235.091C236.793 30.4052 238.069 29.6279 238.919 28.0733C239.359 27.252 239.623 26.3721 239.711 25.4335C239.828 24.4655 239.887 23.8642 239.887 23.6296C239.887 23.3949 239.887 23.2483 239.887 23.1896C239.682 19.3178 238.01 17.3819 234.871 17.3819H232.936V42.6805C232.936 43.4431 233.214 44.1031 233.771 44.6604C234.329 45.1884 234.989 45.4524 235.751 45.4524H236.279V45.8923H220.484V45.4524H221.056C221.819 45.4524 222.464 45.1884 222.992 44.6604C223.549 44.1324 223.843 43.4871 223.872 42.7245V18.3059C223.843 17.2206 223.373 16.414 222.464 15.886C222.024 15.6513 221.555 15.534 221.056 15.534H220.484V15.094H237.687C243.436 15.094 247.088 16.7073 248.643 19.9338Z" fill="url(#paint6_linear_1305_205)"/>
<path d="M302.745 35.9196C302.745 37.6012 302.373 39.4003 301.63 41.3166C300.887 43.1938 299.694 44.9342 298.052 46.5376C296.409 48.1411 294.297 49.4513 291.716 50.4681C289.135 51.4849 286.319 51.9933 283.268 51.9933C280.218 51.9933 277.48 51.5045 275.055 50.5268C270.519 48.7277 267.566 45.5795 266.197 41.0819C265.845 39.8696 265.669 38.7354 265.669 37.6795C265.669 34.277 266.706 31.0896 268.779 28.1173L269.306 28.528C268.016 30.8354 267.371 33.0646 267.371 35.2156C267.371 37.875 268.035 40.2215 269.365 42.2552C270.695 44.2889 272.474 45.8728 274.703 47.0069C276.933 48.1411 279.201 48.7082 281.508 48.7082C283.855 48.7082 285.83 48.3366 287.433 47.5936C289.037 46.8505 290.21 45.8532 290.953 44.6017C291.696 43.3503 292.068 42.0401 292.068 40.6713C292.068 39.3025 291.579 37.9141 290.601 36.5062C289.624 35.0592 288.177 33.8077 286.26 32.7517L276.698 27.12C271.849 24.2651 269.424 20.5888 269.424 16.0913C269.424 12.0631 270.832 8.95394 273.648 6.76383C275.994 4.92571 279.181 4.00665 283.21 4.00665C285.791 4.00665 289.076 4.2022 293.065 4.59329H297.641L296.409 14.1554H295.822C295.822 12.0044 294.982 10.2641 293.3 8.93438C291.618 7.60468 289.467 6.93982 286.847 6.93982C284.227 6.93982 282.212 7.38958 280.805 8.28908C279.397 9.18859 278.634 10.3814 278.517 11.8676C278.399 12.8844 278.673 13.7448 279.338 14.4487C279.925 15.0745 280.511 15.5633 281.098 15.9153C281.684 16.2282 282.212 16.5215 282.682 16.7953C283.151 17.069 283.483 17.245 283.679 17.3233L294.649 23.6002C297.113 24.969 299.029 26.6703 300.398 28.704C301.962 31.0114 302.745 33.4166 302.745 35.9196Z" fill="url(#paint7_linear_1305_205)"/>
<path d="M337.277 45.4524H337.629V45.8923H320.954V45.4524H321.35C321.995 45.4524 322.479 45.2617 322.802 44.8804C323.124 44.4698 323.286 44.1031 323.286 43.7805C323.286 43.4285 323.212 43.0618 323.066 42.6805L321.35 38.5887H311.934L310.174 42.6805C310.028 43.0618 309.954 43.3698 309.954 43.6045C309.954 43.8391 309.998 44.1031 310.086 44.3964C310.204 44.6604 310.424 44.9097 310.746 45.1444C311.098 45.3497 311.465 45.4524 311.846 45.4524H312.242V45.8923H302.431V45.4524H302.827C303.501 45.4524 304.161 45.2617 304.807 44.8804C305.481 44.4698 306.039 43.8685 306.478 43.0765L316.73 20.5937C318.284 17.3086 319.12 15.1234 319.238 14.0381H319.634L333.581 43.0325C334.52 44.6457 335.751 45.4524 337.277 45.4524ZM312.902 36.3889H320.426L316.73 27.5894L312.902 36.3889Z" fill="url(#paint8_linear_1305_205)"/>
<path d="M353.18 46.5083C347.929 46.5083 343.75 45.0857 340.641 42.2405C337.561 39.366 336.021 35.4356 336.021 30.4492C336.021 25.4335 337.575 21.5177 340.685 18.7018C343.794 15.886 348.105 14.4781 353.62 14.4781C355.996 14.4781 358.445 14.6834 360.967 15.094C363.49 15.4754 365.411 15.9447 366.731 16.502L366.291 24.9055H365.895C364.37 19.4205 361.011 16.678 355.82 16.678C349.073 16.678 345.7 21.4004 345.7 30.8452C345.7 35.1276 346.39 38.4421 347.768 40.7886C349.176 43.1352 351.303 44.3084 354.148 44.3084C355.702 44.3084 357.052 43.8978 358.196 43.0765C359.369 42.2259 359.955 41.0673 359.955 39.6007L359.999 33.573C359.999 32.9277 359.794 32.4437 359.383 32.1211C359.002 31.7691 358.46 31.5931 357.756 31.5931H357.052V31.1532H371.835V31.5931H371.175C370.442 31.5931 369.884 31.7691 369.503 32.1211C369.122 32.4437 368.946 32.9277 368.975 33.573V40.8326C367.332 42.9152 364.355 44.5138 360.043 45.6284C357.814 46.215 355.526 46.5083 353.18 46.5083Z" fill="url(#paint9_linear_1305_205)"/>
<path d="M404.648 45.4524H405V45.8923H388.325V45.4524H388.721C389.366 45.4524 389.85 45.2617 390.173 44.8804C390.495 44.4698 390.657 44.1031 390.657 43.7805C390.657 43.4285 390.583 43.0618 390.437 42.6805L388.721 38.5887H379.305L377.546 42.6805C377.399 43.0618 377.326 43.3698 377.326 43.6045C377.326 43.8391 377.37 44.1031 377.458 44.3964C377.575 44.6604 377.795 44.9097 378.117 45.1444C378.469 45.3497 378.836 45.4524 379.217 45.4524H379.613V45.8923H369.802V45.4524H370.198C370.873 45.4524 371.533 45.2617 372.178 44.8804C372.852 44.4698 373.41 43.8685 373.85 43.0765L384.101 20.5937C385.656 17.3086 386.492 15.1234 386.609 14.0381H387.005L400.952 43.0325C401.891 44.6457 403.123 45.4524 404.648 45.4524ZM380.273 36.3889H387.797L384.101 27.5894L380.273 36.3889Z" fill="url(#paint10_linear_1305_205)"/>
<path d="M9.20117 35.2158C9.20117 33.9647 9.40956 32.6954 9.82129 31.4092C8.94019 33.4119 8.5 35.5009 8.5 37.6799C8.50005 38.6788 8.66576 39.7636 9.00586 40.9368L9.13477 41.34C10.4636 45.3372 13.1275 48.1824 17.1621 49.8943L17.5703 50.0622L17.5732 50.0632L18.0186 50.236C20.2646 51.0716 22.7891 51.4934 25.5986 51.4935V51.9933L25.0303 51.9875C22.2073 51.9301 19.6588 51.4435 17.3857 50.5269C12.9909 48.7841 10.083 45.7746 8.66113 41.4992L8.52832 41.0823C8.22035 40.0215 8.04632 39.0203 8.00781 38.0792L8 37.6799C8 34.2774 9.0366 31.0894 11.1094 28.1171L11.6367 28.5282L11.4023 28.9597C10.2681 31.1137 9.70117 33.1993 9.70117 35.2158L9.70898 35.7107C9.78692 38.167 10.449 40.3484 11.6953 42.2548C13.025 44.2885 14.805 45.8733 17.0342 47.0074C19.1241 48.0707 21.2486 48.6349 23.4072 48.7013L23.8389 48.7081C26.0386 48.7081 27.9122 48.3819 29.459 47.7289L29.7637 47.5932C31.267 46.8965 32.3926 45.9768 33.1396 44.8332L33.2842 44.6018C33.9808 43.4285 34.351 42.2035 34.3945 40.9271L34.3984 40.6713C34.3984 39.388 33.9687 38.0877 33.1094 36.77L32.9316 36.5064C32.015 35.1497 30.6861 33.9647 28.9443 32.9517L28.5908 32.7516L19.0283 27.1204C14.3306 24.3547 11.9087 20.818 11.7617 16.511L11.7549 16.0912C11.7549 12.1888 13.076 9.14895 15.7188 6.97165L15.9785 6.7637C18.325 4.92576 21.5121 4.0067 25.54 4.00665L26.541 4.01544C28.6089 4.05209 31.0728 4.1991 33.9326 4.45575L35.3955 4.5934H39.9717L38.7393 14.1552H38.1533C38.1533 12.1387 37.4136 10.4835 35.9355 9.18881L35.6309 8.934C34.0542 7.68736 32.0647 7.02512 29.6631 6.94724L29.1777 6.93943C26.5574 6.93943 24.5427 7.38916 23.1348 8.28867L22.8789 8.46147C21.6346 9.33913 20.9576 10.4745 20.8477 11.8678L20.8301 12.0562C20.7659 12.9912 21.0456 13.7891 21.6689 14.4491C22.2555 15.0746 22.8422 15.5635 23.4287 15.9155C24.0153 16.2283 24.5435 16.5214 25.0127 16.7951C25.4819 17.0688 25.8142 17.2451 26.0098 17.3233L36.9795 23.5998C39.4433 24.9686 41.3597 26.6703 42.7285 28.7039C44.2929 31.0113 45.0752 33.4167 45.0752 35.9197L45.0713 36.236C45.0278 37.8264 44.6576 39.52 43.9609 41.3166L43.8164 41.6671C43.0671 43.411 41.9218 45.0346 40.3818 46.5378L40.0684 46.8346C38.4735 48.3034 36.4666 49.5151 34.0469 50.4684L33.5596 50.6529C31.1123 51.5465 28.4584 51.9933 25.5986 51.9933V51.4935C28.5926 51.4935 31.346 50.9943 33.8633 50.0027C36.3951 49.0053 38.4471 47.7278 40.0332 46.1795C41.6311 44.6196 42.7802 42.938 43.4941 41.136L43.749 40.4409C44.3032 38.8327 44.5752 37.3266 44.5752 35.9197C44.5752 33.5279 43.8293 31.2185 42.3145 28.9841L42.3135 28.9831C40.995 27.0242 39.1423 25.3734 36.7373 24.0372L36.7314 24.0343L25.7803 17.7675C25.5459 17.6681 25.1997 17.4827 24.7607 17.2266C24.2981 16.9567 23.7754 16.6672 23.1934 16.3567L23.1816 16.3509L23.1709 16.344C22.5361 15.9631 21.9143 15.442 21.3037 14.7908C20.5323 13.973 20.2175 12.9631 20.3506 11.8102C20.4867 10.1559 21.35 8.83656 22.8662 7.86789L23.1582 7.69118C24.6553 6.83999 26.6785 6.43957 29.1777 6.43957C31.8848 6.43961 34.1522 7.1286 35.9404 8.5425L36.2686 8.81489C37.4057 9.81201 38.1356 11.0171 38.459 12.4155L39.4033 5.09327H35.3711L35.3467 5.09034C31.3662 4.7001 28.0985 4.50651 25.54 4.50651C21.5848 4.50656 18.5182 5.40873 16.2861 7.15715L16.2852 7.15812C13.608 9.24038 12.2549 12.1946 12.2549 16.0912C12.2549 20.3654 14.5411 23.8976 19.2822 26.6888L28.8447 32.3211C30.8075 33.4045 32.3169 34.7022 33.3467 36.2262C34.3656 37.695 34.8984 39.1791 34.8984 40.6713C34.8984 42.0441 34.5478 43.3581 33.8564 44.6077L33.7139 44.8566C32.9594 46.1273 31.8049 47.1369 30.2832 47.8978L29.9746 48.0472C28.2874 48.829 26.2354 49.208 23.8389 49.208C21.5958 49.2079 19.3943 48.6905 17.2383 47.6645L16.8076 47.4526C14.6469 46.3533 12.8885 44.8412 11.541 42.9187L11.2773 42.5292C9.8895 40.4066 9.2012 37.9627 9.20117 35.2158ZM266.87 35.2158C266.87 33.9634 267.08 32.6928 267.492 31.4053C266.61 33.4092 266.169 35.4995 266.169 37.6799C266.169 38.6788 266.336 39.7636 266.676 40.9368L266.804 41.34C268.133 45.3374 270.797 48.1825 274.832 49.8943L275.24 50.0622L275.242 50.0632L275.688 50.236C277.934 51.0715 280.459 51.4935 283.269 51.4935V51.9933L282.7 51.9875C279.877 51.9302 277.329 51.4435 275.056 50.5269C270.661 48.7841 267.752 45.7747 266.33 41.4992L266.197 41.0823C265.889 40.0215 265.716 39.0202 265.678 38.0792L265.669 37.6799C265.669 34.2774 266.706 31.0894 268.778 28.1171L269.307 28.5282L269.072 28.9597C267.938 31.1138 267.37 33.1992 267.37 35.2158L267.378 35.7107C267.456 38.1671 268.119 40.3484 269.365 42.2548C270.695 44.2885 272.474 45.8733 274.703 47.0074C276.793 48.0707 278.918 48.6348 281.076 48.7013L281.509 48.7081C283.709 48.7081 285.582 48.382 287.129 47.7289L287.434 47.5932C288.937 46.8966 290.062 45.9766 290.809 44.8332L290.953 44.6018C291.65 43.4285 292.02 42.2035 292.063 40.9271L292.067 40.6713C292.067 39.3881 291.639 38.0876 290.779 36.77L290.602 36.5064C289.685 35.1498 288.356 33.9646 286.614 32.9517L286.26 32.7516L276.698 27.1204C272 24.3547 269.578 20.8181 269.431 16.511L269.424 16.0912C269.424 12.1889 270.745 9.14894 273.388 6.97165L273.647 6.7637C275.994 4.92558 279.182 4.00665 283.21 4.00665L284.211 4.01544C286.279 4.05211 288.743 4.19909 291.603 4.45575L293.065 4.5934H297.641L296.409 14.1552H295.822C295.822 12.1389 295.083 10.4834 293.605 9.18881L293.3 8.934C291.723 7.68756 289.734 7.0252 287.333 6.94724L286.847 6.93943C284.227 6.93945 282.213 7.38932 280.805 8.28867L280.548 8.46147C279.304 9.3391 278.627 10.4746 278.517 11.8678L278.499 12.0562C278.435 12.9912 278.715 13.7891 279.338 14.4491C279.924 15.0747 280.511 15.5635 281.098 15.9155C281.684 16.2283 282.212 16.5214 282.682 16.7951C283.151 17.0687 283.483 17.245 283.679 17.3233L294.649 23.5998C297.113 24.9687 299.03 26.6703 300.398 28.7039C301.963 31.0113 302.744 33.4167 302.744 35.9197L302.74 36.236C302.697 37.8264 302.327 39.5199 301.63 41.3166L301.485 41.6671C300.736 43.4109 299.592 45.0346 298.052 46.5378L297.738 46.8346C296.143 48.3036 294.136 49.515 291.716 50.4684L291.229 50.6529C288.782 51.5466 286.128 51.9933 283.269 51.9933V51.4935C286.262 51.4935 289.015 50.9943 291.532 50.0027C294.064 49.0053 296.116 47.7279 297.702 46.1795C299.301 44.6186 300.451 42.9363 301.165 41.1331C301.89 39.2631 302.244 37.5267 302.244 35.9197C302.244 33.5279 301.499 31.2185 299.984 28.9841L299.983 28.9831C298.665 27.0241 296.811 25.3735 294.406 24.0372L294.4 24.0343L283.449 17.7675C283.215 17.6681 282.869 17.4826 282.43 17.2266C281.967 16.9567 281.444 16.6672 280.862 16.3567L280.852 16.3509L280.841 16.344C280.206 15.9631 279.583 15.4421 278.973 14.7908C278.201 13.973 277.887 12.9631 278.02 11.8102C278.156 10.156 279.019 8.83655 280.535 7.86789L280.828 7.69118C282.325 6.84018 284.348 6.43959 286.847 6.43957C289.554 6.43957 291.822 7.12854 293.61 8.5425L293.938 8.81489C295.074 9.81164 295.805 11.0157 296.129 12.4135L297.072 5.09327H293.041L293.017 5.09034C289.036 4.70009 285.769 4.50653 283.21 4.50651C279.255 4.50651 276.188 5.40875 273.956 7.15715L273.955 7.15812C271.278 9.24038 269.924 12.1946 269.924 16.0912C269.924 20.3656 272.211 23.8976 276.952 26.6888L286.502 32.3142L286.865 32.5202C288.657 33.5624 290.048 34.7946 291.016 36.2262C292.035 37.6951 292.567 39.1791 292.567 40.6713C292.567 42.044 292.218 43.3582 291.526 44.6077L291.383 44.8566C290.628 46.1272 289.475 47.1369 287.953 47.8978L287.644 48.0472C285.956 48.829 283.905 49.2079 281.509 49.208C279.266 49.208 277.063 48.6906 274.907 47.6645L274.477 47.4526C272.316 46.3534 270.558 44.8411 269.211 42.9187L268.946 42.5292C267.558 40.4066 266.87 37.9627 266.87 35.2158ZM215.185 34.5851V17.5898L215.186 17.5771C215.222 16.8558 215.518 16.2434 216.062 15.7719C216.134 15.7086 216.208 15.6495 216.284 15.5943H211.267C211.34 15.6494 211.411 15.7085 211.479 15.7719C212.029 16.2485 212.321 16.8786 212.356 17.622L212.357 17.6337V35.0254C212.357 38.0094 211.618 40.4137 210.078 42.1738L210.077 42.1728C208.557 43.9143 206.444 44.7639 203.806 44.7639C201.32 44.7639 199.305 43.9584 197.813 42.3222L197.522 41.9844C196.019 40.1361 195.298 37.6045 195.298 34.4533V17.6337L195.299 17.622C195.33 16.9717 195.556 16.4084 195.98 15.9584L196.175 15.7719C196.244 15.7083 196.316 15.6496 196.389 15.5943H186.188C186.262 15.65 186.334 15.7097 186.403 15.7739C186.404 15.7748 186.406 15.7759 186.407 15.7768C186.41 15.7795 186.413 15.782 186.416 15.7846C186.99 16.2926 187.278 16.9558 187.278 17.7343V34.629C187.278 38.3145 188.533 41.0922 191.004 43.0359C193.488 44.9892 197.3 46.0086 202.529 46.0087V46.5085L201.556 46.4958C196.922 46.3796 193.385 45.4203 190.943 43.6177L190.694 43.4283C188.165 41.4392 186.861 38.6243 186.782 34.9834L186.778 34.629V17.7343C186.778 17.1697 186.599 16.6949 186.239 16.3099L186.074 16.1498C185.634 15.7393 185.091 15.5337 184.446 15.5337H183.743V15.0944H198.834V15.5337H198.13C197.485 15.5337 196.942 15.7392 196.502 16.1498L196.347 16.2982C196.007 16.6574 195.824 17.1066 195.798 17.6454V34.4533L195.807 35.0225C195.889 37.8308 196.59 40.0466 197.91 41.6691C199.23 43.2911 201.04 44.1528 203.339 44.2543L203.806 44.264C206.328 44.264 208.293 43.4579 209.701 41.8448C211.049 40.3049 211.764 38.2106 211.849 35.5623L211.857 35.0254V17.6454C211.832 17.1066 211.649 16.6574 211.309 16.2982L211.153 16.1498C210.713 15.7392 210.171 15.5337 209.525 15.5337H208.821V15.0944H218.721V15.5337H218.017C217.401 15.5338 216.858 15.7392 216.389 16.1498L216.233 16.2982C215.894 16.6541 215.71 17.0885 215.685 17.6015V34.5851L215.672 35.2743C215.536 38.672 214.381 41.3606 212.209 43.3405C209.921 45.4523 206.694 46.5085 202.529 46.5085V46.0087C206.612 46.0087 209.702 44.9746 211.87 42.9734L211.872 42.9714L212.075 42.781C214.135 40.7973 215.185 38.0853 215.185 34.5851ZM336.021 30.4495C336.021 25.5906 337.48 21.7637 340.397 18.9693L340.685 18.7018C343.794 15.886 348.106 14.4784 353.62 14.4784L354.515 14.4881C356.609 14.5331 358.761 14.7351 360.968 15.0944C363.49 15.4757 365.412 15.9449 366.731 16.5022L366.291 24.9051H365.896L365.747 24.3994C364.21 19.4177 361.061 16.8464 356.301 16.6858L355.819 16.6779C349.073 16.6781 345.7 21.4004 345.7 30.8449L345.708 31.6367C345.789 35.5381 346.476 38.5885 347.769 40.7884C349.089 42.9884 351.04 44.1569 353.623 44.2943L354.147 44.308C355.605 44.308 356.882 43.9471 357.979 43.2253L358.195 43.0769C359.295 42.2793 359.88 41.2107 359.948 39.8717L359.955 39.6003L359.999 33.5727C359.999 33.0084 359.842 32.5673 359.528 32.2498L359.384 32.1209C359.003 31.769 358.46 31.5928 357.756 31.5927H357.052V31.1534H371.835V31.5927H371.175C370.442 31.5927 369.884 31.769 369.503 32.1209L369.369 32.2498C369.081 32.5673 368.949 33.0084 368.975 33.5727V40.8324C367.332 42.9149 364.355 44.5133 360.043 45.6279C357.814 46.2145 355.526 46.5085 353.18 46.5085V46.0087C355.484 46.0087 357.729 45.7201 359.916 45.1446H359.918L360.702 44.9318C364.45 43.8691 367.01 42.424 368.475 40.6498V33.5727C368.448 32.8784 368.627 32.2675 369.084 31.8261L369.18 31.7392C369.213 31.7092 369.247 31.681 369.282 31.6533H359.601C359.631 31.6778 359.662 31.7022 359.691 31.7285C360.251 32.168 360.499 32.8142 360.499 33.5727V33.5766L360.455 39.6042C360.454 41.2269 359.793 42.5357 358.489 43.481L358.487 43.482C357.25 44.3707 355.795 44.8078 354.147 44.8078C351.135 44.8077 348.841 43.5503 347.339 41.0462L347.337 41.0413C345.895 38.586 345.2 35.1697 345.2 30.8449C345.2 26.0782 346.049 22.4132 347.823 19.929C349.62 17.414 352.315 16.1782 355.819 16.1781C358.507 16.1781 360.764 16.8896 362.549 18.3474C363.991 19.525 365.094 21.165 365.877 23.2386L366.212 16.8351C364.961 16.3566 363.195 15.9364 360.893 15.5884L360.887 15.5874C358.389 15.1808 355.967 14.9782 353.62 14.9782C348.19 14.9782 344.012 16.3629 341.021 19.0718C338.036 21.7744 336.521 25.5448 336.521 30.4495C336.521 35.3231 338.021 39.1098 340.979 41.8721L341.262 42.125C344.228 44.6993 348.183 46.0086 353.18 46.0087V46.5085L352.69 46.5046C347.831 46.4212 343.913 45.0867 340.936 42.5028L340.641 42.2402C337.657 39.4555 336.119 35.68 336.025 30.9132L336.021 30.4495ZM76.792 23.3216L76.3516 23.2777V22.9692C76.3515 20.5936 75.4716 18.9219 73.7119 17.954C72.8613 17.514 71.8491 17.2794 70.6758 17.25H66.3643V42.7244C66.3936 43.487 66.6722 44.1324 67.2002 44.6604C67.7574 45.1883 68.4172 45.4521 69.1797 45.4522H69.752V45.8925H53.957V45.4522H54.5283C55.1955 45.4522 55.7731 45.25 56.2607 44.8459L56.4648 44.6604C57.0221 44.1325 57.3154 43.5016 57.3447 42.7684V17.25H52.9893C51.2295 17.2794 49.8508 17.8072 48.8535 18.8336L48.6719 19.0249C47.7954 20.0045 47.3575 21.3194 47.3574 22.9692V23.2777L46.917 23.3216V14.2577C47.3276 14.4337 48.0612 14.6099 49.1172 14.7859C50.0667 14.9399 50.9489 15.0263 51.7637 15.0456L52.1094 15.0505H71.5996C72.2816 15.0505 73.005 15.0001 73.7695 14.9011L74.5479 14.7859C75.6037 14.6099 76.352 14.4337 76.792 14.2577V23.3216ZM159.516 18.2429C159.55 17.3576 159.879 16.5913 160.498 15.9721L160.507 15.9633C160.653 15.8248 160.807 15.7021 160.967 15.5943H150.018C150.175 15.7045 150.327 15.8295 150.47 15.9721C151.115 16.5878 151.461 17.3532 151.495 18.2429L151.496 18.2527V42.6903L151.495 42.7C151.461 43.5927 151.113 44.3708 150.47 45.0138C150.327 45.1566 150.176 45.2823 150.018 45.3926H160.968C160.808 45.2847 160.654 45.1623 160.508 45.0236L160.498 45.0138C159.85 44.3663 159.516 43.5805 159.516 42.6805V18.2429ZM132.385 23.6291V23.1898C132.186 19.4389 130.611 17.5048 127.659 17.3877L127.369 17.3818V16.882C129.048 16.882 130.403 17.4051 131.355 18.5075C132.293 19.5929 132.779 21.1712 132.885 23.1634V23.6291C132.885 23.901 132.822 24.5379 132.706 25.4939L132.705 25.4929C132.61 26.4922 132.328 27.4325 131.858 28.3095L131.856 28.3134C131.397 29.1531 130.809 29.8073 130.083 30.2494C129.467 30.6246 128.771 30.8324 128.008 30.8879C128.171 31.007 128.326 31.1381 128.471 31.2833L128.567 31.3858C128.784 31.6301 128.972 31.9383 129.137 32.2937L129.275 32.5915C129.402 32.8853 129.509 33.2009 129.601 33.5365L129.723 33.9232C129.845 34.3533 129.97 34.9229 130.102 35.6219L130.259 36.3082C130.42 36.9811 130.598 37.6289 130.791 38.252L130.979 38.7724C131.891 41.1559 133.287 42.8682 135.154 43.9497L135.562 44.1713L135.563 44.1723L135.862 44.3168C137.424 45.0163 139.953 45.3926 143.517 45.3926V45.8925L142.814 45.8876C139.367 45.8378 136.873 45.4139 135.333 44.6165C133.133 43.4891 131.527 41.6012 130.513 38.953L130.317 38.4131C130.119 37.7751 129.937 37.112 129.772 36.4244L129.613 35.7293C129.481 35.0255 129.358 34.4697 129.242 34.0628L129.13 33.7054C129.042 33.3756 128.937 33.07 128.816 32.7897L128.689 32.5173C128.557 32.2312 128.417 31.9945 128.269 31.8075L128.117 31.6367C127.765 31.2849 127.355 31.0208 126.886 30.8449V30.4056H127.59L127.903 30.3958C129.448 30.3048 130.62 29.5307 131.417 28.0732C131.802 27.3546 132.052 26.5912 132.168 25.7828L132.209 25.4333C132.297 24.7073 132.352 24.1876 132.374 23.8742L132.385 23.6291ZM172.247 16.7658C172.247 16.5899 172.222 16.4304 172.173 16.2874L172.114 16.1498C171.909 15.71 171.499 15.4898 170.883 15.4898H170.442V15.0944H181.046V15.4898H180.87C178.905 15.4898 177.291 16.2083 176.03 17.6454L168.595 26.6215L178.891 42.1084C180.328 44.2787 181.897 45.3933 183.598 45.4522V45.8925H178.847V45.3926H181.526C180.419 44.8103 179.403 43.7883 178.474 42.3847L167.973 26.5883L175.646 17.3272L175.65 17.3213L175.654 17.3164C176.322 16.5557 177.085 15.982 177.938 15.5943H172.352C172.434 15.6942 172.503 15.8053 172.561 15.9262C172.689 16.1837 172.747 16.4684 172.747 16.7658C172.747 17.144 172.584 17.5087 172.349 17.8446L172.342 17.8534L162.017 31.9354C162.114 32.1014 162.258 32.3413 162.446 32.6559C162.841 33.3137 163.433 34.2936 164.223 35.5955C165.633 37.8521 166.757 39.5602 167.597 40.726L167.939 41.1926L167.943 41.1975C169.951 43.9479 173.528 45.3926 178.847 45.3926V45.8925L178.345 45.8876C173.215 45.7987 169.613 44.3338 167.539 41.4923C166.879 40.6125 166.013 39.3369 164.94 37.6653L163.799 35.8611C162.611 33.9032 161.869 32.6708 161.572 32.1649L161.423 31.9013L171.938 17.5576C172.118 17.3011 172.22 17.0673 172.242 16.8556L172.247 16.7658ZM223.872 18.3054C223.843 17.2204 223.373 16.4141 222.464 15.8862C222.024 15.6515 221.554 15.5337 221.056 15.5337H220.484V15.0944H237.688L238.22 15.0983C243.662 15.1959 247.137 16.8081 248.643 19.9339C249.112 20.9605 249.347 22.0313 249.347 23.1459L249.341 23.5471C249.315 24.4711 249.199 25.3051 248.994 26.0494L248.9 26.3579C248.666 27.0764 248.331 27.795 247.895 28.5135L247.682 28.8357C246.573 30.4063 244.781 31.3845 242.307 31.7695C243.451 32.0921 244.477 32.6636 245.387 33.4848C246.355 34.306 247.264 35.4501 248.114 36.9165C250.314 40.6709 252.002 43.0909 253.175 44.1762C254.055 44.9974 255.169 45.4229 256.519 45.4522V45.8925H251.019V45.3926H254.066C253.62 45.1739 253.207 44.8916 252.833 44.5423C251.598 43.3987 249.878 40.9152 247.684 37.1693L247.682 37.1674C246.851 35.7349 245.976 34.6408 245.063 33.8665L245.058 33.8607L245.052 33.8558C244.198 33.0844 243.238 32.5509 242.171 32.2498L242.23 31.2755C244.771 30.8802 246.481 29.8519 247.469 28.2509C247.946 27.464 248.293 26.6842 248.514 25.9117C248.733 25.1141 248.847 24.1939 248.847 23.1459C248.847 22.1039 248.627 21.104 248.188 20.1418C246.757 17.1852 243.365 15.5943 237.688 15.5943H222.938C223.858 16.2146 224.341 17.1319 224.372 18.2927V42.7439C224.338 43.6378 223.987 44.4064 223.336 45.0236L223.335 45.0226C223.195 45.1612 223.049 45.2849 222.895 45.3926H233.888C233.728 45.2847 233.574 45.1623 233.428 45.0236L233.418 45.0138C232.77 44.3663 232.436 43.5805 232.436 42.6805V16.882H234.871V17.3818H232.936V42.6805L232.948 42.9617C233.009 43.6065 233.284 44.1728 233.771 44.6604C234.329 45.1883 234.989 45.4521 235.751 45.4522H236.279V45.8925H220.484V45.4522H221.056C221.723 45.4522 222.3 45.25 222.788 44.8459L222.992 44.6604C223.549 44.1325 223.843 43.487 223.872 42.7244V18.3054ZM239.887 23.6291V23.1898C239.688 19.4389 238.113 17.5048 235.161 17.3877L234.871 17.3818V16.882C236.55 16.882 237.905 17.4051 238.857 18.5075C239.795 19.5929 240.281 21.1712 240.387 23.1634V23.6291C240.387 23.8996 240.323 24.5312 240.208 25.4792L240.209 25.4802C240.115 26.4842 239.832 27.4288 239.36 28.3095L239.357 28.3134C238.898 29.153 238.31 29.8073 237.584 30.2494C236.968 30.6244 236.273 30.8325 235.51 30.8879C235.673 31.007 235.827 31.1381 235.973 31.2833L236.069 31.3858C236.286 31.6301 236.473 31.9383 236.639 32.2937L236.777 32.5915C236.904 32.8853 237.011 33.2009 237.103 33.5365L237.224 33.9232C237.346 34.3533 237.472 34.9228 237.604 35.6219L237.761 36.3082C237.922 36.9811 238.1 37.6289 238.293 38.252L238.48 38.7724C239.392 41.1556 240.788 42.8682 242.655 43.9497L243.063 44.1713L243.064 44.1723L243.364 44.3168C244.926 45.0163 247.455 45.3926 251.019 45.3926V45.8925L250.316 45.8876C246.869 45.8378 244.375 45.4139 242.835 44.6165C240.635 43.4891 239.028 41.6013 238.014 38.953L237.819 38.4131C237.621 37.7751 237.439 37.112 237.274 36.4244L237.115 35.7293C236.983 35.0255 236.86 34.4697 236.744 34.0628L236.631 33.7054C236.543 33.3755 236.438 33.0701 236.317 32.7897L236.191 32.5173C236.059 32.2313 235.919 31.9945 235.771 31.8075L235.619 31.6367C235.267 31.2849 234.857 31.0208 234.388 30.8449V30.4056H235.092L235.405 30.3958C236.95 30.3047 238.121 29.5307 238.919 28.0732C239.304 27.3546 239.554 26.5912 239.67 25.7828L239.711 25.4333C239.799 24.7073 239.854 24.1876 239.876 23.8742L239.887 23.6291ZM309.454 43.6041C309.454 43.2788 309.553 42.9033 309.708 42.5009L309.711 42.4921L309.715 42.4833L311.604 38.089H321.683L321.811 38.3955L323.526 42.4872L323.532 42.5009C323.697 42.9303 323.785 43.3584 323.785 43.7808C323.785 44.2659 323.546 44.7414 323.194 45.1896L323.189 45.1964L323.184 45.2032C323.126 45.2715 323.064 45.3344 323 45.3926H335.145C334.367 44.9439 333.701 44.2333 333.148 43.2838L333.139 43.2672L333.13 43.2487L319.547 15.0095C319.418 15.4834 319.231 16.0387 318.99 16.6692C318.566 17.7783 317.962 19.1591 317.182 20.8077L306.934 43.2838L306.916 43.319C306.44 44.1754 305.825 44.8457 305.066 45.3077L305.061 45.3106C305.012 45.3396 304.961 45.3656 304.912 45.3926H310.255C309.981 45.1611 309.762 44.8989 309.629 44.5989L309.616 44.5706L309.607 44.5403C309.509 44.2138 309.454 43.8995 309.454 43.6041ZM376.825 43.6041C376.825 43.2788 376.924 42.9033 377.079 42.5009L377.082 42.4921L377.086 42.4833L378.846 38.3916L378.977 38.089H389.054L389.182 38.3955L390.897 42.4872L390.903 42.5009C391.069 42.9303 391.157 43.3584 391.157 43.7808C391.157 44.2659 390.919 44.7414 390.566 45.1896L390.555 45.2032C390.497 45.2715 390.435 45.3344 390.371 45.3926H402.516C401.739 44.944 401.073 44.2332 400.521 43.2838L400.51 43.2672L400.502 43.2487L386.918 15.0095C386.789 15.4834 386.602 16.0387 386.361 16.6692C385.937 17.7783 385.333 19.1591 384.553 20.8077L374.305 43.2838L374.297 43.3014L374.287 43.319C373.811 44.1754 373.196 44.8457 372.438 45.3077L372.433 45.3106C372.384 45.3396 372.333 45.3655 372.283 45.3926H377.626C377.352 45.1611 377.134 44.8989 377.001 44.5989L376.987 44.5706L376.979 44.5403C376.881 44.2138 376.825 43.8995 376.825 43.6041ZM321.178 36.8891H312.14L316.738 26.3178L321.178 36.8891ZM388.549 36.8891H379.511L384.109 26.3178L388.549 36.8891ZM312.902 36.3893H320.426L316.729 27.589L312.902 36.3893ZM380.273 36.3893H387.797L384.102 27.589L380.273 36.3893ZM104.908 17.3818C104.908 17.1252 104.829 16.8575 104.672 16.5784L104.6 16.4583C104.218 15.8424 103.72 15.5338 103.104 15.5337H102.576V15.0944H130.186L130.718 15.0983C136.16 15.1959 139.635 16.8081 141.141 19.9339C141.61 20.9605 141.845 22.0313 141.845 23.1459L141.839 23.5471C141.813 24.471 141.698 25.3051 141.493 26.0494L141.398 26.3579C141.164 27.0763 140.829 27.795 140.393 28.5135L140.181 28.8357C139.072 30.4065 137.28 31.3845 134.805 31.7695C135.949 32.0921 136.976 32.6636 137.885 33.4848C138.853 34.306 139.762 35.4501 140.612 36.9165C142.812 40.6709 144.5 43.0909 145.673 44.1762C146.452 44.9033 147.415 45.3195 148.562 45.4258C149.07 45.3621 149.52 45.1709 149.912 44.8459L150.116 44.6604C150.673 44.1031 150.967 43.443 150.996 42.6805V18.2615C150.97 17.5944 150.742 17.0171 150.312 16.5295L150.116 16.3255C149.588 15.7976 148.942 15.5337 148.18 15.5337H147.608V15.0944H163.403V15.5337H162.831C162.069 15.5338 161.409 15.7978 160.852 16.3255C160.324 16.8534 160.045 17.499 160.016 18.2615V42.6805L160.028 42.9617C160.089 43.6065 160.364 44.1728 160.852 44.6604C161.409 45.1883 162.069 45.4521 162.831 45.4522H163.403V45.8925H143.517V45.3926H146.564C146.118 45.1739 145.705 44.8916 145.331 44.5423C144.096 43.3987 142.376 40.9151 140.182 37.1693L140.181 37.1674C139.35 35.7347 138.474 34.6408 137.562 33.8665L137.556 33.8607L137.55 33.8558C136.696 33.0845 135.736 32.5509 134.669 32.2498L134.729 31.2755C137.11 30.905 138.763 29.9782 139.773 28.5448L139.967 28.2509C140.444 27.464 140.791 26.6842 141.012 25.9117C141.231 25.1141 141.345 24.1939 141.345 23.1459C141.345 22.1039 141.125 21.1041 140.686 20.1418C139.255 17.1852 135.863 15.5943 130.186 15.5943H115.437C116.356 16.2146 116.839 17.1318 116.87 18.2927V42.7439C116.836 43.6378 116.485 44.4064 115.834 45.0236L115.833 45.0226C115.693 45.1612 115.547 45.2849 115.393 45.3926H126.386C126.226 45.2847 126.072 45.1623 125.926 45.0236L125.916 45.0138C125.268 44.3663 124.934 43.5805 124.934 42.6805V16.882H127.369V17.3818H125.434V42.6805L125.446 42.9617C125.507 43.6065 125.782 44.1728 126.27 44.6604C126.827 45.1883 127.487 45.4521 128.249 45.4522H128.777V45.8925H112.982V45.4522H113.555C114.317 45.4521 114.962 45.1883 115.49 44.6604C116.048 44.1324 116.341 43.487 116.37 42.7244V18.3054C116.341 17.2204 115.871 16.4141 114.962 15.8862C114.522 15.6516 114.053 15.5338 113.555 15.5337H112.916C112.036 15.5337 111.185 15.7831 110.364 16.2816C109.572 16.7802 108.941 17.3964 108.472 18.1297L99.8486 31.7255V42.6805L99.8604 42.9617C99.9181 43.6065 100.179 44.1728 100.641 44.6604C101.198 45.1882 101.872 45.4522 102.664 45.4522H103.192V45.8925H87.4414V45.4522H88.0127C88.7753 45.4522 89.4212 45.1884 89.9492 44.6604C90.5064 44.1325 90.7998 43.487 90.8291 42.7244V31.7255L82.4258 18.0418C81.7382 16.9693 80.8054 16.2317 79.6279 15.8295L79.3896 15.7544C78.9497 15.6077 78.5093 15.5337 78.0693 15.5337H77.4531V15.0944H94.4365V15.5337H93.9082C93.2631 15.5339 92.765 15.8279 92.4131 16.4143L92.3408 16.5354C92.1837 16.8176 92.1045 17.0996 92.1045 17.3818L92.1094 17.4922C92.1287 17.7487 92.2153 18.005 92.3691 18.2615L98.3965 29.1296L104.645 18.2615C104.798 18.0051 104.885 17.7486 104.904 17.4922L104.908 17.3818ZM309.963 43.7857C309.979 43.9727 310.02 44.1767 310.086 44.3968C310.203 44.6607 310.424 44.9101 310.746 45.1446L310.879 45.2169C311.19 45.374 311.512 45.4521 311.846 45.4522H312.242V45.8925H302.431V45.4522H302.827C303.417 45.4521 303.996 45.3065 304.563 45.0148L304.807 44.8801C305.481 44.4695 306.039 43.8686 306.479 43.0769L316.729 20.5938C318.284 17.3087 319.12 15.1233 319.237 14.038H319.634L333.581 43.0329C334.52 44.6458 335.751 45.452 337.276 45.4522H337.629V45.8925H320.954V45.4522H321.35C321.914 45.4522 322.355 45.3066 322.673 45.0148L322.802 44.8801C323.084 44.521 323.243 44.1956 323.278 43.9038L323.285 43.7808C323.285 43.4288 323.212 43.0618 323.065 42.6805L321.35 38.5889H311.935L310.174 42.6805C310.027 43.0615 309.954 43.3695 309.954 43.6041L309.963 43.7857ZM377.334 43.7857C377.35 43.9727 377.392 44.1767 377.458 44.3968C377.575 44.6606 377.795 44.9102 378.117 45.1446L378.25 45.2169C378.561 45.3741 378.884 45.4522 379.218 45.4522H379.613V45.8925H369.802V45.4522H370.198C370.788 45.4521 371.368 45.3068 371.936 45.0148L372.178 44.8801C372.852 44.4695 373.41 43.8686 373.85 43.0769L384.102 20.5938C385.656 17.3087 386.492 15.1233 386.609 14.038H387.005L400.952 43.0329C401.891 44.646 403.123 45.4522 404.648 45.4522H405V45.8925H388.325V45.4522H388.721C389.285 45.4522 389.726 45.3065 390.044 45.0148L390.173 44.8801C390.455 44.5209 390.614 44.1956 390.649 43.9038L390.657 43.7808C390.657 43.4288 390.583 43.0618 390.437 42.6805L388.721 38.5889H379.306L377.546 42.6805C377.399 43.0616 377.325 43.3695 377.325 43.6041L377.334 43.7857ZM105.408 17.3818C105.408 17.7799 105.288 18.1613 105.073 18.5192L105.072 18.5183L98.3887 30.1459L91.9316 18.5046C91.7225 18.151 91.6045 17.7743 91.6045 17.3818C91.6045 16.9492 91.744 16.5365 91.9893 16.1498C92.1191 15.9349 92.2681 15.7493 92.4355 15.5943H80.3779C81.3103 16.0252 82.0849 16.6759 82.6934 17.5439L82.8467 17.7724L82.8516 17.7802L91.2549 31.4639L91.3291 31.584V42.7342L91.3281 42.7439C91.2937 43.6378 90.9444 44.4064 90.293 45.0236L90.292 45.0226C90.1521 45.1614 90.0051 45.2848 89.8506 45.3926H100.759C100.598 45.2849 100.443 45.1624 100.297 45.0236L100.286 45.0138L100.277 45.0041C99.6621 44.3546 99.3486 43.5719 99.3486 42.6805V31.5801L99.4258 31.457L108.05 17.8622L108.051 17.8602L108.251 17.5664C108.737 16.8958 109.355 16.3267 110.098 15.8588L110.104 15.8549L110.441 15.6636C110.488 15.6389 110.537 15.6175 110.584 15.5943H104.536C104.718 15.7613 104.882 15.9624 105.025 16.1947C105.265 16.5722 105.408 16.9703 105.408 17.3818ZM57.8447 42.7889C57.8098 43.6587 57.4556 44.4106 56.8086 45.0236L56.8076 45.0226C56.6679 45.1612 56.5214 45.2849 56.3672 45.3926H67.3164C67.1567 45.2847 67.0029 45.1623 66.8564 45.0236L66.8467 45.0138C66.2275 44.3947 65.8984 43.6292 65.8643 42.7439V16.7502H70.6885L71.1436 16.7717C72.0409 16.8355 72.8569 17.0223 73.585 17.3399L73.9414 17.5097L73.9531 17.5156L74.3066 17.7265C75.2126 18.3075 75.8716 19.0807 76.292 20.0295V14.9401C76.0252 15.0101 75.7185 15.078 75.374 15.1452L74.6299 15.2789C73.5514 15.4587 72.5408 15.5503 71.5996 15.5503H52.1094C51.1685 15.5503 50.1435 15.4593 49.0371 15.2799L49.0352 15.2789C48.3928 15.1718 47.8499 15.0611 47.417 14.946V20.0627C47.6814 19.4695 48.0404 18.9398 48.5 18.4802C49.6092 17.3416 51.1236 16.7811 52.9805 16.7502H57.8447V42.7889Z" fill="white" fill-opacity="0.5"/>
<defs>
<linearGradient id="paint0_linear_1305_205" x1="205.152" y1="2.81143" x2="205.152" y2="54.1419" gradientUnits="userSpaceOnUse">
<stop stop-color="#C3A869"/>
<stop offset="1" stop-color="#BF9535"/>
</linearGradient>
<linearGradient id="paint1_linear_1305_205" x1="205.152" y1="2.81143" x2="205.152" y2="54.1419" gradientUnits="userSpaceOnUse">
<stop stop-color="#C3A869"/>
<stop offset="1" stop-color="#BF9535"/>
</linearGradient>
<linearGradient id="paint2_linear_1305_205" x1="205.152" y1="2.81143" x2="205.152" y2="54.1419" gradientUnits="userSpaceOnUse">
<stop stop-color="#C3A869"/>
<stop offset="1" stop-color="#BF9535"/>
</linearGradient>
<linearGradient id="paint3_linear_1305_205" x1="205.152" y1="2.81143" x2="205.152" y2="54.1419" gradientUnits="userSpaceOnUse">
<stop stop-color="#C3A869"/>
<stop offset="1" stop-color="#BF9535"/>
</linearGradient>
<linearGradient id="paint4_linear_1305_205" x1="205.152" y1="2.81143" x2="205.152" y2="54.1419" gradientUnits="userSpaceOnUse">
<stop stop-color="#C3A869"/>
<stop offset="1" stop-color="#BF9535"/>
</linearGradient>
<linearGradient id="paint5_linear_1305_205" x1="205.152" y1="2.81143" x2="205.152" y2="54.1419" gradientUnits="userSpaceOnUse">
<stop stop-color="#C3A869"/>
<stop offset="1" stop-color="#BF9535"/>
</linearGradient>
<linearGradient id="paint6_linear_1305_205" x1="205.152" y1="2.81143" x2="205.152" y2="54.1419" gradientUnits="userSpaceOnUse">
<stop stop-color="#C3A869"/>
<stop offset="1" stop-color="#BF9535"/>
</linearGradient>
<linearGradient id="paint7_linear_1305_205" x1="205.152" y1="2.81143" x2="205.152" y2="54.1419" gradientUnits="userSpaceOnUse">
<stop stop-color="#C3A869"/>
<stop offset="1" stop-color="#BF9535"/>
</linearGradient>
<linearGradient id="paint8_linear_1305_205" x1="205.152" y1="2.81143" x2="205.152" y2="54.1419" gradientUnits="userSpaceOnUse">
<stop stop-color="#C3A869"/>
<stop offset="1" stop-color="#BF9535"/>
</linearGradient>
<linearGradient id="paint9_linear_1305_205" x1="205.152" y1="2.81143" x2="205.152" y2="54.1419" gradientUnits="userSpaceOnUse">
<stop stop-color="#C3A869"/>
<stop offset="1" stop-color="#BF9535"/>
</linearGradient>
<linearGradient id="paint10_linear_1305_205" x1="205.152" y1="2.81143" x2="205.152" y2="54.1419" gradientUnits="userSpaceOnUse">
<stop stop-color="#C3A869"/>
<stop offset="1" stop-color="#BF9535"/>
</linearGradient>
</defs>
</svg>
